{"glyphs":{"0":{"ha":794,"x_min":56,"x_max":748,"o":"m 404 -14 q 149 87 243 -14 q 56 389 56 189 l 56 597 q 149 899 56 797 q 402 1002 243 1002 q 654 899 560 1002 q 748 597 748 797 l 748 389 q 655 87 748 189 q 404 -14 562 -14 m 404 167 q 484 215 456 167 q 511 376 511 262 l 511 612 q 483 772 511 724 q 402 820 454 820 q 320 772 348 820 q 292 612 292 724 l 292 376 q 320 214 292 262 q 404 167 348 167 z "},"1":{"ha":640,"x_min":19,"x_max":609,"o":"m 20 0 l 20 139 l 196 161 l 196 785 l 19 787 l 19 918 l 433 987 l 433 161 l 609 139 l 609 0 l 20 0 z "},"2":{"ha":772,"x_min":28,"x_max":739,"o":"m 44 0 l 44 153 l 362 488 q 452 610 426 560 q 477 703 477 659 q 452 784 477 751 q 374 818 426 818 q 291 778 318 818 q 264 671 264 739 l 31 671 l 30 675 q 70 841 28 767 q 190 958 111 915 q 375 1002 269 1002 q 626 920 535 1002 q 716 705 716 838 q 695 592 716 644 q 628 483 675 541 q 502 342 581 425 l 353 184 l 354 180 l 550 180 l 560 262 l 739 262 l 739 0 l 44 0 z "},"3":{"ha":757,"x_min":29,"x_max":751,"o":"m 386 -14 q 207 19 289 -14 q 77 118 125 53 q 31 277 29 183 l 32 281 l 264 281 q 297 200 264 234 q 386 167 330 167 q 478 201 444 167 q 513 289 513 235 q 475 380 513 345 q 367 416 438 416 l 266 416 l 266 591 l 374 591 q 465 623 433 591 q 497 707 497 655 q 468 788 497 756 q 386 820 439 820 q 310 793 340 820 q 279 724 279 766 l 48 724 l 47 728 q 87 871 44 810 q 208 967 130 933 q 383 1002 285 1002 q 638 929 542 1002 q 735 723 735 856 q 696 596 735 649 q 580 507 657 544 q 704 418 658 477 q 751 277 751 359 q 703 122 751 187 q 573 21 656 56 q 386 -14 491 -14 z "},"4":{"ha":773,"x_min":17,"x_max":749,"o":"m 307 0 l 307 139 l 410 161 l 410 241 l 33 241 l 17 351 l 412 987 l 648 987 l 648 389 l 744 389 l 744 241 l 648 241 l 648 161 l 749 139 l 749 0 l 307 0 m 229 389 l 410 389 l 410 678 l 406 680 l 388 656 l 229 389 z "},"5":{"ha":745,"x_min":31,"x_max":728,"o":"m 382 -14 q 208 21 288 -14 q 79 120 127 56 q 33 270 31 184 l 34 273 l 267 288 q 299 199 267 231 q 382 167 330 167 q 467 210 442 167 q 492 317 492 254 q 464 441 492 395 q 374 488 436 488 q 306 468 332 488 q 268 421 279 449 l 53 433 l 110 987 l 707 987 l 707 744 l 572 744 l 551 804 l 304 804 l 278 607 q 343 637 304 625 q 427 650 382 649 q 651 565 573 652 q 728 318 728 478 q 688 150 728 226 q 571 30 648 75 q 382 -14 494 -14 z "},"6":{"ha":776,"x_min":49,"x_max":762,"o":"m 413 -14 q 222 34 304 -14 q 95 172 140 82 q 49 385 49 261 l 49 583 q 102 806 49 713 q 248 951 155 900 q 463 1002 341 1002 q 567 992 522 1002 q 669 960 612 982 l 629 787 q 549 807 589 799 q 471 815 509 815 q 334 759 377 815 q 291 598 290 703 l 293 595 q 481 667 356 667 q 633 623 570 667 q 729 503 696 580 q 762 328 762 427 q 717 153 762 230 q 593 31 672 75 q 413 -14 515 -14 m 407 167 q 492 215 459 167 q 524 332 524 264 q 492 443 524 401 q 397 486 459 486 q 335 474 366 486 q 286 442 305 463 l 286 385 q 319 223 286 280 q 407 167 351 167 z "},"7":{"ha":742,"x_min":22,"x_max":739,"o":"m 212 0 l 221 96 q 313 486 241 304 q 511 806 385 667 l 203 806 l 197 718 l 22 718 l 22 987 l 739 987 l 739 806 q 617 641 665 721 q 538 478 568 561 q 489 301 507 395 q 459 96 471 208 l 450 0 l 212 0 z "},"8":{"ha":749,"x_min":35,"x_max":726,"o":"m 382 -14 q 201 19 279 -14 q 79 116 123 52 q 35 271 35 180 q 77 410 35 350 q 193 505 119 469 q 91 595 127 538 q 54 723 54 651 q 144 929 54 856 q 380 1002 233 1002 q 618 929 528 1002 q 707 723 707 856 q 670 595 707 651 q 568 505 633 538 q 685 409 643 469 q 726 271 726 349 q 631 60 726 134 q 382 -14 536 -14 m 382 596 q 447 627 425 596 q 469 711 469 657 q 447 791 469 762 q 380 820 424 820 q 315 791 337 820 q 293 711 293 762 q 315 627 293 657 q 382 596 337 596 m 382 167 q 459 201 430 167 q 489 292 489 235 q 459 381 489 349 q 380 414 429 414 q 302 381 332 414 q 273 292 273 349 q 302 200 273 234 q 382 167 332 167 z "},"9":{"ha":768,"x_min":34,"x_max":726,"o":"m 336 -14 q 229 -3 284 -14 q 125 28 174 7 l 149 197 q 239 175 193 184 q 322 167 286 167 q 448 217 402 167 q 494 368 494 267 l 494 390 q 314 308 420 308 q 169 349 232 308 q 70 467 105 391 q 34 648 34 543 q 78 827 34 747 q 201 954 122 907 q 382 1002 279 1002 q 559 952 481 1002 q 681 812 637 903 q 726 596 726 722 l 726 359 q 675 164 726 248 q 536 33 624 79 q 336 -14 448 -14 m 383 477 q 439 488 411 477 q 488 518 467 498 l 488 625 q 458 770 488 720 q 381 820 427 820 q 323 796 347 820 q 285 732 298 772 q 272 648 272 693 q 298 524 272 570 q 383 477 324 477 z "},"A":{"ha":1017,"x_min":16,"x_max":1001,"o":"m 16 0 l 16 139 l 85 149 l 379 987 l 637 987 l 932 149 l 1001 139 l 1001 0 l 632 0 l 632 139 l 696 151 l 667 258 l 349 258 l 321 151 l 385 139 l 385 0 l 16 0 m 399 425 l 616 425 l 519 724 l 509 759 l 505 759 l 493 721 l 399 425 z "},"Á":{"ha":1017,"x_min":16,"x_max":1001,"o":"m 16 0 l 16 139 l 85 149 l 379 987 l 637 987 l 932 149 l 1001 139 l 1001 0 l 632 0 l 632 139 l 696 151 l 667 258 l 349 258 l 321 151 l 385 139 l 385 0 l 16 0 m 399 425 l 616 425 l 519 724 l 509 759 l 505 759 l 493 721 l 399 425 m 368 1059 l 509 1244 l 751 1244 l 753 1240 l 563 1059 l 368 1059 z "},"Ă":{"ha":1017,"x_min":16,"x_max":1001,"o":"m 16 0 l 16 139 l 85 149 l 379 987 l 637 987 l 932 149 l 1001 139 l 1001 0 l 632 0 l 632 139 l 696 151 l 667 258 l 349 258 l 321 151 l 385 139 l 385 0 l 16 0 m 399 425 l 616 425 l 519 724 l 509 759 l 505 759 l 493 721 l 399 425 m 509 1039 q 323 1095 393 1039 q 258 1240 254 1152 l 260 1244 l 414 1244 q 437 1187 414 1210 q 509 1164 460 1164 q 580 1186 557 1164 q 602 1244 602 1208 l 758 1244 l 759 1240 q 694 1095 762 1152 q 509 1039 625 1039 z "},"Ắ":{"ha":1017,"x_min":16,"x_max":1001,"o":"m 16 0 l 16 139 l 85 149 l 379 987 l 637 987 l 932 149 l 1001 139 l 1001 0 l 632 0 l 632 139 l 696 151 l 667 258 l 349 258 l 321 151 l 385 139 l 385 0 l 16 0 m 399 425 l 616 425 l 519 724 l 509 759 l 505 759 l 493 721 l 399 425 m 429 1210 l 501 1361 l 693 1361 l 694 1357 l 556 1210 l 429 1210 m 503 1017 q 316 1069 386 1017 q 252 1203 247 1122 l 253 1207 l 404 1207 q 427 1155 404 1176 q 503 1135 451 1135 q 576 1155 553 1135 q 600 1207 600 1175 l 751 1207 l 752 1203 q 687 1069 755 1122 q 503 1017 618 1017 z "},"Ặ":{"ha":1017,"x_min":16,"x_max":1001,"o":"m 16 0 l 16 139 l 85 149 l 379 987 l 637 987 l 932 149 l 1001 139 l 1001 0 l 632 0 l 632 139 l 696 151 l 667 258 l 349 258 l 321 151 l 385 139 l 385 0 l 16 0 m 399 425 l 616 425 l 519 724 l 509 759 l 505 759 l 493 721 l 399 425 m 509 1039 q 323 1095 393 1039 q 258 1240 254 1152 l 260 1244 l 414 1244 q 437 1187 414 1210 q 509 1164 460 1164 q 580 1186 557 1164 q 602 1244 602 1208 l 758 1244 l 759 1240 q 694 1095 762 1152 q 509 1039 625 1039 m 386 -282 l 386 -97 l 631 -97 l 631 -282 l 386 -282 z "},"Ằ":{"ha":1017,"x_min":16,"x_max":1001,"o":"m 16 0 l 16 139 l 85 149 l 379 987 l 637 987 l 932 149 l 1001 139 l 1001 0 l 632 0 l 632 139 l 696 151 l 667 258 l 349 258 l 321 151 l 385 139 l 385 0 l 16 0 m 399 425 l 616 425 l 519 724 l 509 759 l 505 759 l 493 721 l 399 425 m 588 1210 l 461 1210 l 323 1357 l 324 1361 l 516 1361 l 588 1210 m 515 1017 q 330 1069 399 1017 q 265 1203 262 1122 l 267 1207 l 418 1207 q 441 1155 418 1175 q 515 1135 465 1135 q 590 1155 566 1135 q 614 1207 614 1176 l 764 1207 l 766 1203 q 701 1069 770 1122 q 515 1017 632 1017 z "},"Ẳ":{"ha":1017,"x_min":16,"x_max":1001,"o":"m 16 0 l 16 139 l 85 149 l 379 987 l 637 987 l 932 149 l 1001 139 l 1001 0 l 632 0 l 632 139 l 696 151 l 667 258 l 349 258 l 321 151 l 385 139 l 385 0 l 16 0 m 399 425 l 616 425 l 519 724 l 509 759 l 505 759 l 493 721 l 399 425 m 435 1205 l 418 1284 q 488 1293 467 1285 q 509 1317 509 1301 q 420 1352 509 1352 l 425 1438 q 614 1409 549 1438 q 680 1331 680 1381 q 651 1273 680 1293 q 581 1246 623 1252 l 580 1205 l 435 1205 m 509 1017 q 322 1069 392 1017 q 258 1203 253 1122 l 259 1207 l 410 1207 q 433 1155 410 1176 q 509 1135 457 1135 q 582 1155 559 1135 q 606 1207 606 1175 l 757 1207 l 758 1203 q 693 1069 762 1122 q 509 1017 625 1017 z "},"Ẵ":{"ha":1017,"x_min":16,"x_max":1001,"o":"m 16 0 l 16 139 l 85 149 l 379 987 l 637 987 l 932 149 l 1001 139 l 1001 0 l 632 0 l 632 139 l 696 151 l 667 258 l 349 258 l 321 151 l 385 139 l 385 0 l 16 0 m 399 425 l 616 425 l 519 724 l 509 759 l 505 759 l 493 721 l 399 425 m 372 1234 l 262 1265 q 283 1346 262 1309 q 340 1405 305 1383 q 416 1428 376 1428 q 481 1413 448 1428 q 544 1383 514 1398 q 597 1369 574 1369 q 638 1388 624 1369 q 653 1436 653 1408 l 763 1404 q 741 1322 763 1359 q 685 1263 720 1285 q 608 1241 650 1241 q 541 1256 574 1241 q 479 1286 508 1271 q 427 1301 450 1301 q 386 1281 400 1301 q 372 1234 372 1261 m 509 1017 q 322 1069 392 1017 q 258 1203 253 1122 l 259 1207 l 410 1207 q 433 1155 410 1176 q 509 1135 457 1135 q 582 1155 559 1135 q 606 1207 606 1175 l 757 1207 l 758 1203 q 693 1069 762 1122 q 509 1017 625 1017 z "},"Â":{"ha":1017,"x_min":16,"x_max":1001,"o":"m 16 0 l 16 139 l 85 149 l 379 987 l 637 987 l 932 149 l 1001 139 l 1001 0 l 632 0 l 632 139 l 696 151 l 667 258 l 349 258 l 321 151 l 385 139 l 385 0 l 16 0 m 399 425 l 616 425 l 519 724 l 509 759 l 505 759 l 493 721 l 399 425 m 240 1059 l 240 1076 l 416 1244 l 604 1244 l 777 1074 l 777 1059 l 594 1059 l 509 1155 l 420 1059 l 240 1059 z "},"Ấ":{"ha":1017,"x_min":16,"x_max":1001,"o":"m 16 0 l 16 139 l 85 149 l 379 987 l 637 987 l 932 149 l 1001 139 l 1001 0 l 632 0 l 632 139 l 696 151 l 667 258 l 349 258 l 321 151 l 385 139 l 385 0 l 16 0 m 399 425 l 616 425 l 519 724 l 509 759 l 505 759 l 493 721 l 399 425 m 654 1210 l 726 1361 l 918 1361 l 920 1357 l 781 1210 l 654 1210 m 239 1031 l 239 1049 l 416 1204 l 603 1204 l 777 1046 l 777 1031 l 592 1031 l 509 1116 l 420 1031 l 239 1031 z "},"Ậ":{"ha":1017,"x_min":16,"x_max":1001,"o":"m 16 0 l 16 139 l 85 149 l 379 987 l 637 987 l 932 149 l 1001 139 l 1001 0 l 632 0 l 632 139 l 696 151 l 667 258 l 349 258 l 321 151 l 385 139 l 385 0 l 16 0 m 399 425 l 616 425 l 519 724 l 509 759 l 505 759 l 493 721 l 399 425 m 240 1059 l 240 1076 l 416 1244 l 604 1244 l 777 1074 l 777 1059 l 594 1059 l 509 1155 l 420 1059 l 240 1059 m 386 -282 l 386 -97 l 631 -97 l 631 -282 l 386 -282 z "},"Ầ":{"ha":1017,"x_min":16,"x_max":1001,"o":"m 16 0 l 16 139 l 85 149 l 379 987 l 637 987 l 932 149 l 1001 139 l 1001 0 l 632 0 l 632 139 l 696 151 l 667 258 l 349 258 l 321 151 l 385 139 l 385 0 l 16 0 m 399 425 l 616 425 l 519 724 l 509 759 l 505 759 l 493 721 l 399 425 m 363 1210 l 236 1210 l 98 1357 l 99 1361 l 291 1361 l 363 1210 m 778 1031 l 597 1031 l 509 1116 l 425 1031 l 241 1031 l 241 1046 l 414 1204 l 602 1204 l 778 1049 l 778 1031 z "},"Ẩ":{"ha":1017,"x_min":16,"x_max":1001,"o":"m 16 0 l 16 139 l 85 149 l 379 987 l 637 987 l 932 149 l 1001 139 l 1001 0 l 632 0 l 632 139 l 696 151 l 667 258 l 349 258 l 321 151 l 385 139 l 385 0 l 16 0 m 399 425 l 616 425 l 519 724 l 509 759 l 505 759 l 493 721 l 399 425 m 673 1171 l 657 1250 q 721 1259 701 1251 q 741 1283 741 1267 q 659 1318 741 1318 l 664 1404 q 847 1375 784 1404 q 911 1297 911 1347 q 884 1239 911 1259 q 818 1213 858 1218 l 817 1171 l 673 1171 m 239 1031 l 239 1049 l 416 1204 l 603 1204 l 777 1046 l 777 1031 l 592 1031 l 509 1116 l 420 1031 l 239 1031 z "},"Ẫ":{"ha":1017,"x_min":16,"x_max":1001,"o":"m 16 0 l 16 139 l 85 149 l 379 987 l 637 987 l 932 149 l 1001 139 l 1001 0 l 632 0 l 632 139 l 696 151 l 667 258 l 349 258 l 321 151 l 385 139 l 385 0 l 16 0 m 399 425 l 616 425 l 519 724 l 509 759 l 505 759 l 493 721 l 399 425 m 363 1234 l 252 1265 q 274 1346 252 1309 q 331 1405 296 1383 q 406 1428 366 1428 q 471 1413 438 1428 q 535 1383 505 1398 q 587 1369 565 1369 q 629 1388 614 1369 q 644 1436 644 1408 l 753 1404 q 732 1322 753 1359 q 675 1263 710 1285 q 599 1241 640 1241 q 531 1256 564 1241 q 470 1286 498 1271 q 418 1301 441 1301 q 377 1281 391 1301 q 363 1234 363 1261 m 240 1031 l 240 1049 l 416 1204 l 604 1204 l 777 1046 l 777 1031 l 593 1031 l 509 1116 l 421 1031 l 240 1031 z "},"Ä":{"ha":1017,"x_min":16,"x_max":1001,"o":"m 16 0 l 16 139 l 85 149 l 379 987 l 637 987 l 932 149 l 1001 139 l 1001 0 l 632 0 l 632 139 l 696 151 l 667 258 l 349 258 l 321 151 l 385 139 l 385 0 l 16 0 m 399 425 l 616 425 l 519 724 l 509 759 l 505 759 l 493 721 l 399 425 m 557 1059 l 557 1244 l 779 1244 l 779 1059 l 557 1059 m 239 1059 l 239 1244 l 460 1244 l 460 1059 l 239 1059 z "},"Ạ":{"ha":1017,"x_min":16,"x_max":1001,"o":"m 16 0 l 16 139 l 85 149 l 379 987 l 637 987 l 932 149 l 1001 139 l 1001 0 l 632 0 l 632 139 l 696 151 l 667 258 l 349 258 l 321 151 l 385 139 l 385 0 l 16 0 m 399 425 l 616 425 l 519 724 l 509 759 l 505 759 l 493 721 l 399 425 m 386 -282 l 386 -97 l 631 -97 l 631 -282 l 386 -282 z "},"À":{"ha":1017,"x_min":16,"x_max":1001,"o":"m 16 0 l 16 139 l 85 149 l 379 987 l 637 987 l 932 149 l 1001 139 l 1001 0 l 632 0 l 632 139 l 696 151 l 667 258 l 349 258 l 321 151 l 385 139 l 385 0 l 16 0 m 399 425 l 616 425 l 519 724 l 509 759 l 505 759 l 493 721 l 399 425 m 650 1059 l 454 1059 l 264 1240 l 266 1244 l 509 1244 l 650 1059 z "},"Ả":{"ha":1017,"x_min":16,"x_max":1001,"o":"m 16 0 l 16 139 l 85 149 l 379 987 l 637 987 l 932 149 l 1001 139 l 1001 0 l 632 0 l 632 139 l 696 151 l 667 258 l 349 258 l 321 151 l 385 139 l 385 0 l 16 0 m 399 425 l 616 425 l 519 724 l 509 759 l 505 759 l 493 721 l 399 425 m 401 1037 l 385 1122 q 454 1134 433 1124 q 475 1164 475 1144 q 452 1198 475 1188 q 387 1208 429 1208 l 391 1308 q 608 1273 533 1308 q 683 1174 683 1238 q 653 1108 683 1133 q 582 1078 624 1084 l 581 1037 l 401 1037 z "},"Ā":{"ha":1017,"x_min":16,"x_max":1001,"o":"m 16 0 l 16 139 l 85 149 l 379 987 l 637 987 l 932 149 l 1001 139 l 1001 0 l 632 0 l 632 139 l 696 151 l 667 258 l 349 258 l 321 151 l 385 139 l 385 0 l 16 0 m 399 425 l 616 425 l 519 724 l 509 759 l 505 759 l 493 721 l 399 425 m 258 1059 l 258 1192 l 758 1192 l 758 1059 l 258 1059 z "},"Ą":{"ha":1017,"x_min":16,"x_max":1040,"o":"m 16 0 l 16 139 l 85 149 l 379 987 l 637 987 l 932 149 l 1001 139 l 1001 0 l 632 0 l 632 139 l 696 151 l 667 258 l 349 258 l 321 151 l 385 139 l 385 0 l 16 0 m 399 425 l 616 425 l 519 724 l 509 759 l 505 759 l 493 721 l 399 425 m 924 -284 q 792 -244 844 -284 q 741 -132 741 -204 q 775 -36 741 -84 q 892 42 809 13 l 1001 0 q 930 -52 950 -28 q 911 -102 911 -76 q 966 -148 911 -148 q 993 -146 981 -148 q 1016 -141 1006 -144 l 1040 -258 q 990 -277 1018 -269 q 924 -284 962 -284 z "},"Å":{"ha":1017,"x_min":16,"x_max":1001,"o":"m 16 0 l 16 139 l 85 149 l 379 987 l 637 987 l 932 149 l 1001 139 l 1001 0 l 632 0 l 632 139 l 696 151 l 667 258 l 349 258 l 321 151 l 385 139 l 385 0 l 16 0 m 399 425 l 616 425 l 519 724 l 509 759 l 505 759 l 493 721 l 399 425 m 510 1020 q 388 1063 437 1020 q 340 1174 340 1107 q 389 1285 340 1240 q 510 1331 438 1331 q 629 1285 581 1331 q 677 1174 677 1240 q 629 1063 677 1107 q 510 1020 581 1020 m 510 1111 q 553 1128 538 1111 q 569 1174 569 1145 q 553 1220 569 1203 q 510 1238 538 1238 q 465 1220 483 1238 q 448 1174 448 1203 q 465 1128 448 1145 q 510 1111 482 1111 z "},"Ǻ":{"ha":1017,"x_min":16,"x_max":1001,"o":"m 16 0 l 16 139 l 85 149 l 379 987 l 637 987 l 932 149 l 1001 139 l 1001 0 l 632 0 l 632 139 l 696 151 l 667 258 l 349 258 l 321 151 l 385 139 l 385 0 l 16 0 m 399 425 l 616 425 l 519 724 l 509 759 l 505 759 l 493 721 l 399 425 m 432 1238 l 519 1374 l 714 1374 l 715 1370 l 573 1238 l 432 1238 m 510 898 q 389 940 437 898 q 340 1048 340 983 q 389 1157 340 1113 q 510 1202 438 1202 q 629 1157 581 1202 q 677 1048 677 1113 q 629 940 677 983 q 510 898 581 898 m 510 989 q 553 1005 537 989 q 568 1048 568 1021 q 553 1093 568 1076 q 510 1109 538 1109 q 466 1093 483 1109 q 448 1048 448 1076 q 466 1005 448 1021 q 510 989 483 989 z "},"Ḁ":{"ha":1017,"x_min":16,"x_max":1001,"o":"m 16 0 l 16 139 l 85 149 l 379 987 l 637 987 l 932 149 l 1001 139 l 1001 0 l 632 0 l 632 139 l 696 151 l 667 258 l 349 258 l 321 151 l 385 139 l 385 0 l 16 0 m 399 425 l 616 425 l 519 724 l 509 759 l 505 759 l 493 721 l 399 425 m 510 -359 q 388 -316 437 -359 q 340 -205 340 -273 q 389 -94 340 -139 q 510 -49 438 -49 q 629 -94 581 -49 q 677 -205 677 -140 q 629 -316 677 -273 q 510 -359 581 -359 m 510 -269 q 553 -252 538 -269 q 569 -205 569 -235 q 553 -159 569 -176 q 510 -142 538 -142 q 465 -159 483 -142 q 448 -205 448 -176 q 465 -252 448 -235 q 510 -269 482 -269 z "},"Ã":{"ha":1017,"x_min":16,"x_max":1001,"o":"m 16 0 l 16 139 l 85 149 l 379 987 l 637 987 l 932 149 l 1001 139 l 1001 0 l 632 0 l 632 139 l 696 151 l 667 258 l 349 258 l 321 151 l 385 139 l 385 0 l 16 0 m 399 425 l 616 425 l 519 724 l 509 759 l 505 759 l 493 721 l 399 425 m 364 1047 l 243 1081 q 266 1169 243 1128 q 326 1234 289 1209 q 406 1258 363 1258 q 476 1242 440 1258 q 543 1210 511 1226 q 597 1194 575 1194 q 640 1215 625 1195 q 654 1266 654 1235 l 774 1232 q 752 1142 774 1183 q 692 1078 729 1102 q 611 1054 654 1054 q 539 1070 574 1054 q 473 1103 503 1086 q 419 1119 442 1119 q 378 1098 391 1119 q 364 1047 364 1076 z "},"Æ":{"ha":1417,"x_min":51,"x_max":1354,"o":"m 51 0 l 51 139 l 144 153 l 581 987 l 1312 987 l 1312 718 l 1136 718 l 1129 802 l 926 802 l 936 596 l 1255 596 l 1255 412 l 943 412 l 954 184 l 1172 184 l 1179 269 l 1354 269 l 1354 0 l 618 0 l 618 139 l 717 159 l 713 241 l 455 241 l 410 149 l 470 139 l 470 0 l 51 0 m 539 417 l 705 417 l 692 727 l 688 727 l 681 710 l 539 417 z "},"Ǽ":{"ha":1417,"x_min":51,"x_max":1354,"o":"m 51 0 l 51 139 l 144 153 l 581 987 l 1312 987 l 1312 718 l 1136 718 l 1129 802 l 926 802 l 936 596 l 1255 596 l 1255 412 l 943 412 l 954 184 l 1172 184 l 1179 269 l 1354 269 l 1354 0 l 618 0 l 618 139 l 717 159 l 713 241 l 455 241 l 410 149 l 470 139 l 470 0 l 51 0 m 539 417 l 705 417 l 692 727 l 688 727 l 681 710 l 539 417 m 638 1059 l 779 1244 l 1022 1244 l 1023 1240 l 833 1059 l 638 1059 z "},"B":{"ha":921,"x_min":27,"x_max":903,"o":"m 27 0 l 27 139 l 130 161 l 130 826 l 27 848 l 27 987 l 474 987 q 765 919 661 987 q 869 715 869 850 q 836 590 869 645 q 734 506 803 534 q 863 428 823 487 q 903 293 903 370 q 806 74 903 148 q 524 0 709 0 l 27 0 m 368 578 l 464 578 q 631 688 631 578 q 592 778 631 749 q 474 806 553 806 l 368 806 l 368 578 m 368 181 l 524 181 q 666 294 666 181 q 635 389 666 357 q 536 420 604 420 l 368 420 l 368 181 z "},"C":{"ha":909,"x_min":24,"x_max":873,"o":"m 512 -14 q 260 43 371 -14 q 87 208 150 100 q 24 471 24 316 l 24 516 q 82 768 24 659 q 247 940 140 878 q 503 1002 355 1002 q 699 974 606 1002 q 872 880 792 947 l 872 626 l 699 626 l 675 772 q 601 809 641 795 q 511 823 561 823 q 330 743 398 823 q 261 517 261 663 l 261 471 q 293 311 261 380 q 382 203 325 242 q 515 165 439 165 q 596 173 555 165 q 676 196 637 182 l 700 336 l 873 336 l 873 87 q 723 16 814 46 q 512 -14 631 -14 z "},"Ć":{"ha":909,"x_min":24,"x_max":873,"o":"m 512 -14 q 260 43 371 -14 q 87 208 150 100 q 24 471 24 316 l 24 516 q 82 768 24 659 q 247 940 140 878 q 503 1002 355 1002 q 699 974 606 1002 q 872 880 792 947 l 872 626 l 699 626 l 675 772 q 601 809 641 795 q 511 823 561 823 q 330 743 398 823 q 261 517 261 663 l 261 471 q 293 311 261 380 q 382 203 325 242 q 515 165 439 165 q 596 173 555 165 q 676 196 637 182 l 700 336 l 873 336 l 873 87 q 723 16 814 46 q 512 -14 631 -14 m 350 1059 l 491 1244 l 734 1244 l 735 1240 l 545 1059 l 350 1059 z "},"Č":{"ha":909,"x_min":24,"x_max":873,"o":"m 512 -14 q 260 43 371 -14 q 87 208 150 100 q 24 471 24 316 l 24 516 q 82 768 24 659 q 247 940 140 878 q 503 1002 355 1002 q 699 974 606 1002 q 872 880 792 947 l 872 626 l 699 626 l 675 772 q 601 809 641 795 q 511 823 561 823 q 330 743 398 823 q 261 517 261 663 l 261 471 q 293 311 261 380 q 382 203 325 242 q 515 165 439 165 q 596 173 555 165 q 676 196 637 182 l 700 336 l 873 336 l 873 87 q 723 16 814 46 q 512 -14 631 -14 m 760 1244 l 760 1226 l 583 1059 l 396 1059 l 222 1229 l 222 1244 l 406 1244 l 490 1147 l 580 1244 l 760 1244 z "},"Ç":{"ha":909,"x_min":24,"x_max":873,"o":"m 512 -14 q 260 43 371 -14 q 87 208 150 100 q 24 471 24 316 l 24 516 q 82 768 24 659 q 247 940 140 878 q 503 1002 355 1002 q 699 974 606 1002 q 872 880 792 947 l 872 626 l 699 626 l 675 772 q 601 809 641 795 q 511 823 561 823 q 330 743 398 823 q 261 517 261 663 l 261 471 q 293 311 261 380 q 382 203 325 242 q 515 165 439 165 q 596 173 555 165 q 676 196 637 182 l 700 336 l 873 336 l 873 87 q 723 16 814 46 q 512 -14 631 -14 m 401 -321 l 396 -192 q 452 -180 432 -192 q 473 -144 473 -169 q 449 -106 473 -117 q 380 -94 426 -96 l 400 7 l 578 7 l 571 -37 q 648 -71 617 -44 q 680 -150 680 -98 q 607 -275 680 -228 q 401 -321 534 -321 z "},"Ĉ":{"ha":909,"x_min":24,"x_max":873,"o":"m 512 -14 q 260 43 371 -14 q 87 208 150 100 q 24 471 24 316 l 24 516 q 82 768 24 659 q 247 940 140 878 q 503 1002 355 1002 q 699 974 606 1002 q 872 880 792 947 l 872 626 l 699 626 l 675 772 q 601 809 641 795 q 511 823 561 823 q 330 743 398 823 q 261 517 261 663 l 261 471 q 293 311 261 380 q 382 203 325 242 q 515 165 439 165 q 596 173 555 165 q 676 196 637 182 l 700 336 l 873 336 l 873 87 q 723 16 814 46 q 512 -14 631 -14 m 222 1059 l 222 1076 l 399 1244 l 586 1244 l 760 1074 l 760 1059 l 576 1059 l 492 1155 l 402 1059 l 222 1059 z "},"Ċ":{"ha":909,"x_min":24,"x_max":873,"o":"m 512 -14 q 260 43 371 -14 q 87 208 150 100 q 24 471 24 316 l 24 516 q 82 768 24 659 q 247 940 140 878 q 503 1002 355 1002 q 699 974 606 1002 q 872 880 792 947 l 872 626 l 699 626 l 675 772 q 601 809 641 795 q 511 823 561 823 q 330 743 398 823 q 261 517 261 663 l 261 471 q 293 311 261 380 q 382 203 325 242 q 515 165 439 165 q 596 173 555 165 q 676 196 637 182 l 700 336 l 873 336 l 873 87 q 723 16 814 46 q 512 -14 631 -14 m 368 1059 l 368 1244 l 613 1244 l 613 1059 l 368 1059 z "},"D":{"ha":997,"x_min":27,"x_max":946,"o":"m 27 0 l 27 139 l 131 164 l 131 822 l 27 848 l 27 987 l 490 987 q 726 925 623 987 q 888 754 829 863 q 946 501 946 644 l 946 486 q 888 233 946 342 q 726 62 829 123 q 490 0 623 0 l 27 0 m 369 180 l 477 180 q 648 264 590 180 q 707 486 707 348 l 707 502 q 648 723 707 639 q 477 806 590 806 l 369 806 l 369 180 z "},"Ð":{"ha":997,"x_min":16,"x_max":946,"o":"m 27 0 l 27 139 l 131 164 l 131 822 l 27 848 l 27 987 l 490 987 q 726 925 623 987 q 888 754 829 863 q 946 501 946 644 l 946 486 q 888 233 946 342 q 726 62 829 123 q 490 0 623 0 l 27 0 m 369 180 l 477 180 q 648 264 590 180 q 707 486 707 348 l 707 502 q 648 723 707 639 q 477 806 590 806 l 369 806 l 369 180 m 16 450 l 16 555 l 486 555 l 486 450 l 16 450 z "},"Ď":{"ha":997,"x_min":27,"x_max":946,"o":"m 27 0 l 27 139 l 131 164 l 131 822 l 27 848 l 27 987 l 490 987 q 726 925 623 987 q 888 754 829 863 q 946 501 946 644 l 946 486 q 888 233 946 342 q 726 62 829 123 q 490 0 623 0 l 27 0 m 369 180 l 477 180 q 648 264 590 180 q 707 486 707 348 l 707 502 q 648 723 707 639 q 477 806 590 806 l 369 806 l 369 180 z "},"Đ":{"ha":997,"x_min":16,"x_max":946,"o":"m 27 0 l 27 139 l 131 164 l 131 822 l 27 848 l 27 987 l 490 987 q 726 925 623 987 q 888 754 829 863 q 946 501 946 644 l 946 486 q 888 233 946 342 q 726 62 829 123 q 490 0 623 0 l 27 0 m 369 180 l 477 180 q 648 264 590 180 q 707 486 707 348 l 707 502 q 648 723 707 639 q 477 806 590 806 l 369 806 l 369 180 m 16 450 l 16 555 l 486 555 l 486 450 l 16 450 z "},"E":{"ha":888,"x_min":27,"x_max":827,"o":"m 27 0 l 27 139 l 130 161 l 130 826 l 27 848 l 27 987 l 816 987 l 816 703 l 636 703 l 631 804 l 368 804 l 368 602 l 683 602 l 683 419 l 368 419 l 368 184 l 644 184 l 649 290 l 827 290 l 827 0 l 27 0 z "},"É":{"ha":888,"x_min":27,"x_max":827,"o":"m 27 0 l 27 139 l 130 161 l 130 826 l 27 848 l 27 987 l 816 987 l 816 703 l 636 703 l 631 804 l 368 804 l 368 602 l 683 602 l 683 419 l 368 419 l 368 184 l 644 184 l 649 290 l 827 290 l 827 0 l 27 0 m 303 1059 l 444 1244 l 687 1244 l 688 1240 l 498 1059 l 303 1059 z "},"Ĕ":{"ha":888,"x_min":27,"x_max":827,"o":"m 27 0 l 27 139 l 130 161 l 130 826 l 27 848 l 27 987 l 816 987 l 816 703 l 636 703 l 631 804 l 368 804 l 368 602 l 683 602 l 683 419 l 368 419 l 368 184 l 644 184 l 649 290 l 827 290 l 827 0 l 27 0 m 445 1039 q 259 1095 328 1039 q 194 1240 189 1152 l 195 1244 l 350 1244 q 373 1187 350 1210 q 445 1164 395 1164 q 515 1186 493 1164 q 538 1244 538 1208 l 693 1244 l 694 1240 q 629 1095 698 1152 q 445 1039 561 1039 z "},"Ě":{"ha":888,"x_min":27,"x_max":827,"o":"m 27 0 l 27 139 l 130 161 l 130 826 l 27 848 l 27 987 l 816 987 l 816 703 l 636 703 l 631 804 l 368 804 l 368 602 l 683 602 l 683 419 l 368 419 l 368 184 l 644 184 l 649 290 l 827 290 l 827 0 l 27 0 m 713 1244 l 713 1226 l 536 1059 l 349 1059 l 176 1229 l 176 1244 l 359 1244 l 444 1147 l 533 1244 l 713 1244 z "},"Ê":{"ha":888,"x_min":27,"x_max":827,"o":"m 27 0 l 27 139 l 130 161 l 130 826 l 27 848 l 27 987 l 816 987 l 816 703 l 636 703 l 631 804 l 368 804 l 368 602 l 683 602 l 683 419 l 368 419 l 368 184 l 644 184 l 649 290 l 827 290 l 827 0 l 27 0 m 176 1059 l 176 1076 l 352 1244 l 539 1244 l 713 1074 l 713 1059 l 530 1059 l 445 1155 l 355 1059 l 176 1059 z "},"Ế":{"ha":888,"x_min":27,"x_max":855,"o":"m 27 0 l 27 139 l 130 161 l 130 826 l 27 848 l 27 987 l 816 987 l 816 703 l 636 703 l 631 804 l 368 804 l 368 602 l 683 602 l 683 419 l 368 419 l 368 184 l 644 184 l 649 290 l 827 290 l 827 0 l 27 0 m 590 1210 l 662 1361 l 854 1361 l 855 1357 l 717 1210 l 590 1210 m 175 1031 l 175 1049 l 351 1204 l 538 1204 l 712 1046 l 712 1031 l 528 1031 l 444 1116 l 356 1031 l 175 1031 z "},"Ệ":{"ha":888,"x_min":27,"x_max":827,"o":"m 27 0 l 27 139 l 130 161 l 130 826 l 27 848 l 27 987 l 816 987 l 816 703 l 636 703 l 631 804 l 368 804 l 368 602 l 683 602 l 683 419 l 368 419 l 368 184 l 644 184 l 649 290 l 827 290 l 827 0 l 27 0 m 176 1059 l 176 1076 l 352 1244 l 539 1244 l 713 1074 l 713 1059 l 530 1059 l 445 1155 l 355 1059 l 176 1059 m 321 -282 l 321 -97 l 566 -97 l 566 -282 l 321 -282 z "},"Ề":{"ha":888,"x_min":27,"x_max":827,"o":"m 27 0 l 27 139 l 130 161 l 130 826 l 27 848 l 27 987 l 816 987 l 816 703 l 636 703 l 631 804 l 368 804 l 368 602 l 683 602 l 683 419 l 368 419 l 368 184 l 644 184 l 649 290 l 827 290 l 827 0 l 27 0 m 298 1210 l 172 1210 l 33 1357 l 35 1361 l 227 1361 l 298 1210 m 713 1031 l 532 1031 l 444 1116 l 361 1031 l 176 1031 l 176 1046 l 350 1204 l 537 1204 l 713 1049 l 713 1031 z "},"Ể":{"ha":888,"x_min":27,"x_max":846,"o":"m 27 0 l 27 139 l 130 161 l 130 826 l 27 848 l 27 987 l 816 987 l 816 703 l 636 703 l 631 804 l 368 804 l 368 602 l 683 602 l 683 419 l 368 419 l 368 184 l 644 184 l 649 290 l 827 290 l 827 0 l 27 0 m 609 1171 l 593 1250 q 656 1259 637 1251 q 676 1283 676 1267 q 595 1318 676 1318 l 600 1404 q 783 1375 720 1404 q 846 1297 846 1347 q 820 1239 846 1259 q 753 1213 793 1218 l 753 1171 l 609 1171 m 175 1031 l 175 1049 l 351 1204 l 538 1204 l 712 1046 l 712 1031 l 528 1031 l 444 1116 l 356 1031 l 175 1031 z "},"Ễ":{"ha":888,"x_min":27,"x_max":827,"o":"m 27 0 l 27 139 l 130 161 l 130 826 l 27 848 l 27 987 l 816 987 l 816 703 l 636 703 l 631 804 l 368 804 l 368 602 l 683 602 l 683 419 l 368 419 l 368 184 l 644 184 l 649 290 l 827 290 l 827 0 l 27 0 m 298 1234 l 188 1265 q 210 1346 188 1309 q 267 1405 231 1383 q 342 1428 302 1428 q 407 1413 374 1428 q 470 1383 440 1398 q 523 1369 500 1369 q 565 1388 550 1369 q 579 1436 579 1408 l 689 1404 q 667 1322 689 1359 q 611 1263 646 1285 q 534 1241 576 1241 q 467 1256 500 1241 q 405 1286 434 1271 q 353 1301 376 1301 q 312 1281 326 1301 q 298 1234 298 1261 m 176 1031 l 176 1049 l 352 1204 l 539 1204 l 713 1046 l 713 1031 l 528 1031 l 445 1116 l 357 1031 l 176 1031 z "},"Ë":{"ha":888,"x_min":27,"x_max":827,"o":"m 27 0 l 27 139 l 130 161 l 130 826 l 27 848 l 27 987 l 816 987 l 816 703 l 636 703 l 631 804 l 368 804 l 368 602 l 683 602 l 683 419 l 368 419 l 368 184 l 644 184 l 649 290 l 827 290 l 827 0 l 27 0 m 492 1059 l 492 1244 l 714 1244 l 714 1059 l 492 1059 m 174 1059 l 174 1244 l 396 1244 l 396 1059 l 174 1059 z "},"Ė":{"ha":888,"x_min":27,"x_max":827,"o":"m 27 0 l 27 139 l 130 161 l 130 826 l 27 848 l 27 987 l 816 987 l 816 703 l 636 703 l 631 804 l 368 804 l 368 602 l 683 602 l 683 419 l 368 419 l 368 184 l 644 184 l 649 290 l 827 290 l 827 0 l 27 0 m 321 1059 l 321 1244 l 566 1244 l 566 1059 l 321 1059 z "},"Ẹ":{"ha":888,"x_min":27,"x_max":827,"o":"m 27 0 l 27 139 l 130 161 l 130 826 l 27 848 l 27 987 l 816 987 l 816 703 l 636 703 l 631 804 l 368 804 l 368 602 l 683 602 l 683 419 l 368 419 l 368 184 l 644 184 l 649 290 l 827 290 l 827 0 l 27 0 m 321 -282 l 321 -97 l 566 -97 l 566 -282 l 321 -282 z "},"È":{"ha":888,"x_min":27,"x_max":827,"o":"m 27 0 l 27 139 l 130 161 l 130 826 l 27 848 l 27 987 l 816 987 l 816 703 l 636 703 l 631 804 l 368 804 l 368 602 l 683 602 l 683 419 l 368 419 l 368 184 l 644 184 l 649 290 l 827 290 l 827 0 l 27 0 m 585 1059 l 390 1059 l 200 1240 l 201 1244 l 444 1244 l 585 1059 z "},"Ẻ":{"ha":888,"x_min":27,"x_max":827,"o":"m 27 0 l 27 139 l 130 161 l 130 826 l 27 848 l 27 987 l 816 987 l 816 703 l 636 703 l 631 804 l 368 804 l 368 602 l 683 602 l 683 419 l 368 419 l 368 184 l 644 184 l 649 290 l 827 290 l 827 0 l 27 0 m 336 1037 l 320 1122 q 390 1134 368 1124 q 411 1164 411 1144 q 388 1198 411 1188 q 322 1208 365 1208 l 327 1308 q 544 1273 469 1308 q 618 1174 618 1238 q 589 1108 618 1133 q 517 1078 559 1084 l 517 1037 l 336 1037 z "},"Ē":{"ha":888,"x_min":27,"x_max":827,"o":"m 27 0 l 27 139 l 130 161 l 130 826 l 27 848 l 27 987 l 816 987 l 816 703 l 636 703 l 631 804 l 368 804 l 368 602 l 683 602 l 683 419 l 368 419 l 368 184 l 644 184 l 649 290 l 827 290 l 827 0 l 27 0 m 194 1059 l 194 1192 l 694 1192 l 694 1059 l 194 1059 z "},"Ę":{"ha":888,"x_min":27,"x_max":866,"o":"m 27 0 l 27 139 l 130 161 l 130 826 l 27 848 l 27 987 l 816 987 l 816 703 l 636 703 l 631 804 l 368 804 l 368 602 l 683 602 l 683 419 l 368 419 l 368 184 l 644 184 l 649 290 l 827 290 l 827 0 l 27 0 m 749 -284 q 618 -244 669 -284 q 567 -132 567 -204 q 601 -36 567 -84 q 718 42 635 13 l 827 0 q 756 -52 776 -28 q 736 -102 736 -76 q 791 -148 736 -148 q 819 -146 806 -148 q 842 -141 831 -144 l 866 -258 q 816 -277 844 -269 q 749 -284 788 -284 z "},"Ẽ":{"ha":888,"x_min":27,"x_max":827,"o":"m 27 0 l 27 139 l 130 161 l 130 826 l 27 848 l 27 987 l 816 987 l 816 703 l 636 703 l 631 804 l 368 804 l 368 602 l 683 602 l 683 419 l 368 419 l 368 184 l 644 184 l 649 290 l 827 290 l 827 0 l 27 0 m 300 1047 l 178 1081 q 201 1169 178 1128 q 262 1234 224 1209 q 341 1258 299 1258 q 411 1242 376 1258 q 479 1210 447 1226 q 533 1194 511 1194 q 575 1215 561 1195 q 589 1266 589 1235 l 710 1232 q 687 1142 710 1183 q 627 1078 665 1102 q 547 1054 590 1054 q 474 1070 510 1054 q 408 1103 439 1086 q 355 1119 378 1119 q 313 1098 327 1119 q 300 1047 300 1076 z "},"F":{"ha":862,"x_min":27,"x_max":840,"o":"m 27 0 l 27 139 l 130 161 l 130 826 l 27 848 l 27 987 l 840 987 l 840 696 l 661 696 l 656 804 l 368 804 l 368 576 l 703 576 l 703 394 l 368 394 l 368 161 l 470 139 l 470 0 l 27 0 z "},"G":{"ha":943,"x_min":18,"x_max":894,"o":"m 495 -14 q 236 45 342 -14 q 74 211 130 105 q 18 457 18 317 l 18 502 q 73 762 18 649 q 233 938 128 874 q 485 1002 337 1002 q 688 971 586 1002 q 867 873 789 940 l 867 642 l 697 642 l 661 768 q 596 807 638 791 q 500 823 553 823 q 316 734 378 823 q 254 503 254 646 l 254 457 q 318 243 254 323 q 505 164 382 164 q 589 173 547 164 q 655 193 631 182 l 655 320 l 544 334 l 544 498 l 894 498 l 894 88 q 713 11 814 37 q 495 -14 612 -14 z "},"Ğ":{"ha":943,"x_min":18,"x_max":894,"o":"m 495 -14 q 236 45 342 -14 q 74 211 130 105 q 18 457 18 317 l 18 502 q 73 762 18 649 q 233 938 128 874 q 485 1002 337 1002 q 688 971 586 1002 q 867 873 789 940 l 867 642 l 697 642 l 661 768 q 596 807 638 791 q 500 823 553 823 q 316 734 378 823 q 254 503 254 646 l 254 457 q 318 243 254 323 q 505 164 382 164 q 589 173 547 164 q 655 193 631 182 l 655 320 l 544 334 l 544 498 l 894 498 l 894 88 q 713 11 814 37 q 495 -14 612 -14 m 472 1039 q 286 1095 355 1039 q 221 1240 216 1152 l 222 1244 l 377 1244 q 400 1187 377 1210 q 472 1164 422 1164 q 543 1186 520 1164 q 565 1244 565 1208 l 720 1244 l 722 1240 q 656 1095 725 1152 q 472 1039 588 1039 z "},"Ĝ":{"ha":943,"x_min":18,"x_max":894,"o":"m 495 -14 q 236 45 342 -14 q 74 211 130 105 q 18 457 18 317 l 18 502 q 73 762 18 649 q 233 938 128 874 q 485 1002 337 1002 q 688 971 586 1002 q 867 873 789 940 l 867 642 l 697 642 l 661 768 q 596 807 638 791 q 500 823 553 823 q 316 734 378 823 q 254 503 254 646 l 254 457 q 318 243 254 323 q 505 164 382 164 q 589 173 547 164 q 655 193 631 182 l 655 320 l 544 334 l 544 498 l 894 498 l 894 88 q 713 11 814 37 q 495 -14 612 -14 m 203 1059 l 203 1076 l 379 1244 l 566 1244 l 740 1074 l 740 1059 l 557 1059 l 472 1155 l 382 1059 l 203 1059 z "},"Ģ":{"ha":943,"x_min":18,"x_max":894,"o":"m 495 -14 q 236 45 342 -14 q 74 211 130 105 q 18 457 18 317 l 18 502 q 73 762 18 649 q 233 938 128 874 q 485 1002 337 1002 q 688 971 586 1002 q 867 873 789 940 l 867 642 l 697 642 l 661 768 q 596 807 638 791 q 500 823 553 823 q 316 734 378 823 q 254 503 254 646 l 254 457 q 318 243 254 323 q 505 164 382 164 q 589 173 547 164 q 655 193 631 182 l 655 320 l 544 334 l 544 498 l 894 498 l 894 88 q 713 11 814 37 q 495 -14 612 -14 m 449 -359 l 337 -292 q 368 -226 357 -259 q 379 -140 379 -193 l 379 -75 l 574 -75 l 574 -127 q 536 -256 574 -193 q 449 -359 498 -319 z "},"Ġ":{"ha":943,"x_min":18,"x_max":894,"o":"m 495 -14 q 236 45 342 -14 q 74 211 130 105 q 18 457 18 317 l 18 502 q 73 762 18 649 q 233 938 128 874 q 485 1002 337 1002 q 688 971 586 1002 q 867 873 789 940 l 867 642 l 697 642 l 661 768 q 596 807 638 791 q 500 823 553 823 q 316 734 378 823 q 254 503 254 646 l 254 457 q 318 243 254 323 q 505 164 382 164 q 589 173 547 164 q 655 193 631 182 l 655 320 l 544 334 l 544 498 l 894 498 l 894 88 q 713 11 814 37 q 495 -14 612 -14 m 349 1059 l 349 1244 l 593 1244 l 593 1059 l 349 1059 z "},"H":{"ha":1094,"x_min":27,"x_max":1067,"o":"m 27 0 l 27 139 l 130 161 l 130 826 l 27 848 l 27 987 l 470 987 l 470 848 l 368 826 l 368 576 l 727 576 l 727 826 l 625 848 l 625 987 l 1067 987 l 1067 848 l 964 826 l 964 161 l 1067 139 l 1067 0 l 625 0 l 625 139 l 727 161 l 727 394 l 368 394 l 368 161 l 470 139 l 470 0 l 27 0 z "},"Ħ":{"ha":1094,"x_min":27,"x_max":1067,"o":"m 27 0 l 27 139 l 130 161 l 130 826 l 27 848 l 27 987 l 470 987 l 470 848 l 368 826 l 368 576 l 727 576 l 727 826 l 625 848 l 625 987 l 1067 987 l 1067 848 l 964 826 l 964 161 l 1067 139 l 1067 0 l 625 0 l 625 139 l 727 161 l 727 394 l 368 394 l 368 161 l 470 139 l 470 0 l 27 0 m 27 652 l 27 757 l 1067 757 l 1067 652 l 27 652 z "},"Ĥ":{"ha":1094,"x_min":27,"x_max":1067,"o":"m 27 0 l 27 139 l 130 161 l 130 826 l 27 848 l 27 987 l 470 987 l 470 848 l 368 826 l 368 576 l 727 576 l 727 826 l 625 848 l 625 987 l 1067 987 l 1067 848 l 964 826 l 964 161 l 1067 139 l 1067 0 l 625 0 l 625 139 l 727 161 l 727 394 l 368 394 l 368 161 l 470 139 l 470 0 l 27 0 m 279 1059 l 279 1076 l 455 1244 l 642 1244 l 816 1074 l 816 1059 l 633 1059 l 548 1155 l 458 1059 l 279 1059 z "},"I":{"ha":496,"x_min":27,"x_max":469,"o":"m 27 0 l 27 139 l 130 161 l 130 826 l 27 848 l 27 987 l 469 987 l 469 848 l 367 826 l 367 161 l 469 139 l 469 0 l 27 0 z "},"Ĳ":{"ha":1317,"x_min":27,"x_max":1334,"o":"m 27 0 l 27 139 l 130 161 l 130 826 l 27 848 l 27 987 l 469 987 l 469 848 l 367 826 l 367 161 l 469 139 l 469 0 l 27 0 m 901 -14 q 626 69 728 -14 q 518 328 524 152 l 519 332 l 741 332 q 783 203 748 236 q 871 170 818 170 q 955 201 916 170 q 994 307 994 233 l 994 826 l 860 848 l 860 987 l 1334 987 l 1334 848 l 1231 826 l 1231 307 q 1145 72 1231 157 q 901 -14 1059 -14 z "},"Í":{"ha":496,"x_min":27,"x_max":493,"o":"m 27 0 l 27 139 l 130 161 l 130 826 l 27 848 l 27 987 l 469 987 l 469 848 l 367 826 l 367 161 l 469 139 l 469 0 l 27 0 m 108 1059 l 249 1244 l 492 1244 l 493 1240 l 303 1059 l 108 1059 z "},"Ĭ":{"ha":496,"x_min":-6,"x_max":503,"o":"m 27 0 l 27 139 l 130 161 l 130 826 l 27 848 l 27 987 l 469 987 l 469 848 l 367 826 l 367 161 l 469 139 l 469 0 l 27 0 m 250 1039 q 63 1095 133 1039 q -1 1240 -6 1152 l 0 1244 l 155 1244 q 177 1187 155 1210 q 250 1164 200 1164 q 320 1186 298 1164 q 342 1244 342 1208 l 498 1244 l 499 1240 q 434 1095 503 1152 q 250 1039 366 1039 z "},"Î":{"ha":496,"x_min":-20,"x_max":517,"o":"m 27 0 l 27 139 l 130 161 l 130 826 l 27 848 l 27 987 l 469 987 l 469 848 l 367 826 l 367 161 l 469 139 l 469 0 l 27 0 m -20 1059 l -20 1076 l 157 1244 l 344 1244 l 517 1074 l 517 1059 l 334 1059 l 250 1155 l 160 1059 l -20 1059 z "},"Ï":{"ha":496,"x_min":-21,"x_max":519,"o":"m 27 0 l 27 139 l 130 161 l 130 826 l 27 848 l 27 987 l 469 987 l 469 848 l 367 826 l 367 161 l 469 139 l 469 0 l 27 0 m 297 1059 l 297 1244 l 519 1244 l 519 1059 l 297 1059 m -21 1059 l -21 1244 l 201 1244 l 201 1059 l -21 1059 z "},"İ":{"ha":496,"x_min":27,"x_max":469,"o":"m 27 0 l 27 139 l 130 161 l 130 826 l 27 848 l 27 987 l 469 987 l 469 848 l 367 826 l 367 161 l 469 139 l 469 0 l 27 0 m 126 1059 l 126 1244 l 371 1244 l 371 1059 l 126 1059 z "},"Ị":{"ha":496,"x_min":27,"x_max":469,"o":"m 27 0 l 27 139 l 130 161 l 130 826 l 27 848 l 27 987 l 469 987 l 469 848 l 367 826 l 367 161 l 469 139 l 469 0 l 27 0 m 126 -282 l 126 -97 l 371 -97 l 371 -282 l 126 -282 z "},"Ì":{"ha":496,"x_min":5,"x_max":469,"o":"m 27 0 l 27 139 l 130 161 l 130 826 l 27 848 l 27 987 l 469 987 l 469 848 l 367 826 l 367 161 l 469 139 l 469 0 l 27 0 m 390 1059 l 195 1059 l 5 1240 l 6 1244 l 249 1244 l 390 1059 z "},"Ỉ":{"ha":496,"x_min":27,"x_max":469,"o":"m 27 0 l 27 139 l 130 161 l 130 826 l 27 848 l 27 987 l 469 987 l 469 848 l 367 826 l 367 161 l 469 139 l 469 0 l 27 0 m 141 1037 l 125 1122 q 194 1134 173 1124 q 216 1164 216 1144 q 193 1198 216 1188 q 127 1208 170 1208 l 132 1308 q 348 1273 273 1308 q 423 1174 423 1238 q 394 1108 423 1133 q 322 1078 364 1084 l 321 1037 l 141 1037 z "},"Ī":{"ha":496,"x_min":-1,"x_max":498,"o":"m 27 0 l 27 139 l 130 161 l 130 826 l 27 848 l 27 987 l 469 987 l 469 848 l 367 826 l 367 161 l 469 139 l 469 0 l 27 0 m -1 1059 l -1 1192 l 498 1192 l 498 1059 l -1 1059 z "},"Į":{"ha":496,"x_min":27,"x_max":509,"o":"m 27 0 l 27 139 l 130 161 l 130 826 l 27 848 l 27 987 l 469 987 l 469 848 l 367 826 l 367 161 l 469 139 l 469 0 l 27 0 m 392 -284 q 261 -244 312 -284 q 210 -132 210 -204 q 243 -36 210 -84 q 361 42 277 13 l 469 0 q 399 -52 418 -28 q 379 -102 379 -76 q 434 -148 379 -148 q 461 -146 449 -148 q 484 -141 474 -144 l 509 -258 q 458 -277 486 -269 q 392 -284 431 -284 z "},"Ĩ":{"ha":496,"x_min":-17,"x_max":515,"o":"m 27 0 l 27 139 l 130 161 l 130 826 l 27 848 l 27 987 l 469 987 l 469 848 l 367 826 l 367 161 l 469 139 l 469 0 l 27 0 m 104 1047 l -17 1081 q 6 1169 -17 1128 q 66 1234 29 1209 q 146 1258 104 1258 q 216 1242 180 1258 q 283 1210 252 1226 q 338 1194 315 1194 q 380 1215 366 1195 q 394 1266 394 1235 l 515 1232 q 492 1142 515 1183 q 432 1078 469 1102 q 351 1054 395 1054 q 279 1070 315 1054 q 213 1103 243 1086 q 159 1119 182 1119 q 118 1098 132 1119 q 104 1047 104 1076 z "},"J":{"ha":829,"x_min":13,"x_max":829,"o":"m 396 -14 q 121 69 222 -14 q 13 328 19 152 l 14 332 l 236 332 q 278 203 243 236 q 366 170 313 170 q 450 201 411 170 q 489 307 489 233 l 489 826 l 355 848 l 355 987 l 829 987 l 829 848 l 726 826 l 726 307 q 640 72 726 157 q 396 -14 554 -14 z "},"Ĵ":{"ha":829,"x_min":13,"x_max":871,"o":"m 396 -14 q 121 69 222 -14 q 13 328 19 152 l 14 332 l 236 332 q 278 203 243 236 q 366 170 313 170 q 450 201 411 170 q 489 307 489 233 l 489 826 l 355 848 l 355 987 l 829 987 l 829 848 l 726 826 l 726 307 q 640 72 726 157 q 396 -14 554 -14 m 334 1059 l 334 1076 l 511 1244 l 698 1244 l 871 1074 l 871 1059 l 688 1059 l 604 1155 l 514 1059 l 334 1059 z "},"K":{"ha":1067,"x_min":27,"x_max":1063,"o":"m 27 0 l 27 139 l 130 161 l 130 826 l 27 848 l 27 987 l 461 987 l 461 848 l 368 826 l 368 534 l 677 839 l 677 840 l 566 848 l 566 987 l 1027 987 l 1027 848 l 934 828 l 659 560 l 962 156 l 1063 139 l 1063 0 l 587 0 l 587 139 l 686 146 l 687 146 l 499 404 l 368 275 l 368 161 l 461 139 l 461 0 l 27 0 z "},"Ķ":{"ha":1067,"x_min":27,"x_max":1063,"o":"m 27 0 l 27 139 l 130 161 l 130 826 l 27 848 l 27 987 l 461 987 l 461 848 l 368 826 l 368 534 l 677 839 l 677 840 l 566 848 l 566 987 l 1027 987 l 1027 848 l 934 828 l 659 560 l 962 156 l 1063 139 l 1063 0 l 587 0 l 587 139 l 686 146 l 687 146 l 499 404 l 368 275 l 368 161 l 461 139 l 461 0 l 27 0 m 509 -359 l 397 -292 q 429 -226 418 -259 q 439 -140 439 -193 l 439 -75 l 634 -75 l 634 -127 q 596 -256 634 -193 q 509 -359 559 -319 z "},"L":{"ha":810,"x_min":27,"x_max":789,"o":"m 27 0 l 27 139 l 130 161 l 130 826 l 27 848 l 27 987 l 492 987 l 492 848 l 368 826 l 368 182 l 602 182 l 608 320 l 789 320 l 789 0 l 27 0 z "},"Ĺ":{"ha":810,"x_min":27,"x_max":789,"o":"m 27 0 l 27 139 l 130 161 l 130 826 l 27 848 l 27 987 l 492 987 l 492 848 l 368 826 l 368 182 l 602 182 l 608 320 l 789 320 l 789 0 l 27 0 m 119 1059 l 260 1244 l 503 1244 l 504 1240 l 314 1059 l 119 1059 z "},"Ľ":{"ha":810,"x_min":27,"x_max":812,"o":"m 27 0 l 27 139 l 130 161 l 130 826 l 27 848 l 27 987 l 492 987 l 492 848 l 368 826 l 368 182 l 602 182 l 608 320 l 789 320 l 789 0 l 27 0 m 688 703 l 576 770 q 607 836 596 803 q 618 922 618 869 l 618 987 l 812 987 l 812 935 q 775 806 812 869 q 688 703 737 743 z "},"Ļ":{"ha":810,"x_min":27,"x_max":789,"o":"m 27 0 l 27 139 l 130 161 l 130 826 l 27 848 l 27 987 l 492 987 l 492 848 l 368 826 l 368 182 l 602 182 l 608 320 l 789 320 l 789 0 l 27 0 m 382 -359 l 271 -292 q 302 -226 291 -259 q 313 -140 313 -193 l 313 -75 l 507 -75 l 507 -127 q 470 -256 507 -193 q 382 -359 432 -319 z "},"Ŀ":{"ha":810,"x_min":27,"x_max":789,"o":"m 27 0 l 27 139 l 130 161 l 130 826 l 27 848 l 27 987 l 492 987 l 492 848 l 368 826 l 368 182 l 602 182 l 608 320 l 789 320 l 789 0 l 27 0 z "},"Ł":{"ha":810,"x_min":27,"x_max":789,"o":"m 27 0 l 27 139 l 130 161 l 130 826 l 27 848 l 27 987 l 492 987 l 492 848 l 368 826 l 368 182 l 602 182 l 608 320 l 789 320 l 789 0 l 27 0 m 48 385 l 48 530 l 515 656 l 515 512 l 48 385 z "},"M":{"ha":1436,"x_min":22,"x_max":1423,"o":"m 22 0 l 22 139 l 123 161 l 123 826 l 22 848 l 22 987 l 488 987 l 726 337 l 730 337 l 962 987 l 1423 987 l 1423 848 l 1320 826 l 1320 161 l 1423 139 l 1423 0 l 981 0 l 981 139 l 1087 161 l 1087 290 l 1093 754 l 1088 755 l 809 0 l 622 0 l 338 746 l 334 745 l 350 322 l 350 161 l 465 139 l 465 0 l 22 0 z "},"Ḿ":{"ha":1436,"x_min":22,"x_max":1423,"o":"m 22 0 l 22 139 l 123 161 l 123 826 l 22 848 l 22 987 l 488 987 l 726 337 l 730 337 l 962 987 l 1423 987 l 1423 848 l 1320 826 l 1320 161 l 1423 139 l 1423 0 l 981 0 l 981 139 l 1087 161 l 1087 290 l 1093 754 l 1088 755 l 809 0 l 622 0 l 338 746 l 334 745 l 350 322 l 350 161 l 465 139 l 465 0 l 22 0 m 577 1059 l 718 1244 l 961 1244 l 962 1240 l 772 1059 l 577 1059 z "},"N":{"ha":1093,"x_min":26,"x_max":1084,"o":"m 26 0 l 26 139 l 128 161 l 128 826 l 26 848 l 26 987 l 370 987 l 766 355 l 770 355 l 770 826 l 641 848 l 641 987 l 1084 987 l 1084 848 l 981 826 l 981 0 l 747 0 l 343 618 l 339 618 l 339 161 l 469 139 l 469 0 l 26 0 z "},"Ń":{"ha":1093,"x_min":26,"x_max":1084,"o":"m 26 0 l 26 139 l 128 161 l 128 826 l 26 848 l 26 987 l 370 987 l 766 355 l 770 355 l 770 826 l 641 848 l 641 987 l 1084 987 l 1084 848 l 981 826 l 981 0 l 747 0 l 343 618 l 339 618 l 339 161 l 469 139 l 469 0 l 26 0 m 406 1059 l 547 1244 l 789 1244 l 791 1240 l 601 1059 l 406 1059 z "},"Ň":{"ha":1093,"x_min":26,"x_max":1084,"o":"m 26 0 l 26 139 l 128 161 l 128 826 l 26 848 l 26 987 l 370 987 l 766 355 l 770 355 l 770 826 l 641 848 l 641 987 l 1084 987 l 1084 848 l 981 826 l 981 0 l 747 0 l 343 618 l 339 618 l 339 161 l 469 139 l 469 0 l 26 0 m 815 1244 l 815 1226 l 639 1059 l 452 1059 l 278 1229 l 278 1244 l 461 1244 l 546 1147 l 635 1244 l 815 1244 z "},"Ņ":{"ha":1093,"x_min":26,"x_max":1084,"o":"m 26 0 l 26 139 l 128 161 l 128 826 l 26 848 l 26 987 l 370 987 l 766 355 l 770 355 l 770 826 l 641 848 l 641 987 l 1084 987 l 1084 848 l 981 826 l 981 0 l 747 0 l 343 618 l 339 618 l 339 161 l 469 139 l 469 0 l 26 0 m 524 -359 l 412 -292 q 444 -226 433 -259 q 454 -140 454 -193 l 454 -75 l 649 -75 l 649 -127 q 611 -256 649 -193 q 524 -359 574 -319 z "},"Ŋ":{"ha":1085,"x_min":45,"x_max":1080,"o":"m 696 -296 q 639 -294 665 -296 q 585 -286 614 -292 l 595 -106 q 626 -112 614 -110 q 657 -115 638 -115 q 741 -7 741 -115 l 741 0 l 390 611 l 386 611 l 386 161 l 488 139 l 488 0 l 45 0 l 45 139 l 148 161 l 148 826 l 45 848 l 45 987 l 386 987 l 736 377 l 741 378 l 741 826 l 639 848 l 639 987 l 1080 987 l 1080 848 l 979 826 l 979 -7 q 904 -221 979 -145 q 696 -296 829 -296 z "},"Ñ":{"ha":1093,"x_min":26,"x_max":1084,"o":"m 26 0 l 26 139 l 128 161 l 128 826 l 26 848 l 26 987 l 370 987 l 766 355 l 770 355 l 770 826 l 641 848 l 641 987 l 1084 987 l 1084 848 l 981 826 l 981 0 l 747 0 l 343 618 l 339 618 l 339 161 l 469 139 l 469 0 l 26 0 m 402 1047 l 281 1081 q 304 1169 281 1128 q 364 1234 327 1209 q 444 1258 401 1258 q 514 1242 478 1258 q 581 1210 549 1226 q 635 1194 613 1194 q 677 1215 663 1195 q 692 1266 692 1235 l 812 1232 q 790 1142 812 1183 q 730 1078 767 1102 q 649 1054 692 1054 q 577 1070 612 1054 q 511 1103 541 1086 q 457 1119 480 1119 q 416 1098 429 1119 q 402 1047 402 1076 z "},"O":{"ha":1021,"x_min":42,"x_max":983,"o":"m 511 -14 q 322 23 408 -14 q 174 129 237 61 q 76 288 111 197 q 42 486 42 379 l 42 502 q 76 699 42 608 q 173 858 111 790 q 321 964 236 926 q 509 1002 407 1002 q 696 964 610 1002 q 847 858 782 926 q 947 699 911 790 q 983 502 983 608 l 983 486 q 947 288 983 379 q 847 129 911 197 q 696 23 783 61 q 511 -14 610 -14 m 511 166 q 685 254 623 166 q 747 486 747 342 l 747 503 q 684 733 747 645 q 509 821 622 821 q 335 734 391 821 q 280 503 280 647 l 280 486 q 336 254 280 341 q 511 166 393 166 z "},"Ó":{"ha":1021,"x_min":42,"x_max":983,"o":"m 511 -14 q 322 23 408 -14 q 174 129 237 61 q 76 288 111 197 q 42 486 42 379 l 42 502 q 76 699 42 608 q 173 858 111 790 q 321 964 236 926 q 509 1002 407 1002 q 696 964 610 1002 q 847 858 782 926 q 947 699 911 790 q 983 502 983 608 l 983 486 q 947 288 983 379 q 847 129 911 197 q 696 23 783 61 q 511 -14 610 -14 m 511 166 q 685 254 623 166 q 747 486 747 342 l 747 503 q 684 733 747 645 q 509 821 622 821 q 335 734 391 821 q 280 503 280 647 l 280 486 q 336 254 280 341 q 511 166 393 166 m 370 1059 l 511 1244 l 753 1244 l 755 1240 l 565 1059 l 370 1059 z "},"Ŏ":{"ha":1021,"x_min":42,"x_max":983,"o":"m 511 -14 q 322 23 408 -14 q 174 129 237 61 q 76 288 111 197 q 42 486 42 379 l 42 502 q 76 699 42 608 q 173 858 111 790 q 321 964 236 926 q 509 1002 407 1002 q 696 964 610 1002 q 847 858 782 926 q 947 699 911 790 q 983 502 983 608 l 983 486 q 947 288 983 379 q 847 129 911 197 q 696 23 783 61 q 511 -14 610 -14 m 511 166 q 685 254 623 166 q 747 486 747 342 l 747 503 q 684 733 747 645 q 509 821 622 821 q 335 734 391 821 q 280 503 280 647 l 280 486 q 336 254 280 341 q 511 166 393 166 m 511 1039 q 325 1095 395 1039 q 260 1240 256 1152 l 262 1244 l 416 1244 q 439 1187 416 1210 q 511 1164 462 1164 q 582 1186 559 1164 q 604 1244 604 1208 l 760 1244 l 761 1240 q 696 1095 764 1152 q 511 1039 627 1039 z "},"Ô":{"ha":1021,"x_min":42,"x_max":983,"o":"m 511 -14 q 322 23 408 -14 q 174 129 237 61 q 76 288 111 197 q 42 486 42 379 l 42 502 q 76 699 42 608 q 173 858 111 790 q 321 964 236 926 q 509 1002 407 1002 q 696 964 610 1002 q 847 858 782 926 q 947 699 911 790 q 983 502 983 608 l 983 486 q 947 288 983 379 q 847 129 911 197 q 696 23 783 61 q 511 -14 610 -14 m 511 166 q 685 254 623 166 q 747 486 747 342 l 747 503 q 684 733 747 645 q 509 821 622 821 q 335 734 391 821 q 280 503 280 647 l 280 486 q 336 254 280 341 q 511 166 393 166 m 242 1059 l 242 1076 l 418 1244 l 606 1244 l 779 1074 l 779 1059 l 596 1059 l 511 1155 l 422 1059 l 242 1059 z "},"Ố":{"ha":1021,"x_min":42,"x_max":983,"o":"m 511 -14 q 322 23 408 -14 q 174 129 237 61 q 76 288 111 197 q 42 486 42 379 l 42 502 q 76 699 42 608 q 173 858 111 790 q 321 964 236 926 q 509 1002 407 1002 q 696 964 610 1002 q 847 858 782 926 q 947 699 911 790 q 983 502 983 608 l 983 486 q 947 288 983 379 q 847 129 911 197 q 696 23 783 61 q 511 -14 610 -14 m 511 166 q 685 254 623 166 q 747 486 747 342 l 747 503 q 684 733 747 645 q 509 821 622 821 q 335 734 391 821 q 280 503 280 647 l 280 486 q 336 254 280 341 q 511 166 393 166 m 656 1210 l 728 1361 l 920 1361 l 922 1357 l 783 1210 l 656 1210 m 241 1031 l 241 1049 l 418 1204 l 605 1204 l 779 1046 l 779 1031 l 594 1031 l 511 1116 l 422 1031 l 241 1031 z "},"Ộ":{"ha":1021,"x_min":42,"x_max":983,"o":"m 511 -14 q 322 23 408 -14 q 174 129 237 61 q 76 288 111 197 q 42 486 42 379 l 42 502 q 76 699 42 608 q 173 858 111 790 q 321 964 236 926 q 509 1002 407 1002 q 696 964 610 1002 q 847 858 782 926 q 947 699 911 790 q 983 502 983 608 l 983 486 q 947 288 983 379 q 847 129 911 197 q 696 23 783 61 q 511 -14 610 -14 m 511 166 q 685 254 623 166 q 747 486 747 342 l 747 503 q 684 733 747 645 q 509 821 622 821 q 335 734 391 821 q 280 503 280 647 l 280 486 q 336 254 280 341 q 511 166 393 166 m 242 1059 l 242 1076 l 418 1244 l 606 1244 l 779 1074 l 779 1059 l 596 1059 l 511 1155 l 422 1059 l 242 1059 m 388 -282 l 388 -97 l 633 -97 l 633 -282 l 388 -282 z "},"Ồ":{"ha":1021,"x_min":42,"x_max":983,"o":"m 511 -14 q 322 23 408 -14 q 174 129 237 61 q 76 288 111 197 q 42 486 42 379 l 42 502 q 76 699 42 608 q 173 858 111 790 q 321 964 236 926 q 509 1002 407 1002 q 696 964 610 1002 q 847 858 782 926 q 947 699 911 790 q 983 502 983 608 l 983 486 q 947 288 983 379 q 847 129 911 197 q 696 23 783 61 q 511 -14 610 -14 m 511 166 q 685 254 623 166 q 747 486 747 342 l 747 503 q 684 733 747 645 q 509 821 622 821 q 335 734 391 821 q 280 503 280 647 l 280 486 q 336 254 280 341 q 511 166 393 166 m 365 1210 l 238 1210 l 100 1357 l 101 1361 l 293 1361 l 365 1210 m 780 1031 l 599 1031 l 511 1116 l 427 1031 l 243 1031 l 243 1046 l 416 1204 l 604 1204 l 780 1049 l 780 1031 z "},"Ổ":{"ha":1021,"x_min":42,"x_max":983,"o":"m 511 -14 q 322 23 408 -14 q 174 129 237 61 q 76 288 111 197 q 42 486 42 379 l 42 502 q 76 699 42 608 q 173 858 111 790 q 321 964 236 926 q 509 1002 407 1002 q 696 964 610 1002 q 847 858 782 926 q 947 699 911 790 q 983 502 983 608 l 983 486 q 947 288 983 379 q 847 129 911 197 q 696 23 783 61 q 511 -14 610 -14 m 511 166 q 685 254 623 166 q 747 486 747 342 l 747 503 q 684 733 747 645 q 509 821 622 821 q 335 734 391 821 q 280 503 280 647 l 280 486 q 336 254 280 341 q 511 166 393 166 m 675 1171 l 659 1250 q 723 1259 703 1251 q 743 1283 743 1267 q 661 1318 743 1318 l 666 1404 q 849 1375 786 1404 q 913 1297 913 1347 q 886 1239 913 1259 q 820 1213 860 1218 l 819 1171 l 675 1171 m 241 1031 l 241 1049 l 418 1204 l 605 1204 l 779 1046 l 779 1031 l 594 1031 l 511 1116 l 422 1031 l 241 1031 z "},"Ỗ":{"ha":1021,"x_min":42,"x_max":983,"o":"m 511 -14 q 322 23 408 -14 q 174 129 237 61 q 76 288 111 197 q 42 486 42 379 l 42 502 q 76 699 42 608 q 173 858 111 790 q 321 964 236 926 q 509 1002 407 1002 q 696 964 610 1002 q 847 858 782 926 q 947 699 911 790 q 983 502 983 608 l 983 486 q 947 288 983 379 q 847 129 911 197 q 696 23 783 61 q 511 -14 610 -14 m 511 166 q 685 254 623 166 q 747 486 747 342 l 747 503 q 684 733 747 645 q 509 821 622 821 q 335 734 391 821 q 280 503 280 647 l 280 486 q 336 254 280 341 q 511 166 393 166 m 365 1234 l 254 1265 q 276 1346 254 1309 q 333 1405 298 1383 q 408 1428 368 1428 q 473 1413 440 1428 q 537 1383 507 1398 q 589 1369 567 1369 q 631 1388 616 1369 q 646 1436 646 1408 l 755 1404 q 734 1322 755 1359 q 677 1263 712 1285 q 601 1241 642 1241 q 533 1256 566 1241 q 472 1286 500 1271 q 420 1301 443 1301 q 379 1281 393 1301 q 365 1234 365 1261 m 242 1031 l 242 1049 l 418 1204 l 606 1204 l 779 1046 l 779 1031 l 595 1031 l 511 1116 l 423 1031 l 242 1031 z "},"Ö":{"ha":1021,"x_min":42,"x_max":983,"o":"m 511 -14 q 322 23 408 -14 q 174 129 237 61 q 76 288 111 197 q 42 486 42 379 l 42 502 q 76 699 42 608 q 173 858 111 790 q 321 964 236 926 q 509 1002 407 1002 q 696 964 610 1002 q 847 858 782 926 q 947 699 911 790 q 983 502 983 608 l 983 486 q 947 288 983 379 q 847 129 911 197 q 696 23 783 61 q 511 -14 610 -14 m 511 166 q 685 254 623 166 q 747 486 747 342 l 747 503 q 684 733 747 645 q 509 821 622 821 q 335 734 391 821 q 280 503 280 647 l 280 486 q 336 254 280 341 q 511 166 393 166 m 559 1059 l 559 1244 l 781 1244 l 781 1059 l 559 1059 m 241 1059 l 241 1244 l 463 1244 l 463 1059 l 241 1059 z "},"Ọ":{"ha":1021,"x_min":42,"x_max":983,"o":"m 511 -14 q 322 23 408 -14 q 174 129 237 61 q 76 288 111 197 q 42 486 42 379 l 42 502 q 76 699 42 608 q 173 858 111 790 q 321 964 236 926 q 509 1002 407 1002 q 696 964 610 1002 q 847 858 782 926 q 947 699 911 790 q 983 502 983 608 l 983 486 q 947 288 983 379 q 847 129 911 197 q 696 23 783 61 q 511 -14 610 -14 m 511 166 q 685 254 623 166 q 747 486 747 342 l 747 503 q 684 733 747 645 q 509 821 622 821 q 335 734 391 821 q 280 503 280 647 l 280 486 q 336 254 280 341 q 511 166 393 166 m 388 -282 l 388 -97 l 633 -97 l 633 -282 l 388 -282 z "},"Ò":{"ha":1021,"x_min":42,"x_max":983,"o":"m 511 -14 q 322 23 408 -14 q 174 129 237 61 q 76 288 111 197 q 42 486 42 379 l 42 502 q 76 699 42 608 q 173 858 111 790 q 321 964 236 926 q 509 1002 407 1002 q 696 964 610 1002 q 847 858 782 926 q 947 699 911 790 q 983 502 983 608 l 983 486 q 947 288 983 379 q 847 129 911 197 q 696 23 783 61 q 511 -14 610 -14 m 511 166 q 685 254 623 166 q 747 486 747 342 l 747 503 q 684 733 747 645 q 509 821 622 821 q 335 734 391 821 q 280 503 280 647 l 280 486 q 336 254 280 341 q 511 166 393 166 m 652 1059 l 456 1059 l 267 1240 l 268 1244 l 511 1244 l 652 1059 z "},"Ỏ":{"ha":1021,"x_min":42,"x_max":983,"o":"m 511 -14 q 322 23 408 -14 q 174 129 237 61 q 76 288 111 197 q 42 486 42 379 l 42 502 q 76 699 42 608 q 173 858 111 790 q 321 964 236 926 q 509 1002 407 1002 q 696 964 610 1002 q 847 858 782 926 q 947 699 911 790 q 983 502 983 608 l 983 486 q 947 288 983 379 q 847 129 911 197 q 696 23 783 61 q 511 -14 610 -14 m 511 166 q 685 254 623 166 q 747 486 747 342 l 747 503 q 684 733 747 645 q 509 821 622 821 q 335 734 391 821 q 280 503 280 647 l 280 486 q 336 254 280 341 q 511 166 393 166 m 403 1037 l 387 1122 q 456 1134 435 1124 q 477 1164 477 1144 q 454 1198 477 1188 q 389 1208 431 1208 l 393 1308 q 610 1273 535 1308 q 685 1174 685 1238 q 655 1108 685 1133 q 584 1078 626 1084 l 583 1037 l 403 1037 z "},"Ơ":{"ha":1021,"x_min":42,"x_max":1027,"o":"m 511 -14 q 322 23 408 -14 q 174 129 237 61 q 76 288 111 197 q 42 486 42 379 l 42 502 q 76 699 42 608 q 173 858 111 790 q 321 964 236 926 q 509 1002 407 1002 q 696 964 610 1002 q 847 858 782 926 q 947 699 911 790 q 983 502 983 608 l 983 486 q 947 288 983 379 q 847 129 911 197 q 696 23 783 61 q 511 -14 610 -14 m 511 166 q 685 254 623 166 q 747 486 747 342 l 747 503 q 684 733 747 645 q 509 821 622 821 q 335 734 391 821 q 280 503 280 647 l 280 486 q 336 254 280 341 q 511 166 393 166 m 757 764 l 757 882 q 828 922 810 882 q 846 1055 846 961 l 1027 1055 q 958 837 1027 910 q 757 764 888 764 z "},"Ớ":{"ha":1021,"x_min":42,"x_max":1027,"o":"m 511 -14 q 322 23 408 -14 q 174 129 237 61 q 76 288 111 197 q 42 486 42 379 l 42 502 q 76 699 42 608 q 173 858 111 790 q 321 964 236 926 q 509 1002 407 1002 q 696 964 610 1002 q 847 858 782 926 q 947 699 911 790 q 983 502 983 608 l 983 486 q 947 288 983 379 q 847 129 911 197 q 696 23 783 61 q 511 -14 610 -14 m 511 166 q 685 254 623 166 q 747 486 747 342 l 747 503 q 684 733 747 645 q 509 821 622 821 q 335 734 391 821 q 280 503 280 647 l 280 486 q 336 254 280 341 q 511 166 393 166 m 757 764 l 757 882 q 828 922 810 882 q 846 1055 846 961 l 1027 1055 q 958 837 1027 910 q 757 764 888 764 m 370 1059 l 511 1244 l 753 1244 l 755 1240 l 565 1059 l 370 1059 z "},"Ợ":{"ha":1021,"x_min":42,"x_max":1027,"o":"m 511 -14 q 322 23 408 -14 q 174 129 237 61 q 76 288 111 197 q 42 486 42 379 l 42 502 q 76 699 42 608 q 173 858 111 790 q 321 964 236 926 q 509 1002 407 1002 q 696 964 610 1002 q 847 858 782 926 q 947 699 911 790 q 983 502 983 608 l 983 486 q 947 288 983 379 q 847 129 911 197 q 696 23 783 61 q 511 -14 610 -14 m 511 166 q 685 254 623 166 q 747 486 747 342 l 747 503 q 684 733 747 645 q 509 821 622 821 q 335 734 391 821 q 280 503 280 647 l 280 486 q 336 254 280 341 q 511 166 393 166 m 757 764 l 757 882 q 828 922 810 882 q 846 1055 846 961 l 1027 1055 q 958 837 1027 910 q 757 764 888 764 m 388 -282 l 388 -97 l 633 -97 l 633 -282 l 388 -282 z "},"Ờ":{"ha":1021,"x_min":42,"x_max":1027,"o":"m 511 -14 q 322 23 408 -14 q 174 129 237 61 q 76 288 111 197 q 42 486 42 379 l 42 502 q 76 699 42 608 q 173 858 111 790 q 321 964 236 926 q 509 1002 407 1002 q 696 964 610 1002 q 847 858 782 926 q 947 699 911 790 q 983 502 983 608 l 983 486 q 947 288 983 379 q 847 129 911 197 q 696 23 783 61 q 511 -14 610 -14 m 511 166 q 685 254 623 166 q 747 486 747 342 l 747 503 q 684 733 747 645 q 509 821 622 821 q 335 734 391 821 q 280 503 280 647 l 280 486 q 336 254 280 341 q 511 166 393 166 m 757 764 l 757 882 q 828 922 810 882 q 846 1055 846 961 l 1027 1055 q 958 837 1027 910 q 757 764 888 764 m 652 1059 l 456 1059 l 267 1240 l 268 1244 l 511 1244 l 652 1059 z "},"Ở":{"ha":1021,"x_min":42,"x_max":1027,"o":"m 511 -14 q 322 23 408 -14 q 174 129 237 61 q 76 288 111 197 q 42 486 42 379 l 42 502 q 76 699 42 608 q 173 858 111 790 q 321 964 236 926 q 509 1002 407 1002 q 696 964 610 1002 q 847 858 782 926 q 947 699 911 790 q 983 502 983 608 l 983 486 q 947 288 983 379 q 847 129 911 197 q 696 23 783 61 q 511 -14 610 -14 m 511 166 q 685 254 623 166 q 747 486 747 342 l 747 503 q 684 733 747 645 q 509 821 622 821 q 335 734 391 821 q 280 503 280 647 l 280 486 q 336 254 280 341 q 511 166 393 166 m 757 764 l 757 882 q 828 922 810 882 q 846 1055 846 961 l 1027 1055 q 958 837 1027 910 q 757 764 888 764 m 403 1037 l 387 1122 q 456 1134 435 1124 q 477 1164 477 1144 q 454 1198 477 1188 q 389 1208 431 1208 l 393 1308 q 610 1273 535 1308 q 685 1174 685 1238 q 655 1108 685 1133 q 584 1078 626 1084 l 583 1037 l 403 1037 z "},"Ỡ":{"ha":1021,"x_min":42,"x_max":1027,"o":"m 511 -14 q 322 23 408 -14 q 174 129 237 61 q 76 288 111 197 q 42 486 42 379 l 42 502 q 76 699 42 608 q 173 858 111 790 q 321 964 236 926 q 509 1002 407 1002 q 696 964 610 1002 q 847 858 782 926 q 947 699 911 790 q 983 502 983 608 l 983 486 q 947 288 983 379 q 847 129 911 197 q 696 23 783 61 q 511 -14 610 -14 m 511 166 q 685 254 623 166 q 747 486 747 342 l 747 503 q 684 733 747 645 q 509 821 622 821 q 335 734 391 821 q 280 503 280 647 l 280 486 q 336 254 280 341 q 511 166 393 166 m 757 764 l 757 882 q 828 922 810 882 q 846 1055 846 961 l 1027 1055 q 958 837 1027 910 q 757 764 888 764 m 366 1047 l 245 1081 q 268 1169 245 1128 q 328 1234 291 1209 q 408 1258 366 1258 q 478 1242 442 1258 q 545 1210 513 1226 q 600 1194 577 1194 q 642 1215 627 1195 q 656 1266 656 1235 l 777 1232 q 754 1142 777 1183 q 694 1078 731 1102 q 613 1054 656 1054 q 541 1070 576 1054 q 475 1103 505 1086 q 421 1119 444 1119 q 380 1098 393 1119 q 366 1047 366 1076 z "},"Ő":{"ha":1021,"x_min":42,"x_max":983,"o":"m 511 -14 q 322 23 408 -14 q 174 129 237 61 q 76 288 111 197 q 42 486 42 379 l 42 502 q 76 699 42 608 q 173 858 111 790 q 321 964 236 926 q 509 1002 407 1002 q 696 964 610 1002 q 847 858 782 926 q 947 699 911 790 q 983 502 983 608 l 983 486 q 947 288 983 379 q 847 129 911 197 q 696 23 783 61 q 511 -14 610 -14 m 511 166 q 685 254 623 166 q 747 486 747 342 l 747 503 q 684 733 747 645 q 509 821 622 821 q 335 734 391 821 q 280 503 280 647 l 280 486 q 336 254 280 341 q 511 166 393 166 m 503 1059 l 501 1062 l 663 1244 l 871 1244 l 872 1240 l 676 1059 l 503 1059 m 576 1240 l 413 1059 l 236 1059 l 378 1244 l 574 1244 l 576 1240 z "},"Ō":{"ha":1021,"x_min":42,"x_max":983,"o":"m 511 -14 q 322 23 408 -14 q 174 129 237 61 q 76 288 111 197 q 42 486 42 379 l 42 502 q 76 699 42 608 q 173 858 111 790 q 321 964 236 926 q 509 1002 407 1002 q 696 964 610 1002 q 847 858 782 926 q 947 699 911 790 q 983 502 983 608 l 983 486 q 947 288 983 379 q 847 129 911 197 q 696 23 783 61 q 511 -14 610 -14 m 511 166 q 685 254 623 166 q 747 486 747 342 l 747 503 q 684 733 747 645 q 509 821 622 821 q 335 734 391 821 q 280 503 280 647 l 280 486 q 336 254 280 341 q 511 166 393 166 m 260 1059 l 260 1192 l 760 1192 l 760 1059 l 260 1059 z "},"Ø":{"ha":1021,"x_min":42,"x_max":983,"o":"m 511 -14 q 322 23 408 -14 q 174 129 237 61 q 76 288 111 197 q 42 486 42 379 l 42 502 q 76 699 42 608 q 173 858 111 790 q 321 964 236 926 q 509 1002 407 1002 q 696 964 610 1002 q 847 858 782 926 q 947 699 911 790 q 983 502 983 608 l 983 486 q 947 288 983 379 q 847 129 911 197 q 696 23 783 61 q 511 -14 610 -14 m 511 166 q 685 254 623 166 q 747 486 747 342 l 747 503 q 684 733 747 645 q 509 821 622 821 q 335 734 391 821 q 280 503 280 647 l 280 486 q 336 254 280 341 q 511 166 393 166 m 128 -54 l 759 1041 l 892 1041 l 262 -54 l 128 -54 z "},"Ǿ":{"ha":1021,"x_min":42,"x_max":983,"o":"m 511 -14 q 322 23 408 -14 q 174 129 237 61 q 76 288 111 197 q 42 486 42 379 l 42 502 q 76 699 42 608 q 173 858 111 790 q 321 964 236 926 q 509 1002 407 1002 q 696 964 610 1002 q 847 858 782 926 q 947 699 911 790 q 983 502 983 608 l 983 486 q 947 288 983 379 q 847 129 911 197 q 696 23 783 61 q 511 -14 610 -14 m 511 166 q 685 254 623 166 q 747 486 747 342 l 747 503 q 684 733 747 645 q 509 821 622 821 q 335 734 391 821 q 280 503 280 647 l 280 486 q 336 254 280 341 q 511 166 393 166 m 128 -54 l 759 1041 l 892 1041 l 262 -54 l 128 -54 m 370 1059 l 511 1244 l 753 1244 l 755 1240 l 565 1059 l 370 1059 z "},"Õ":{"ha":1021,"x_min":42,"x_max":983,"o":"m 511 -14 q 322 23 408 -14 q 174 129 237 61 q 76 288 111 197 q 42 486 42 379 l 42 502 q 76 699 42 608 q 173 858 111 790 q 321 964 236 926 q 509 1002 407 1002 q 696 964 610 1002 q 847 858 782 926 q 947 699 911 790 q 983 502 983 608 l 983 486 q 947 288 983 379 q 847 129 911 197 q 696 23 783 61 q 511 -14 610 -14 m 511 166 q 685 254 623 166 q 747 486 747 342 l 747 503 q 684 733 747 645 q 509 821 622 821 q 335 734 391 821 q 280 503 280 647 l 280 486 q 336 254 280 341 q 511 166 393 166 m 366 1047 l 245 1081 q 268 1169 245 1128 q 328 1234 291 1209 q 408 1258 366 1258 q 478 1242 442 1258 q 545 1210 513 1226 q 600 1194 577 1194 q 642 1215 627 1195 q 656 1266 656 1235 l 777 1232 q 754 1142 777 1183 q 694 1078 731 1102 q 613 1054 656 1054 q 541 1070 576 1054 q 475 1103 505 1086 q 421 1119 444 1119 q 380 1098 393 1119 q 366 1047 366 1076 z "},"Œ":{"ha":1394,"x_min":42,"x_max":1333,"o":"m 524 -14 q 329 23 418 -14 q 176 129 241 61 q 77 288 112 197 q 42 486 42 379 l 42 502 q 77 699 42 608 q 176 858 112 790 q 328 964 240 926 q 523 1002 416 1002 q 669 987 597 1002 l 1333 987 l 1333 696 l 1158 696 l 1150 806 l 879 806 l 879 602 l 1186 602 l 1186 419 l 879 419 l 879 181 l 1149 181 l 1157 290 l 1330 290 l 1330 0 l 669 0 q 524 -14 598 -14 m 280 486 q 339 254 280 341 q 524 166 397 166 q 641 184 583 166 l 641 800 q 523 821 583 821 q 338 734 395 821 q 280 503 280 647 l 280 486 z "},"P":{"ha":910,"x_min":27,"x_max":893,"o":"m 27 0 l 27 139 l 130 161 l 130 826 l 27 848 l 27 987 l 507 987 q 712 946 625 987 q 846 831 799 905 q 893 660 893 758 q 846 489 893 562 q 712 375 799 416 q 507 334 625 334 l 368 334 l 368 161 l 470 139 l 470 0 l 27 0 m 368 517 l 507 517 q 617 556 580 517 q 655 659 655 596 q 617 764 655 723 q 507 806 580 806 l 368 806 l 368 517 z "},"Þ":{"ha":882,"x_min":44,"x_max":875,"o":"m 44 0 l 44 139 l 147 161 l 147 826 l 44 848 l 44 987 l 488 987 l 488 848 l 385 826 l 385 786 l 500 786 q 777 707 678 786 q 875 500 875 628 q 777 292 875 371 q 500 212 678 212 l 385 212 l 385 161 l 488 139 l 488 0 l 44 0 m 385 388 l 500 388 q 603 419 569 388 q 637 498 637 450 q 603 578 637 547 q 500 610 569 610 l 385 610 l 385 388 z "},"Q":{"ha":1013,"x_min":44,"x_max":1012,"o":"m 901 -205 l 597 -9 q 554 -13 575 -11 q 513 -14 533 -14 q 324 23 410 -14 q 175 129 238 61 q 78 287 113 196 q 44 486 44 378 l 44 502 q 78 700 44 608 q 175 859 113 791 q 324 964 238 926 q 512 1002 410 1002 q 699 964 612 1002 q 849 859 785 926 q 950 700 914 791 q 986 502 986 608 l 986 486 q 930 255 986 361 q 794 81 875 149 l 1012 -45 l 901 -205 m 513 166 q 689 254 628 166 q 749 486 749 342 l 749 503 q 687 733 749 645 q 512 821 625 821 q 337 734 392 821 q 282 503 282 647 l 282 486 q 339 254 282 341 q 513 166 396 166 z "},"R":{"ha":964,"x_min":27,"x_max":940,"o":"m 27 0 l 27 139 l 130 161 l 130 826 l 27 848 l 27 988 l 513 988 q 716 951 630 988 q 849 845 802 913 q 896 682 896 776 q 855 530 896 601 q 743 414 814 460 l 846 162 l 940 138 l 940 0 l 652 0 l 530 356 l 368 358 l 368 161 l 470 139 l 470 0 l 27 0 m 368 541 l 515 541 q 622 573 585 541 q 659 666 659 605 q 621 767 659 729 q 513 806 583 806 l 368 806 l 368 541 z "},"Ŕ":{"ha":964,"x_min":27,"x_max":940,"o":"m 27 0 l 27 139 l 130 161 l 130 826 l 27 848 l 27 988 l 513 988 q 716 951 630 988 q 849 845 802 913 q 896 682 896 776 q 855 530 896 601 q 743 414 814 460 l 846 162 l 940 138 l 940 0 l 652 0 l 530 356 l 368 358 l 368 161 l 470 139 l 470 0 l 27 0 m 368 541 l 515 541 q 622 573 585 541 q 659 666 659 605 q 621 767 659 729 q 513 806 583 806 l 368 806 l 368 541 m 336 1059 l 477 1244 l 720 1244 l 722 1240 l 532 1059 l 336 1059 z "},"Ř":{"ha":964,"x_min":27,"x_max":940,"o":"m 27 0 l 27 139 l 130 161 l 130 826 l 27 848 l 27 988 l 513 988 q 716 951 630 988 q 849 845 802 913 q 896 682 896 776 q 855 530 896 601 q 743 414 814 460 l 846 162 l 940 138 l 940 0 l 652 0 l 530 356 l 368 358 l 368 161 l 470 139 l 470 0 l 27 0 m 368 541 l 515 541 q 622 573 585 541 q 659 666 659 605 q 621 767 659 729 q 513 806 583 806 l 368 806 l 368 541 m 746 1244 l 746 1226 l 570 1059 l 382 1059 l 209 1229 l 209 1244 l 392 1244 l 477 1147 l 566 1244 l 746 1244 z "},"Ŗ":{"ha":964,"x_min":27,"x_max":940,"o":"m 27 0 l 27 139 l 130 161 l 130 826 l 27 848 l 27 988 l 513 988 q 716 951 630 988 q 849 845 802 913 q 896 682 896 776 q 855 530 896 601 q 743 414 814 460 l 846 162 l 940 138 l 940 0 l 652 0 l 530 356 l 368 358 l 368 161 l 470 139 l 470 0 l 27 0 m 368 541 l 515 541 q 622 573 585 541 q 659 666 659 605 q 621 767 659 729 q 513 806 583 806 l 368 806 l 368 541 m 460 -359 l 348 -292 q 379 -226 368 -259 q 390 -140 390 -193 l 390 -75 l 585 -75 l 585 -127 q 547 -256 585 -193 q 460 -359 509 -319 z "},"S":{"ha":863,"x_min":58,"x_max":836,"o":"m 459 -14 q 245 9 338 -14 q 58 96 151 32 l 58 352 l 242 352 l 262 220 q 339 179 284 196 q 459 163 394 163 q 597 259 597 163 q 563 334 597 303 q 445 397 529 365 q 237 480 318 438 q 116 580 155 522 q 76 723 76 637 q 123 866 76 805 q 252 963 170 928 q 439 1000 334 998 q 653 976 560 1003 q 817 895 746 949 l 817 657 l 641 657 l 613 789 q 547 810 590 801 q 456 820 505 820 q 354 795 395 820 q 313 722 313 771 q 329 675 313 696 q 384 634 345 654 q 494 586 423 613 q 749 462 662 536 q 836 260 836 388 q 789 112 836 173 q 656 18 741 50 q 459 -14 572 -14 z "},"Ś":{"ha":863,"x_min":58,"x_max":836,"o":"m 459 -14 q 245 9 338 -14 q 58 96 151 32 l 58 352 l 242 352 l 262 220 q 339 179 284 196 q 459 163 394 163 q 597 259 597 163 q 563 334 597 303 q 445 397 529 365 q 237 480 318 438 q 116 580 155 522 q 76 723 76 637 q 123 866 76 805 q 252 963 170 928 q 439 1000 334 998 q 653 976 560 1003 q 817 895 746 949 l 817 657 l 641 657 l 613 789 q 547 810 590 801 q 456 820 505 820 q 354 795 395 820 q 313 722 313 771 q 329 675 313 696 q 384 634 345 654 q 494 586 423 613 q 749 462 662 536 q 836 260 836 388 q 789 112 836 173 q 656 18 741 50 q 459 -14 572 -14 m 290 1059 l 431 1244 l 674 1244 l 675 1240 l 486 1059 l 290 1059 z "},"Š":{"ha":863,"x_min":58,"x_max":836,"o":"m 459 -14 q 245 9 338 -14 q 58 96 151 32 l 58 352 l 242 352 l 262 220 q 339 179 284 196 q 459 163 394 163 q 597 259 597 163 q 563 334 597 303 q 445 397 529 365 q 237 480 318 438 q 116 580 155 522 q 76 723 76 637 q 123 866 76 805 q 252 963 170 928 q 439 1000 334 998 q 653 976 560 1003 q 817 895 746 949 l 817 657 l 641 657 l 613 789 q 547 810 590 801 q 456 820 505 820 q 354 795 395 820 q 313 722 313 771 q 329 675 313 696 q 384 634 345 654 q 494 586 423 613 q 749 462 662 536 q 836 260 836 388 q 789 112 836 173 q 656 18 741 50 q 459 -14 572 -14 m 700 1244 l 700 1226 l 524 1059 l 336 1059 l 163 1229 l 163 1244 l 346 1244 l 431 1147 l 520 1244 l 700 1244 z "},"Ş":{"ha":863,"x_min":58,"x_max":836,"o":"m 459 -14 q 245 9 338 -14 q 58 96 151 32 l 58 352 l 242 352 l 262 220 q 339 179 284 196 q 459 163 394 163 q 597 259 597 163 q 563 334 597 303 q 445 397 529 365 q 237 480 318 438 q 116 580 155 522 q 76 723 76 637 q 123 866 76 805 q 252 963 170 928 q 439 1000 334 998 q 653 976 560 1003 q 817 895 746 949 l 817 657 l 641 657 l 613 789 q 547 810 590 801 q 456 820 505 820 q 354 795 395 820 q 313 722 313 771 q 329 675 313 696 q 384 634 345 654 q 494 586 423 613 q 749 462 662 536 q 836 260 836 388 q 789 112 836 173 q 656 18 741 50 q 459 -14 572 -14 m 341 -321 l 336 -192 q 393 -180 372 -192 q 413 -144 413 -169 q 390 -106 413 -117 q 320 -94 366 -96 l 340 7 l 518 7 l 511 -37 q 589 -71 557 -44 q 620 -150 620 -98 q 547 -275 620 -228 q 341 -321 474 -321 z "},"Ŝ":{"ha":863,"x_min":58,"x_max":836,"o":"m 459 -14 q 245 9 338 -14 q 58 96 151 32 l 58 352 l 242 352 l 262 220 q 339 179 284 196 q 459 163 394 163 q 597 259 597 163 q 563 334 597 303 q 445 397 529 365 q 237 480 318 438 q 116 580 155 522 q 76 723 76 637 q 123 866 76 805 q 252 963 170 928 q 439 1000 334 998 q 653 976 560 1003 q 817 895 746 949 l 817 657 l 641 657 l 613 789 q 547 810 590 801 q 456 820 505 820 q 354 795 395 820 q 313 722 313 771 q 329 675 313 696 q 384 634 345 654 q 494 586 423 613 q 749 462 662 536 q 836 260 836 388 q 789 112 836 173 q 656 18 741 50 q 459 -14 572 -14 m 163 1059 l 163 1076 l 339 1244 l 526 1244 l 700 1074 l 700 1059 l 517 1059 l 432 1155 l 342 1059 l 163 1059 z "},"Ș":{"ha":863,"x_min":58,"x_max":836,"o":"m 459 -14 q 245 9 338 -14 q 58 96 151 32 l 58 352 l 242 352 l 262 220 q 339 179 284 196 q 459 163 394 163 q 597 259 597 163 q 563 334 597 303 q 445 397 529 365 q 237 480 318 438 q 116 580 155 522 q 76 723 76 637 q 123 866 76 805 q 252 963 170 928 q 439 1000 334 998 q 653 976 560 1003 q 817 895 746 949 l 817 657 l 641 657 l 613 789 q 547 810 590 801 q 456 820 505 820 q 354 795 395 820 q 313 722 313 771 q 329 675 313 696 q 384 634 345 654 q 494 586 423 613 q 749 462 662 536 q 836 260 836 388 q 789 112 836 173 q 656 18 741 50 q 459 -14 572 -14 m 409 -359 l 297 -292 q 328 -226 317 -259 q 339 -140 339 -193 l 339 -75 l 534 -75 l 534 -127 q 496 -256 534 -193 q 409 -359 458 -319 z "},"ẞ":{"ha":1023,"x_min":27,"x_max":1018,"o":"m 27 0 l 27 139 l 129 161 l 129 826 l 27 848 l 27 987 l 967 987 l 967 806 l 774 594 q 910 534 856 578 q 991 427 964 490 q 1018 290 1018 363 q 971 126 1018 195 q 841 22 924 58 q 648 -14 758 -14 q 530 -1 583 -14 l 584 180 q 646 168 610 168 q 744 203 707 168 q 781 310 781 238 q 629 458 781 458 l 525 458 l 525 593 l 713 806 l 367 806 l 367 161 l 469 139 l 469 0 l 27 0 z "},"Ə":{"ha":949,"x_min":43,"x_max":907,"o":"m 474 -14 q 155 111 267 -14 q 43 454 43 236 l 43 573 l 661 573 l 665 576 q 642 690 667 640 q 560 771 616 741 q 413 801 504 801 q 261 789 330 801 q 140 764 192 778 l 107 953 q 226 985 146 968 q 413 1002 306 1002 q 684 945 574 1002 q 851 787 794 889 q 907 547 907 685 l 907 437 q 850 202 907 304 q 695 43 793 100 q 474 -14 597 -15 m 474 186 q 607 241 559 186 q 662 384 655 296 l 660 388 l 281 388 l 281 368 q 328 236 281 286 q 474 186 374 186 z "},"T":{"ha":935,"x_min":9,"x_max":927,"o":"m 245 0 l 245 139 l 348 161 l 348 803 l 195 803 l 189 696 l 9 696 l 9 987 l 927 987 l 927 696 l 745 696 l 740 803 l 586 803 l 586 161 l 689 139 l 689 0 l 245 0 z "},"Ŧ":{"ha":935,"x_min":9,"x_max":927,"o":"m 245 0 l 245 139 l 348 161 l 348 803 l 195 803 l 189 696 l 9 696 l 9 987 l 927 987 l 927 696 l 745 696 l 740 803 l 586 803 l 586 161 l 689 139 l 689 0 l 245 0 m 233 443 l 233 548 l 703 548 l 703 443 l 233 443 z "},"Ť":{"ha":935,"x_min":9,"x_max":927,"o":"m 245 0 l 245 139 l 348 161 l 348 803 l 195 803 l 189 696 l 9 696 l 9 987 l 927 987 l 927 696 l 745 696 l 740 803 l 586 803 l 586 161 l 689 139 l 689 0 l 245 0 m 736 1244 l 736 1226 l 560 1059 l 373 1059 l 199 1229 l 199 1244 l 382 1244 l 467 1147 l 557 1244 l 736 1244 z "},"Ţ":{"ha":935,"x_min":9,"x_max":927,"o":"m 245 0 l 245 139 l 348 161 l 348 803 l 195 803 l 189 696 l 9 696 l 9 987 l 927 987 l 927 696 l 745 696 l 740 803 l 586 803 l 586 161 l 689 139 l 689 0 l 245 0 m 378 -321 l 373 -192 q 429 -180 409 -192 q 450 -144 450 -169 q 426 -106 450 -117 q 357 -94 403 -96 l 377 7 l 555 7 l 548 -37 q 625 -71 594 -44 q 656 -150 656 -98 q 584 -275 656 -228 q 378 -321 511 -321 z "},"Ț":{"ha":935,"x_min":9,"x_max":927,"o":"m 245 0 l 245 139 l 348 161 l 348 803 l 195 803 l 189 696 l 9 696 l 9 987 l 927 987 l 927 696 l 745 696 l 740 803 l 586 803 l 586 161 l 689 139 l 689 0 l 245 0 m 446 -359 l 334 -292 q 365 -226 354 -259 q 376 -140 376 -193 l 376 -75 l 570 -75 l 570 -127 q 533 -256 570 -193 q 446 -359 495 -319 z "},"U":{"ha":1068,"x_min":14,"x_max":1056,"o":"m 535 -14 q 313 27 408 -14 q 167 147 218 68 q 115 341 115 227 l 115 826 l 14 848 l 14 987 l 456 987 l 456 848 l 353 826 l 353 341 q 400 209 353 252 q 534 165 447 165 q 715 341 715 165 l 715 826 l 614 848 l 614 987 l 1056 987 l 1056 848 l 954 826 l 954 341 q 901 149 954 229 q 754 27 848 69 q 535 -14 660 -14 z "},"Ú":{"ha":1068,"x_min":14,"x_max":1056,"o":"m 535 -14 q 313 27 408 -14 q 167 147 218 68 q 115 341 115 227 l 115 826 l 14 848 l 14 987 l 456 987 l 456 848 l 353 826 l 353 341 q 400 209 353 252 q 534 165 447 165 q 715 341 715 165 l 715 826 l 614 848 l 614 987 l 1056 987 l 1056 848 l 954 826 l 954 341 q 901 149 954 229 q 754 27 848 69 q 535 -14 660 -14 m 393 1059 l 534 1244 l 777 1244 l 779 1240 l 589 1059 l 393 1059 z "},"Ŭ":{"ha":1068,"x_min":14,"x_max":1056,"o":"m 535 -14 q 313 27 408 -14 q 167 147 218 68 q 115 341 115 227 l 115 826 l 14 848 l 14 987 l 456 987 l 456 848 l 353 826 l 353 341 q 400 209 353 252 q 534 165 447 165 q 715 341 715 165 l 715 826 l 614 848 l 614 987 l 1056 987 l 1056 848 l 954 826 l 954 341 q 901 149 954 229 q 754 27 848 69 q 535 -14 660 -14 m 535 1039 q 349 1095 418 1039 q 284 1240 279 1152 l 286 1244 l 440 1244 q 463 1187 440 1210 q 535 1164 486 1164 q 606 1186 583 1164 q 628 1244 628 1208 l 783 1244 l 785 1240 q 720 1095 788 1152 q 535 1039 651 1039 z "},"Û":{"ha":1068,"x_min":14,"x_max":1056,"o":"m 535 -14 q 313 27 408 -14 q 167 147 218 68 q 115 341 115 227 l 115 826 l 14 848 l 14 987 l 456 987 l 456 848 l 353 826 l 353 341 q 400 209 353 252 q 534 165 447 165 q 715 341 715 165 l 715 826 l 614 848 l 614 987 l 1056 987 l 1056 848 l 954 826 l 954 341 q 901 149 954 229 q 754 27 848 69 q 535 -14 660 -14 m 266 1059 l 266 1076 l 442 1244 l 629 1244 l 803 1074 l 803 1059 l 620 1059 l 535 1155 l 446 1059 l 266 1059 z "},"Ü":{"ha":1068,"x_min":14,"x_max":1056,"o":"m 535 -14 q 313 27 408 -14 q 167 147 218 68 q 115 341 115 227 l 115 826 l 14 848 l 14 987 l 456 987 l 456 848 l 353 826 l 353 341 q 400 209 353 252 q 534 165 447 165 q 715 341 715 165 l 715 826 l 614 848 l 614 987 l 1056 987 l 1056 848 l 954 826 l 954 341 q 901 149 954 229 q 754 27 848 69 q 535 -14 660 -14 m 583 1059 l 583 1244 l 804 1244 l 804 1059 l 583 1059 m 264 1059 l 264 1244 l 486 1244 l 486 1059 l 264 1059 z "},"Ụ":{"ha":1068,"x_min":14,"x_max":1056,"o":"m 535 -14 q 313 27 408 -14 q 167 147 218 68 q 115 341 115 227 l 115 826 l 14 848 l 14 987 l 456 987 l 456 848 l 353 826 l 353 341 q 400 209 353 252 q 534 165 447 165 q 715 341 715 165 l 715 826 l 614 848 l 614 987 l 1056 987 l 1056 848 l 954 826 l 954 341 q 901 149 954 229 q 754 27 848 69 q 535 -14 660 -14 m 412 -282 l 412 -97 l 656 -97 l 656 -282 l 412 -282 z "},"Ù":{"ha":1068,"x_min":14,"x_max":1056,"o":"m 535 -14 q 313 27 408 -14 q 167 147 218 68 q 115 341 115 227 l 115 826 l 14 848 l 14 987 l 456 987 l 456 848 l 353 826 l 353 341 q 400 209 353 252 q 534 165 447 165 q 715 341 715 165 l 715 826 l 614 848 l 614 987 l 1056 987 l 1056 848 l 954 826 l 954 341 q 901 149 954 229 q 754 27 848 69 q 535 -14 660 -14 m 675 1059 l 480 1059 l 290 1240 l 292 1244 l 534 1244 l 675 1059 z "},"Ủ":{"ha":1068,"x_min":14,"x_max":1056,"o":"m 535 -14 q 313 27 408 -14 q 167 147 218 68 q 115 341 115 227 l 115 826 l 14 848 l 14 987 l 456 987 l 456 848 l 353 826 l 353 341 q 400 209 353 252 q 534 165 447 165 q 715 341 715 165 l 715 826 l 614 848 l 614 987 l 1056 987 l 1056 848 l 954 826 l 954 341 q 901 149 954 229 q 754 27 848 69 q 535 -14 660 -14 m 427 1037 l 410 1122 q 480 1134 458 1124 q 501 1164 501 1144 q 478 1198 501 1188 q 412 1208 455 1208 l 417 1308 q 634 1273 559 1308 q 709 1174 709 1238 q 679 1108 709 1133 q 608 1078 650 1084 l 607 1037 l 427 1037 z "},"Ư":{"ha":1224,"x_min":14,"x_max":1214,"o":"m 528 -14 q 312 27 405 -14 q 167 149 218 69 q 115 341 115 229 l 115 826 l 14 848 l 14 987 l 456 987 l 456 848 l 354 826 l 354 341 q 399 210 354 252 q 528 167 444 167 q 655 209 611 167 q 699 341 699 251 l 699 826 l 597 848 l 597 987 l 938 987 l 938 799 q 1013 844 998 800 q 1027 988 1027 887 l 1212 988 l 1212 985 q 1154 745 1214 826 q 938 659 1095 665 l 938 341 q 886 149 938 229 q 743 27 835 69 q 528 -14 650 -14 z "},"Ứ":{"ha":1224,"x_min":14,"x_max":1214,"o":"m 528 -14 q 312 27 405 -14 q 167 149 218 69 q 115 341 115 229 l 115 826 l 14 848 l 14 987 l 456 987 l 456 848 l 354 826 l 354 341 q 399 210 354 252 q 528 167 444 167 q 655 209 611 167 q 699 341 699 251 l 699 826 l 597 848 l 597 987 l 938 987 l 938 799 q 1013 844 998 800 q 1027 988 1027 887 l 1212 988 l 1212 985 q 1154 745 1214 826 q 938 659 1095 665 l 938 341 q 886 149 938 229 q 743 27 835 69 q 528 -14 650 -14 m 381 1059 l 522 1244 l 765 1244 l 766 1240 l 576 1059 l 381 1059 z "},"Ự":{"ha":1224,"x_min":14,"x_max":1214,"o":"m 528 -14 q 312 27 405 -14 q 167 149 218 69 q 115 341 115 229 l 115 826 l 14 848 l 14 987 l 456 987 l 456 848 l 354 826 l 354 341 q 399 210 354 252 q 528 167 444 167 q 655 209 611 167 q 699 341 699 251 l 699 826 l 597 848 l 597 987 l 938 987 l 938 799 q 1013 844 998 800 q 1027 988 1027 887 l 1212 988 l 1212 985 q 1154 745 1214 826 q 938 659 1095 665 l 938 341 q 886 149 938 229 q 743 27 835 69 q 528 -14 650 -14 m 406 -282 l 406 -97 l 650 -97 l 650 -282 l 406 -282 z "},"Ừ":{"ha":1224,"x_min":14,"x_max":1214,"o":"m 528 -14 q 312 27 405 -14 q 167 149 218 69 q 115 341 115 229 l 115 826 l 14 848 l 14 987 l 456 987 l 456 848 l 354 826 l 354 341 q 399 210 354 252 q 528 167 444 167 q 655 209 611 167 q 699 341 699 251 l 699 826 l 597 848 l 597 987 l 938 987 l 938 799 q 1013 844 998 800 q 1027 988 1027 887 l 1212 988 l 1212 985 q 1154 745 1214 826 q 938 659 1095 665 l 938 341 q 886 149 938 229 q 743 27 835 69 q 528 -14 650 -14 m 663 1059 l 468 1059 l 278 1240 l 279 1244 l 522 1244 l 663 1059 z "},"Ử":{"ha":1224,"x_min":14,"x_max":1214,"o":"m 528 -14 q 312 27 405 -14 q 167 149 218 69 q 115 341 115 229 l 115 826 l 14 848 l 14 987 l 456 987 l 456 848 l 354 826 l 354 341 q 399 210 354 252 q 528 167 444 167 q 655 209 611 167 q 699 341 699 251 l 699 826 l 597 848 l 597 987 l 938 987 l 938 799 q 1013 844 998 800 q 1027 988 1027 887 l 1212 988 l 1212 985 q 1154 745 1214 826 q 938 659 1095 665 l 938 341 q 886 149 938 229 q 743 27 835 69 q 528 -14 650 -14 m 414 1037 l 398 1122 q 468 1134 446 1124 q 489 1164 489 1144 q 466 1198 489 1188 q 400 1208 443 1208 l 405 1308 q 622 1273 547 1308 q 696 1174 696 1238 q 667 1108 696 1133 q 595 1078 637 1084 l 595 1037 l 414 1037 z "},"Ữ":{"ha":1224,"x_min":14,"x_max":1214,"o":"m 528 -14 q 312 27 405 -14 q 167 149 218 69 q 115 341 115 229 l 115 826 l 14 848 l 14 987 l 456 987 l 456 848 l 354 826 l 354 341 q 399 210 354 252 q 528 167 444 167 q 655 209 611 167 q 699 341 699 251 l 699 826 l 597 848 l 597 987 l 938 987 l 938 799 q 1013 844 998 800 q 1027 988 1027 887 l 1212 988 l 1212 985 q 1154 745 1214 826 q 938 659 1095 665 l 938 341 q 886 149 938 229 q 743 27 835 69 q 528 -14 650 -14 m 378 1047 l 256 1081 q 279 1169 256 1128 q 340 1234 302 1209 q 419 1258 377 1258 q 489 1242 454 1258 q 557 1210 525 1226 q 611 1194 589 1194 q 653 1215 639 1195 q 667 1266 667 1235 l 788 1232 q 765 1142 788 1183 q 705 1078 743 1102 q 625 1054 668 1054 q 552 1070 588 1054 q 486 1103 517 1086 q 433 1119 456 1119 q 391 1098 405 1119 q 378 1047 378 1076 z "},"Ű":{"ha":1068,"x_min":14,"x_max":1056,"o":"m 535 -14 q 313 27 408 -14 q 167 147 218 68 q 115 341 115 227 l 115 826 l 14 848 l 14 987 l 456 987 l 456 848 l 353 826 l 353 341 q 400 209 353 252 q 534 165 447 165 q 715 341 715 165 l 715 826 l 614 848 l 614 987 l 1056 987 l 1056 848 l 954 826 l 954 341 q 901 149 954 229 q 754 27 848 69 q 535 -14 660 -14 m 526 1059 l 525 1062 l 687 1244 l 895 1244 l 896 1240 l 700 1059 l 526 1059 m 600 1240 l 437 1059 l 260 1059 l 401 1244 l 598 1244 l 600 1240 z "},"Ū":{"ha":1068,"x_min":14,"x_max":1056,"o":"m 535 -14 q 313 27 408 -14 q 167 147 218 68 q 115 341 115 227 l 115 826 l 14 848 l 14 987 l 456 987 l 456 848 l 353 826 l 353 341 q 400 209 353 252 q 534 165 447 165 q 715 341 715 165 l 715 826 l 614 848 l 614 987 l 1056 987 l 1056 848 l 954 826 l 954 341 q 901 149 954 229 q 754 27 848 69 q 535 -14 660 -14 m 284 1059 l 284 1192 l 784 1192 l 784 1059 l 284 1059 z "},"Ų":{"ha":1068,"x_min":14,"x_max":1056,"o":"m 535 -14 q 313 27 408 -14 q 167 147 218 68 q 115 341 115 227 l 115 826 l 14 848 l 14 987 l 456 987 l 456 848 l 353 826 l 353 341 q 400 209 353 252 q 534 165 447 165 q 715 341 715 165 l 715 826 l 614 848 l 614 987 l 1056 987 l 1056 848 l 954 826 l 954 341 q 901 149 954 229 q 754 27 848 69 q 535 -14 660 -14 m 581 -284 q 450 -244 501 -284 q 399 -132 399 -204 q 433 -36 399 -84 q 550 42 467 13 l 659 0 q 588 -52 608 -28 q 568 -102 568 -76 q 623 -148 568 -148 q 651 -146 638 -148 q 673 -141 663 -144 l 698 -258 q 648 -277 675 -269 q 581 -284 620 -284 z "},"Ů":{"ha":1068,"x_min":14,"x_max":1056,"o":"m 535 -14 q 313 27 408 -14 q 167 147 218 68 q 115 341 115 227 l 115 826 l 14 848 l 14 987 l 456 987 l 456 848 l 353 826 l 353 341 q 400 209 353 252 q 534 165 447 165 q 715 341 715 165 l 715 826 l 614 848 l 614 987 l 1056 987 l 1056 848 l 954 826 l 954 341 q 901 149 954 229 q 754 27 848 69 q 535 -14 660 -14 m 536 1020 q 414 1063 463 1020 q 366 1174 366 1107 q 415 1285 366 1240 q 536 1331 464 1331 q 655 1285 607 1331 q 703 1174 703 1240 q 655 1063 703 1107 q 536 1020 607 1020 m 536 1111 q 579 1128 564 1111 q 595 1174 595 1145 q 579 1220 595 1203 q 536 1238 564 1238 q 491 1220 509 1238 q 473 1174 473 1203 q 491 1128 473 1145 q 536 1111 508 1111 z "},"Ũ":{"ha":1068,"x_min":14,"x_max":1056,"o":"m 535 -14 q 313 27 408 -14 q 167 147 218 68 q 115 341 115 227 l 115 826 l 14 848 l 14 987 l 456 987 l 456 848 l 353 826 l 353 341 q 400 209 353 252 q 534 165 447 165 q 715 341 715 165 l 715 826 l 614 848 l 614 987 l 1056 987 l 1056 848 l 954 826 l 954 341 q 901 149 954 229 q 754 27 848 69 q 535 -14 660 -14 m 390 1047 l 269 1081 q 292 1169 269 1128 q 352 1234 315 1209 q 431 1258 389 1258 q 502 1242 466 1258 q 569 1210 537 1226 q 623 1194 601 1194 q 665 1215 651 1195 q 680 1266 680 1235 l 800 1232 q 778 1142 800 1183 q 718 1078 755 1102 q 637 1054 680 1054 q 565 1070 600 1054 q 498 1103 529 1086 q 445 1119 468 1119 q 404 1098 417 1119 q 390 1047 390 1076 z "},"V":{"ha":1053,"x_min":10,"x_max":1044,"o":"m 413 0 l 104 837 l 10 848 l 10 987 l 453 987 l 453 848 l 365 834 l 542 279 l 551 241 l 555 241 l 564 277 l 736 834 l 630 848 l 630 987 l 1044 987 l 1044 848 l 947 837 l 671 0 l 413 0 z "},"W":{"ha":1524,"x_min":7,"x_max":1516,"o":"m 347 0 l 119 838 l 7 848 l 7 987 l 453 987 l 453 848 l 343 832 l 451 391 l 467 327 l 471 327 l 487 391 l 680 987 l 844 987 l 1048 363 l 1062 321 l 1066 321 l 1078 363 l 1193 832 l 1080 848 l 1080 987 l 1516 987 l 1516 848 l 1411 838 l 1173 0 l 961 0 l 791 511 l 770 581 l 766 581 l 739 507 l 566 0 l 347 0 z "},"Ẃ":{"ha":1524,"x_min":7,"x_max":1516,"o":"m 347 0 l 119 838 l 7 848 l 7 987 l 453 987 l 453 848 l 343 832 l 451 391 l 467 327 l 471 327 l 487 391 l 680 987 l 844 987 l 1048 363 l 1062 321 l 1066 321 l 1078 363 l 1193 832 l 1080 848 l 1080 987 l 1516 987 l 1516 848 l 1411 838 l 1173 0 l 961 0 l 791 511 l 770 581 l 766 581 l 739 507 l 566 0 l 347 0 m 621 1059 l 762 1244 l 1005 1244 l 1006 1240 l 817 1059 l 621 1059 z "},"Ŵ":{"ha":1524,"x_min":7,"x_max":1516,"o":"m 347 0 l 119 838 l 7 848 l 7 987 l 453 987 l 453 848 l 343 832 l 451 391 l 467 327 l 471 327 l 487 391 l 680 987 l 844 987 l 1048 363 l 1062 321 l 1066 321 l 1078 363 l 1193 832 l 1080 848 l 1080 987 l 1516 987 l 1516 848 l 1411 838 l 1173 0 l 961 0 l 791 511 l 770 581 l 766 581 l 739 507 l 566 0 l 347 0 m 494 1059 l 494 1076 l 670 1244 l 857 1244 l 1031 1074 l 1031 1059 l 848 1059 l 763 1155 l 673 1059 l 494 1059 z "},"Ẅ":{"ha":1524,"x_min":7,"x_max":1516,"o":"m 347 0 l 119 838 l 7 848 l 7 987 l 453 987 l 453 848 l 343 832 l 451 391 l 467 327 l 471 327 l 487 391 l 680 987 l 844 987 l 1048 363 l 1062 321 l 1066 321 l 1078 363 l 1193 832 l 1080 848 l 1080 987 l 1516 987 l 1516 848 l 1411 838 l 1173 0 l 961 0 l 791 511 l 770 581 l 766 581 l 739 507 l 566 0 l 347 0 m 810 1059 l 810 1244 l 1032 1244 l 1032 1059 l 810 1059 m 492 1059 l 492 1244 l 714 1244 l 714 1059 l 492 1059 z "},"Ẁ":{"ha":1524,"x_min":7,"x_max":1516,"o":"m 347 0 l 119 838 l 7 848 l 7 987 l 453 987 l 453 848 l 343 832 l 451 391 l 467 327 l 471 327 l 487 391 l 680 987 l 844 987 l 1048 363 l 1062 321 l 1066 321 l 1078 363 l 1193 832 l 1080 848 l 1080 987 l 1516 987 l 1516 848 l 1411 838 l 1173 0 l 961 0 l 791 511 l 770 581 l 766 581 l 739 507 l 566 0 l 347 0 m 903 1059 l 708 1059 l 518 1240 l 519 1244 l 762 1244 l 903 1059 z "},"X":{"ha":1021,"x_min":5,"x_max":1015,"o":"m 5 0 l 5 139 l 93 157 l 355 481 l 104 829 l 28 848 l 28 987 l 455 987 l 455 848 l 360 839 l 500 643 l 645 839 l 555 848 l 555 987 l 971 987 l 971 848 l 886 829 l 642 510 l 918 157 l 1015 139 l 1015 0 l 576 0 l 576 139 l 654 147 l 503 355 l 345 147 l 422 139 l 422 0 l 5 0 z "},"Y":{"ha":1042,"x_min":12,"x_max":1027,"o":"m 299 0 l 299 139 l 401 161 l 401 326 l 115 833 l 12 848 l 12 987 l 439 987 l 439 848 l 378 837 l 514 566 l 530 532 l 536 532 l 552 564 l 711 837 l 608 848 l 608 987 l 1027 987 l 1027 848 l 922 833 l 639 345 l 639 161 l 742 139 l 742 0 l 299 0 z "},"Ý":{"ha":1042,"x_min":12,"x_max":1027,"o":"m 299 0 l 299 139 l 401 161 l 401 326 l 115 833 l 12 848 l 12 987 l 439 987 l 439 848 l 378 837 l 514 566 l 530 532 l 536 532 l 552 564 l 711 837 l 608 848 l 608 987 l 1027 987 l 1027 848 l 922 833 l 639 345 l 639 161 l 742 139 l 742 0 l 299 0 m 380 1059 l 522 1244 l 764 1244 l 766 1240 l 576 1059 l 380 1059 z "},"Ŷ":{"ha":1042,"x_min":12,"x_max":1027,"o":"m 299 0 l 299 139 l 401 161 l 401 326 l 115 833 l 12 848 l 12 987 l 439 987 l 439 848 l 378 837 l 514 566 l 530 532 l 536 532 l 552 564 l 711 837 l 608 848 l 608 987 l 1027 987 l 1027 848 l 922 833 l 639 345 l 639 161 l 742 139 l 742 0 l 299 0 m 253 1059 l 253 1076 l 429 1244 l 616 1244 l 790 1074 l 790 1059 l 607 1059 l 522 1155 l 433 1059 l 253 1059 z "},"Ÿ":{"ha":1042,"x_min":12,"x_max":1027,"o":"m 299 0 l 299 139 l 401 161 l 401 326 l 115 833 l 12 848 l 12 987 l 439 987 l 439 848 l 378 837 l 514 566 l 530 532 l 536 532 l 552 564 l 711 837 l 608 848 l 608 987 l 1027 987 l 1027 848 l 922 833 l 639 345 l 639 161 l 742 139 l 742 0 l 299 0 m 570 1059 l 570 1244 l 791 1244 l 791 1059 l 570 1059 m 252 1059 l 252 1244 l 473 1244 l 473 1059 l 252 1059 z "},"Ỵ":{"ha":1042,"x_min":12,"x_max":1027,"o":"m 299 0 l 299 139 l 401 161 l 401 326 l 115 833 l 12 848 l 12 987 l 439 987 l 439 848 l 378 837 l 514 566 l 530 532 l 536 532 l 552 564 l 711 837 l 608 848 l 608 987 l 1027 987 l 1027 848 l 922 833 l 639 345 l 639 161 l 742 139 l 742 0 l 299 0 m 399 -282 l 399 -97 l 644 -97 l 644 -282 l 399 -282 z "},"Ỳ":{"ha":1042,"x_min":12,"x_max":1027,"o":"m 299 0 l 299 139 l 401 161 l 401 326 l 115 833 l 12 848 l 12 987 l 439 987 l 439 848 l 378 837 l 514 566 l 530 532 l 536 532 l 552 564 l 711 837 l 608 848 l 608 987 l 1027 987 l 1027 848 l 922 833 l 639 345 l 639 161 l 742 139 l 742 0 l 299 0 m 663 1059 l 467 1059 l 277 1240 l 279 1244 l 522 1244 l 663 1059 z "},"Ỷ":{"ha":1042,"x_min":12,"x_max":1027,"o":"m 299 0 l 299 139 l 401 161 l 401 326 l 115 833 l 12 848 l 12 987 l 439 987 l 439 848 l 378 837 l 514 566 l 530 532 l 536 532 l 552 564 l 711 837 l 608 848 l 608 987 l 1027 987 l 1027 848 l 922 833 l 639 345 l 639 161 l 742 139 l 742 0 l 299 0 m 414 1037 l 397 1122 q 467 1134 446 1124 q 488 1164 488 1144 q 465 1198 488 1188 q 399 1208 442 1208 l 404 1308 q 621 1273 546 1308 q 696 1174 696 1238 q 666 1108 696 1133 q 595 1078 637 1084 l 594 1037 l 414 1037 z "},"Ỹ":{"ha":1042,"x_min":12,"x_max":1027,"o":"m 299 0 l 299 139 l 401 161 l 401 326 l 115 833 l 12 848 l 12 987 l 439 987 l 439 848 l 378 837 l 514 566 l 530 532 l 536 532 l 552 564 l 711 837 l 608 848 l 608 987 l 1027 987 l 1027 848 l 922 833 l 639 345 l 639 161 l 742 139 l 742 0 l 299 0 m 377 1047 l 256 1081 q 279 1169 256 1128 q 339 1234 302 1209 q 418 1258 376 1258 q 489 1242 453 1258 q 556 1210 524 1226 q 610 1194 588 1194 q 652 1215 638 1195 q 667 1266 667 1235 l 787 1232 q 765 1142 787 1183 q 705 1078 742 1102 q 624 1054 667 1054 q 552 1070 587 1054 q 486 1103 516 1086 q 432 1119 455 1119 q 391 1098 404 1119 q 377 1047 377 1076 z "},"Z":{"ha":844,"x_min":43,"x_max":834,"o":"m 43 0 l 43 149 l 505 805 l 256 805 l 239 680 l 60 680 l 73 987 l 804 987 l 804 844 l 341 182 l 637 182 l 656 299 l 834 299 l 814 0 l 43 0 z "},"Ź":{"ha":844,"x_min":43,"x_max":834,"o":"m 43 0 l 43 149 l 505 805 l 256 805 l 239 680 l 60 680 l 73 987 l 804 987 l 804 844 l 341 182 l 637 182 l 656 299 l 834 299 l 814 0 l 43 0 m 281 1059 l 422 1244 l 665 1244 l 666 1240 l 476 1059 l 281 1059 z "},"Ž":{"ha":844,"x_min":43,"x_max":834,"o":"m 43 0 l 43 149 l 505 805 l 256 805 l 239 680 l 60 680 l 73 987 l 804 987 l 804 844 l 341 182 l 637 182 l 656 299 l 834 299 l 814 0 l 43 0 m 690 1244 l 690 1226 l 514 1059 l 327 1059 l 153 1229 l 153 1244 l 336 1244 l 421 1147 l 511 1244 l 690 1244 z "},"Ż":{"ha":844,"x_min":43,"x_max":834,"o":"m 43 0 l 43 149 l 505 805 l 256 805 l 239 680 l 60 680 l 73 987 l 804 987 l 804 844 l 341 182 l 637 182 l 656 299 l 834 299 l 814 0 l 43 0 m 299 1059 l 299 1244 l 544 1244 l 544 1059 l 299 1059 z "},"a":{"ha":791,"x_min":48,"x_max":780,"o":"m 289 -14 q 115 46 182 -14 q 48 207 48 106 q 131 376 48 310 q 382 441 214 441 l 459 441 l 459 485 q 434 560 459 529 q 355 591 409 591 q 275 568 309 591 l 259 475 l 92 475 l 88 679 q 219 727 151 707 q 371 747 287 747 q 609 679 521 747 q 697 482 697 610 l 697 212 q 697 181 697 196 q 701 153 698 166 l 780 139 l 780 0 l 502 0 q 483 33 493 12 q 469 73 473 53 q 394 9 435 32 q 289 -14 353 -14 m 362 154 q 414 164 388 154 q 459 196 440 175 l 459 302 l 385 302 q 311 281 337 302 q 285 225 285 260 q 307 173 285 192 q 362 154 328 154 z "},"á":{"ha":791,"x_min":48,"x_max":780,"o":"m 289 -14 q 115 46 182 -14 q 48 207 48 106 q 131 376 48 310 q 382 441 214 441 l 459 441 l 459 485 q 434 560 459 529 q 355 591 409 591 q 275 568 309 591 l 259 475 l 92 475 l 88 679 q 219 727 151 707 q 371 747 287 747 q 609 679 521 747 q 697 482 697 610 l 697 212 q 697 181 697 196 q 701 153 698 166 l 780 139 l 780 0 l 502 0 q 483 33 493 12 q 469 73 473 53 q 394 9 435 32 q 289 -14 353 -14 m 362 154 q 414 164 388 154 q 459 196 440 175 l 459 302 l 385 302 q 311 281 337 302 q 285 225 285 260 q 307 173 285 192 q 362 154 328 154 m 235 873 l 376 1058 l 619 1058 l 621 1054 l 431 873 l 235 873 z "},"ă":{"ha":791,"x_min":48,"x_max":780,"o":"m 289 -14 q 115 46 182 -14 q 48 207 48 106 q 131 376 48 310 q 382 441 214 441 l 459 441 l 459 485 q 434 560 459 529 q 355 591 409 591 q 275 568 309 591 l 259 475 l 92 475 l 88 679 q 219 727 151 707 q 371 747 287 747 q 609 679 521 747 q 697 482 697 610 l 697 212 q 697 181 697 196 q 701 153 698 166 l 780 139 l 780 0 l 502 0 q 483 33 493 12 q 469 73 473 53 q 394 9 435 32 q 289 -14 353 -14 m 362 154 q 414 164 388 154 q 459 196 440 175 l 459 302 l 385 302 q 311 281 337 302 q 285 225 285 260 q 307 173 285 192 q 362 154 328 154 m 377 853 q 191 909 260 853 q 126 1054 121 966 l 127 1058 l 282 1058 q 305 1001 282 1024 q 377 979 328 979 q 448 1001 425 979 q 470 1058 470 1023 l 625 1058 l 627 1054 q 562 909 630 966 q 377 853 493 853 z "},"ắ":{"ha":791,"x_min":48,"x_max":780,"o":"m 289 -14 q 115 46 182 -14 q 48 207 48 106 q 131 376 48 310 q 382 441 214 441 l 459 441 l 459 485 q 434 560 459 529 q 355 591 409 591 q 275 568 309 591 l 259 475 l 92 475 l 88 679 q 219 727 151 707 q 371 747 287 747 q 609 679 521 747 q 697 482 697 610 l 697 212 q 697 181 697 196 q 701 153 698 166 l 780 139 l 780 0 l 502 0 q 483 33 493 12 q 469 73 473 53 q 394 9 435 32 q 289 -14 353 -14 m 362 154 q 414 164 388 154 q 459 196 440 175 l 459 302 l 385 302 q 311 281 337 302 q 285 225 285 260 q 307 173 285 192 q 362 154 328 154 m 297 1024 l 369 1175 l 561 1175 l 562 1171 l 424 1024 l 297 1024 m 370 831 q 184 884 254 831 q 119 1017 115 936 l 121 1021 l 271 1021 q 295 969 271 990 q 370 949 319 949 q 444 969 420 949 q 467 1021 467 989 l 618 1021 l 620 1017 q 555 884 623 936 q 370 831 486 831 z "},"ặ":{"ha":791,"x_min":48,"x_max":780,"o":"m 289 -14 q 115 46 182 -14 q 48 207 48 106 q 131 376 48 310 q 382 441 214 441 l 459 441 l 459 485 q 434 560 459 529 q 355 591 409 591 q 275 568 309 591 l 259 475 l 92 475 l 88 679 q 219 727 151 707 q 371 747 287 747 q 609 679 521 747 q 697 482 697 610 l 697 212 q 697 181 697 196 q 701 153 698 166 l 780 139 l 780 0 l 502 0 q 483 33 493 12 q 469 73 473 53 q 394 9 435 32 q 289 -14 353 -14 m 362 154 q 414 164 388 154 q 459 196 440 175 l 459 302 l 385 302 q 311 281 337 302 q 285 225 285 260 q 307 173 285 192 q 362 154 328 154 m 377 853 q 191 909 260 853 q 126 1054 121 966 l 127 1058 l 282 1058 q 305 1001 282 1024 q 377 979 328 979 q 448 1001 425 979 q 470 1058 470 1023 l 625 1058 l 627 1054 q 562 909 630 966 q 377 853 493 853 m 273 -282 l 273 -97 l 518 -97 l 518 -282 l 273 -282 z "},"ằ":{"ha":791,"x_min":48,"x_max":780,"o":"m 289 -14 q 115 46 182 -14 q 48 207 48 106 q 131 376 48 310 q 382 441 214 441 l 459 441 l 459 485 q 434 560 459 529 q 355 591 409 591 q 275 568 309 591 l 259 475 l 92 475 l 88 679 q 219 727 151 707 q 371 747 287 747 q 609 679 521 747 q 697 482 697 610 l 697 212 q 697 181 697 196 q 701 153 698 166 l 780 139 l 780 0 l 502 0 q 483 33 493 12 q 469 73 473 53 q 394 9 435 32 q 289 -14 353 -14 m 362 154 q 414 164 388 154 q 459 196 440 175 l 459 302 l 385 302 q 311 281 337 302 q 285 225 285 260 q 307 173 285 192 q 362 154 328 154 m 456 1024 l 329 1024 l 191 1171 l 192 1175 l 384 1175 l 456 1024 m 382 831 q 198 884 267 831 q 133 1017 130 936 l 134 1021 l 286 1021 q 309 969 286 989 q 382 949 333 949 q 458 969 434 949 q 481 1021 481 990 l 632 1021 l 633 1017 q 569 884 638 936 q 382 831 500 831 z "},"ẳ":{"ha":791,"x_min":48,"x_max":780,"o":"m 289 -14 q 115 46 182 -14 q 48 207 48 106 q 131 376 48 310 q 382 441 214 441 l 459 441 l 459 485 q 434 560 459 529 q 355 591 409 591 q 275 568 309 591 l 259 475 l 92 475 l 88 679 q 219 727 151 707 q 371 747 287 747 q 609 679 521 747 q 697 482 697 610 l 697 212 q 697 181 697 196 q 701 153 698 166 l 780 139 l 780 0 l 502 0 q 483 33 493 12 q 469 73 473 53 q 394 9 435 32 q 289 -14 353 -14 m 362 154 q 414 164 388 154 q 459 196 440 175 l 459 302 l 385 302 q 311 281 337 302 q 285 225 285 260 q 307 173 285 192 q 362 154 328 154 m 302 1019 l 286 1098 q 356 1107 334 1099 q 377 1131 377 1115 q 288 1166 377 1166 l 293 1252 q 482 1223 416 1252 q 547 1145 547 1195 q 519 1087 547 1107 q 448 1061 491 1066 l 448 1019 l 302 1019 m 376 831 q 190 884 260 831 q 125 1017 121 936 l 127 1021 l 277 1021 q 301 969 277 990 q 376 949 325 949 q 450 969 427 949 q 473 1021 473 989 l 625 1021 l 626 1017 q 561 884 629 936 q 376 831 492 831 z "},"ẵ":{"ha":791,"x_min":48,"x_max":780,"o":"m 289 -14 q 115 46 182 -14 q 48 207 48 106 q 131 376 48 310 q 382 441 214 441 l 459 441 l 459 485 q 434 560 459 529 q 355 591 409 591 q 275 568 309 591 l 259 475 l 92 475 l 88 679 q 219 727 151 707 q 371 747 287 747 q 609 679 521 747 q 697 482 697 610 l 697 212 q 697 181 697 196 q 701 153 698 166 l 780 139 l 780 0 l 502 0 q 483 33 493 12 q 469 73 473 53 q 394 9 435 32 q 289 -14 353 -14 m 362 154 q 414 164 388 154 q 459 196 440 175 l 459 302 l 385 302 q 311 281 337 302 q 285 225 285 260 q 307 173 285 192 q 362 154 328 154 m 240 1048 l 130 1080 q 151 1160 130 1123 q 208 1219 173 1197 q 283 1242 243 1242 q 349 1227 315 1242 q 412 1197 382 1212 q 465 1183 441 1183 q 506 1202 492 1183 q 521 1250 521 1222 l 631 1218 q 609 1136 631 1173 q 552 1077 587 1099 q 476 1055 517 1055 q 409 1070 441 1055 q 347 1100 376 1085 q 295 1115 318 1115 q 254 1095 268 1115 q 240 1048 240 1075 m 376 831 q 190 884 260 831 q 125 1017 121 936 l 127 1021 l 277 1021 q 301 969 277 990 q 376 949 325 949 q 450 969 427 949 q 473 1021 473 989 l 625 1021 l 626 1017 q 561 884 629 936 q 376 831 492 831 z "},"â":{"ha":791,"x_min":48,"x_max":780,"o":"m 289 -14 q 115 46 182 -14 q 48 207 48 106 q 131 376 48 310 q 382 441 214 441 l 459 441 l 459 485 q 434 560 459 529 q 355 591 409 591 q 275 568 309 591 l 259 475 l 92 475 l 88 679 q 219 727 151 707 q 371 747 287 747 q 609 679 521 747 q 697 482 697 610 l 697 212 q 697 181 697 196 q 701 153 698 166 l 780 139 l 780 0 l 502 0 q 483 33 493 12 q 469 73 473 53 q 394 9 435 32 q 289 -14 353 -14 m 362 154 q 414 164 388 154 q 459 196 440 175 l 459 302 l 385 302 q 311 281 337 302 q 285 225 285 260 q 307 173 285 192 q 362 154 328 154 m 108 873 l 108 890 l 284 1058 l 471 1058 l 645 888 l 645 873 l 462 873 l 377 969 l 288 873 l 108 873 z "},"ấ":{"ha":791,"x_min":48,"x_max":787,"o":"m 289 -14 q 115 46 182 -14 q 48 207 48 106 q 131 376 48 310 q 382 441 214 441 l 459 441 l 459 485 q 434 560 459 529 q 355 591 409 591 q 275 568 309 591 l 259 475 l 92 475 l 88 679 q 219 727 151 707 q 371 747 287 747 q 609 679 521 747 q 697 482 697 610 l 697 212 q 697 181 697 196 q 701 153 698 166 l 780 139 l 780 0 l 502 0 q 483 33 493 12 q 469 73 473 53 q 394 9 435 32 q 289 -14 353 -14 m 362 154 q 414 164 388 154 q 459 196 440 175 l 459 302 l 385 302 q 311 281 337 302 q 285 225 285 260 q 307 173 285 192 q 362 154 328 154 m 522 1024 l 594 1175 l 786 1175 l 787 1171 l 649 1024 l 522 1024 m 107 846 l 107 863 l 283 1018 l 471 1018 l 644 861 l 644 846 l 460 846 l 376 930 l 288 846 l 107 846 z "},"ậ":{"ha":791,"x_min":48,"x_max":780,"o":"m 289 -14 q 115 46 182 -14 q 48 207 48 106 q 131 376 48 310 q 382 441 214 441 l 459 441 l 459 485 q 434 560 459 529 q 355 591 409 591 q 275 568 309 591 l 259 475 l 92 475 l 88 679 q 219 727 151 707 q 371 747 287 747 q 609 679 521 747 q 697 482 697 610 l 697 212 q 697 181 697 196 q 701 153 698 166 l 780 139 l 780 0 l 502 0 q 483 33 493 12 q 469 73 473 53 q 394 9 435 32 q 289 -14 353 -14 m 362 154 q 414 164 388 154 q 459 196 440 175 l 459 302 l 385 302 q 311 281 337 302 q 285 225 285 260 q 307 173 285 192 q 362 154 328 154 m 108 873 l 108 890 l 284 1058 l 471 1058 l 645 888 l 645 873 l 462 873 l 377 969 l 288 873 l 108 873 m 273 -282 l 273 -97 l 518 -97 l 518 -282 l 273 -282 z "},"ầ":{"ha":791,"x_min":-35,"x_max":780,"o":"m 289 -14 q 115 46 182 -14 q 48 207 48 106 q 131 376 48 310 q 382 441 214 441 l 459 441 l 459 485 q 434 560 459 529 q 355 591 409 591 q 275 568 309 591 l 259 475 l 92 475 l 88 679 q 219 727 151 707 q 371 747 287 747 q 609 679 521 747 q 697 482 697 610 l 697 212 q 697 181 697 196 q 701 153 698 166 l 780 139 l 780 0 l 502 0 q 483 33 493 12 q 469 73 473 53 q 394 9 435 32 q 289 -14 353 -14 m 362 154 q 414 164 388 154 q 459 196 440 175 l 459 302 l 385 302 q 311 281 337 302 q 285 225 285 260 q 307 173 285 192 q 362 154 328 154 m 231 1024 l 104 1024 l -35 1171 l -33 1175 l 159 1175 l 231 1024 m 646 846 l 465 846 l 376 930 l 293 846 l 109 846 l 109 861 l 282 1018 l 469 1018 l 646 863 l 646 846 z "},"ẩ":{"ha":791,"x_min":48,"x_max":780,"o":"m 289 -14 q 115 46 182 -14 q 48 207 48 106 q 131 376 48 310 q 382 441 214 441 l 459 441 l 459 485 q 434 560 459 529 q 355 591 409 591 q 275 568 309 591 l 259 475 l 92 475 l 88 679 q 219 727 151 707 q 371 747 287 747 q 609 679 521 747 q 697 482 697 610 l 697 212 q 697 181 697 196 q 701 153 698 166 l 780 139 l 780 0 l 502 0 q 483 33 493 12 q 469 73 473 53 q 394 9 435 32 q 289 -14 353 -14 m 362 154 q 414 164 388 154 q 459 196 440 175 l 459 302 l 385 302 q 311 281 337 302 q 285 225 285 260 q 307 173 285 192 q 362 154 328 154 m 541 985 l 525 1064 q 589 1073 569 1065 q 608 1097 608 1081 q 527 1132 608 1132 l 532 1218 q 715 1190 652 1218 q 779 1111 779 1161 q 752 1053 779 1074 q 686 1027 726 1032 l 685 985 l 541 985 m 107 846 l 107 863 l 283 1018 l 471 1018 l 644 861 l 644 846 l 460 846 l 376 930 l 288 846 l 107 846 z "},"ẫ":{"ha":791,"x_min":48,"x_max":780,"o":"m 289 -14 q 115 46 182 -14 q 48 207 48 106 q 131 376 48 310 q 382 441 214 441 l 459 441 l 459 485 q 434 560 459 529 q 355 591 409 591 q 275 568 309 591 l 259 475 l 92 475 l 88 679 q 219 727 151 707 q 371 747 287 747 q 609 679 521 747 q 697 482 697 610 l 697 212 q 697 181 697 196 q 701 153 698 166 l 780 139 l 780 0 l 502 0 q 483 33 493 12 q 469 73 473 53 q 394 9 435 32 q 289 -14 353 -14 m 362 154 q 414 164 388 154 q 459 196 440 175 l 459 302 l 385 302 q 311 281 337 302 q 285 225 285 260 q 307 173 285 192 q 362 154 328 154 m 231 1048 l 120 1080 q 142 1160 120 1123 q 199 1219 163 1197 q 274 1242 234 1242 q 339 1227 306 1242 q 402 1197 372 1212 q 455 1183 433 1183 q 497 1202 482 1183 q 511 1250 511 1222 l 621 1218 q 600 1136 621 1173 q 543 1077 578 1099 q 467 1055 508 1055 q 399 1070 432 1055 q 337 1100 366 1085 q 286 1115 309 1115 q 244 1095 258 1115 q 231 1048 231 1075 m 108 846 l 108 863 l 284 1018 l 471 1018 l 645 861 l 645 846 l 460 846 l 377 930 l 289 846 l 108 846 z "},"ä":{"ha":791,"x_min":48,"x_max":780,"o":"m 289 -14 q 115 46 182 -14 q 48 207 48 106 q 131 376 48 310 q 382 441 214 441 l 459 441 l 459 485 q 434 560 459 529 q 355 591 409 591 q 275 568 309 591 l 259 475 l 92 475 l 88 679 q 219 727 151 707 q 371 747 287 747 q 609 679 521 747 q 697 482 697 610 l 697 212 q 697 181 697 196 q 701 153 698 166 l 780 139 l 780 0 l 502 0 q 483 33 493 12 q 469 73 473 53 q 394 9 435 32 q 289 -14 353 -14 m 362 154 q 414 164 388 154 q 459 196 440 175 l 459 302 l 385 302 q 311 281 337 302 q 285 225 285 260 q 307 173 285 192 q 362 154 328 154 m 425 873 l 425 1058 l 646 1058 l 646 873 l 425 873 m 106 873 l 106 1058 l 328 1058 l 328 873 l 106 873 z "},"ạ":{"ha":791,"x_min":48,"x_max":780,"o":"m 289 -14 q 115 46 182 -14 q 48 207 48 106 q 131 376 48 310 q 382 441 214 441 l 459 441 l 459 485 q 434 560 459 529 q 355 591 409 591 q 275 568 309 591 l 259 475 l 92 475 l 88 679 q 219 727 151 707 q 371 747 287 747 q 609 679 521 747 q 697 482 697 610 l 697 212 q 697 181 697 196 q 701 153 698 166 l 780 139 l 780 0 l 502 0 q 483 33 493 12 q 469 73 473 53 q 394 9 435 32 q 289 -14 353 -14 m 362 154 q 414 164 388 154 q 459 196 440 175 l 459 302 l 385 302 q 311 281 337 302 q 285 225 285 260 q 307 173 285 192 q 362 154 328 154 m 273 -282 l 273 -97 l 518 -97 l 518 -282 l 273 -282 z "},"à":{"ha":791,"x_min":48,"x_max":780,"o":"m 289 -14 q 115 46 182 -14 q 48 207 48 106 q 131 376 48 310 q 382 441 214 441 l 459 441 l 459 485 q 434 560 459 529 q 355 591 409 591 q 275 568 309 591 l 259 475 l 92 475 l 88 679 q 219 727 151 707 q 371 747 287 747 q 609 679 521 747 q 697 482 697 610 l 697 212 q 697 181 697 196 q 701 153 698 166 l 780 139 l 780 0 l 502 0 q 483 33 493 12 q 469 73 473 53 q 394 9 435 32 q 289 -14 353 -14 m 362 154 q 414 164 388 154 q 459 196 440 175 l 459 302 l 385 302 q 311 281 337 302 q 285 225 285 260 q 307 173 285 192 q 362 154 328 154 m 517 873 l 322 873 l 132 1054 l 134 1058 l 376 1058 l 517 873 z "},"ả":{"ha":791,"x_min":48,"x_max":780,"o":"m 289 -14 q 115 46 182 -14 q 48 207 48 106 q 131 376 48 310 q 382 441 214 441 l 459 441 l 459 485 q 434 560 459 529 q 355 591 409 591 q 275 568 309 591 l 259 475 l 92 475 l 88 679 q 219 727 151 707 q 371 747 287 747 q 609 679 521 747 q 697 482 697 610 l 697 212 q 697 181 697 196 q 701 153 698 166 l 780 139 l 780 0 l 502 0 q 483 33 493 12 q 469 73 473 53 q 394 9 435 32 q 289 -14 353 -14 m 362 154 q 414 164 388 154 q 459 196 440 175 l 459 302 l 385 302 q 311 281 337 302 q 285 225 285 260 q 307 173 285 192 q 362 154 328 154 m 269 851 l 252 937 q 322 948 300 938 q 343 979 343 958 q 320 1012 343 1002 q 254 1022 297 1022 l 259 1122 q 476 1087 401 1122 q 551 988 551 1052 q 521 923 551 947 q 450 892 492 899 l 449 851 l 269 851 z "},"ā":{"ha":791,"x_min":48,"x_max":780,"o":"m 289 -14 q 115 46 182 -14 q 48 207 48 106 q 131 376 48 310 q 382 441 214 441 l 459 441 l 459 485 q 434 560 459 529 q 355 591 409 591 q 275 568 309 591 l 259 475 l 92 475 l 88 679 q 219 727 151 707 q 371 747 287 747 q 609 679 521 747 q 697 482 697 610 l 697 212 q 697 181 697 196 q 701 153 698 166 l 780 139 l 780 0 l 502 0 q 483 33 493 12 q 469 73 473 53 q 394 9 435 32 q 289 -14 353 -14 m 362 154 q 414 164 388 154 q 459 196 440 175 l 459 302 l 385 302 q 311 281 337 302 q 285 225 285 260 q 307 173 285 192 q 362 154 328 154 m 126 873 l 126 1006 l 626 1006 l 626 873 l 126 873 z "},"ą":{"ha":791,"x_min":48,"x_max":820,"o":"m 289 -14 q 115 46 182 -14 q 48 207 48 106 q 131 376 48 310 q 382 441 214 441 l 459 441 l 459 485 q 434 560 459 529 q 355 591 409 591 q 275 568 309 591 l 259 475 l 92 475 l 88 679 q 219 727 151 707 q 371 747 287 747 q 609 679 521 747 q 697 482 697 610 l 697 212 q 697 181 697 196 q 701 153 698 166 l 780 139 l 780 0 l 502 0 q 483 33 493 12 q 469 73 473 53 q 394 9 435 32 q 289 -14 353 -14 m 362 154 q 414 164 388 154 q 459 196 440 175 l 459 302 l 385 302 q 311 281 337 302 q 285 225 285 260 q 307 173 285 192 q 362 154 328 154 m 703 -284 q 572 -244 623 -284 q 521 -132 521 -204 q 555 -36 521 -84 q 672 42 589 13 l 781 0 q 710 -52 730 -28 q 690 -102 690 -76 q 745 -148 690 -148 q 773 -146 760 -148 q 795 -141 785 -144 l 820 -258 q 770 -277 798 -269 q 703 -284 742 -284 z "},"å":{"ha":791,"x_min":48,"x_max":780,"o":"m 289 -14 q 115 46 182 -14 q 48 207 48 106 q 131 376 48 310 q 382 441 214 441 l 459 441 l 459 485 q 434 560 459 529 q 355 591 409 591 q 275 568 309 591 l 259 475 l 92 475 l 88 679 q 219 727 151 707 q 371 747 287 747 q 609 679 521 747 q 697 482 697 610 l 697 212 q 697 181 697 196 q 701 153 698 166 l 780 139 l 780 0 l 502 0 q 483 33 493 12 q 469 73 473 53 q 394 9 435 32 q 289 -14 353 -14 m 362 154 q 414 164 388 154 q 459 196 440 175 l 459 302 l 385 302 q 311 281 337 302 q 285 225 285 260 q 307 173 285 192 q 362 154 328 154 m 378 834 q 256 878 304 834 q 208 988 208 921 q 257 1100 208 1055 q 378 1145 306 1145 q 497 1099 449 1145 q 545 988 545 1054 q 497 878 545 921 q 378 834 449 834 m 378 925 q 421 942 406 925 q 437 988 437 959 q 421 1035 437 1017 q 378 1052 406 1052 q 333 1035 351 1052 q 315 988 315 1017 q 333 942 315 959 q 378 925 350 925 z "},"ǻ":{"ha":791,"x_min":48,"x_max":780,"o":"m 289 -14 q 115 46 182 -14 q 48 207 48 106 q 131 376 48 310 q 382 441 214 441 l 459 441 l 459 485 q 434 560 459 529 q 355 591 409 591 q 275 568 309 591 l 259 475 l 92 475 l 88 679 q 219 727 151 707 q 371 747 287 747 q 609 679 521 747 q 697 482 697 610 l 697 212 q 697 181 697 196 q 701 153 698 166 l 780 139 l 780 0 l 502 0 q 483 33 493 12 q 469 73 473 53 q 394 9 435 32 q 289 -14 353 -14 m 362 154 q 414 164 388 154 q 459 196 440 175 l 459 302 l 385 302 q 311 281 337 302 q 285 225 285 260 q 307 173 285 192 q 362 154 328 154 m 300 1040 l 387 1175 l 582 1175 l 583 1171 l 441 1040 l 300 1040 m 378 699 q 256 742 304 699 q 208 850 208 784 q 257 959 208 914 q 378 1003 306 1003 q 497 959 449 1003 q 545 850 545 914 q 497 742 545 784 q 378 699 449 699 m 378 790 q 420 806 405 790 q 436 850 436 823 q 421 894 436 878 q 378 910 406 910 q 333 894 351 910 q 316 850 316 878 q 333 806 316 823 q 378 790 351 790 z "},"ḁ":{"ha":791,"x_min":48,"x_max":780,"o":"m 289 -14 q 115 46 182 -14 q 48 207 48 106 q 131 376 48 310 q 382 441 214 441 l 459 441 l 459 485 q 434 560 459 529 q 355 591 409 591 q 275 568 309 591 l 259 475 l 92 475 l 88 679 q 219 727 151 707 q 371 747 287 747 q 609 679 521 747 q 697 482 697 610 l 697 212 q 697 181 697 196 q 701 153 698 166 l 780 139 l 780 0 l 502 0 q 483 33 493 12 q 469 73 473 53 q 394 9 435 32 q 289 -14 353 -14 m 362 154 q 414 164 388 154 q 459 196 440 175 l 459 302 l 385 302 q 311 281 337 302 q 285 225 285 260 q 307 173 285 192 q 362 154 328 154 m 397 -359 q 276 -316 324 -359 q 227 -205 227 -273 q 276 -94 227 -139 q 397 -49 326 -49 q 517 -94 469 -49 q 565 -205 565 -140 q 517 -316 565 -273 q 397 -359 469 -359 m 397 -269 q 441 -252 425 -269 q 456 -205 456 -235 q 441 -159 456 -176 q 397 -142 425 -142 q 353 -159 370 -142 q 335 -205 335 -176 q 352 -252 335 -235 q 397 -269 370 -269 z "},"ã":{"ha":791,"x_min":48,"x_max":780,"o":"m 289 -14 q 115 46 182 -14 q 48 207 48 106 q 131 376 48 310 q 382 441 214 441 l 459 441 l 459 485 q 434 560 459 529 q 355 591 409 591 q 275 568 309 591 l 259 475 l 92 475 l 88 679 q 219 727 151 707 q 371 747 287 747 q 609 679 521 747 q 697 482 697 610 l 697 212 q 697 181 697 196 q 701 153 698 166 l 780 139 l 780 0 l 502 0 q 483 33 493 12 q 469 73 473 53 q 394 9 435 32 q 289 -14 353 -14 m 362 154 q 414 164 388 154 q 459 196 440 175 l 459 302 l 385 302 q 311 281 337 302 q 285 225 285 260 q 307 173 285 192 q 362 154 328 154 m 232 861 l 111 895 q 134 983 111 943 q 194 1048 157 1023 q 273 1072 231 1072 q 343 1056 308 1072 q 411 1024 379 1040 q 465 1008 443 1008 q 507 1029 493 1009 q 522 1080 522 1049 l 642 1046 q 620 957 642 997 q 559 892 597 916 q 479 868 522 868 q 407 884 442 868 q 340 917 371 901 q 287 933 310 933 q 245 912 259 933 q 232 861 232 890 z "},"æ":{"ha":1160,"x_min":48,"x_max":1114,"o":"m 309 -14 q 118 46 188 -14 q 48 207 48 106 q 131 376 48 310 q 382 441 214 441 l 459 441 l 459 485 q 434 560 459 529 q 355 591 409 591 q 275 568 309 591 l 259 475 l 92 475 l 88 679 q 219 727 151 707 q 371 747 287 747 q 497 727 441 747 q 591 665 553 707 q 802 747 673 747 q 968 706 898 747 q 1076 591 1038 665 q 1114 414 1114 516 l 1114 291 l 698 291 l 696 286 q 736 199 701 231 q 846 167 772 167 q 940 178 901 167 q 1033 212 980 189 l 1089 67 q 966 10 1044 34 q 808 -14 888 -14 q 559 78 646 -14 q 450 10 510 35 q 309 -14 390 -14 m 698 438 l 882 438 l 882 456 q 858 537 882 509 q 793 566 833 566 q 725 533 751 566 q 696 441 700 501 l 698 438 m 363 154 q 422 166 391 154 q 475 203 453 178 q 463 250 466 224 q 459 294 459 275 l 459 302 l 385 302 q 311 281 337 302 q 285 225 285 260 q 307 173 285 192 q 363 154 328 154 z "},"ǽ":{"ha":1160,"x_min":48,"x_max":1114,"o":"m 309 -14 q 118 46 188 -14 q 48 207 48 106 q 131 376 48 310 q 382 441 214 441 l 459 441 l 459 485 q 434 560 459 529 q 355 591 409 591 q 275 568 309 591 l 259 475 l 92 475 l 88 679 q 219 727 151 707 q 371 747 287 747 q 497 727 441 747 q 591 665 553 707 q 802 747 673 747 q 968 706 898 747 q 1076 591 1038 665 q 1114 414 1114 516 l 1114 291 l 698 291 l 696 286 q 736 199 701 231 q 846 167 772 167 q 940 178 901 167 q 1033 212 980 189 l 1089 67 q 966 10 1044 34 q 808 -14 888 -14 q 559 78 646 -14 q 450 10 510 35 q 309 -14 390 -14 m 698 438 l 882 438 l 882 456 q 858 537 882 509 q 793 566 833 566 q 725 533 751 566 q 696 441 700 501 l 698 438 m 363 154 q 422 166 391 154 q 475 203 453 178 q 463 250 466 224 q 459 294 459 275 l 459 302 l 385 302 q 311 281 337 302 q 285 225 285 260 q 307 173 285 192 q 363 154 328 154 m 444 873 l 585 1058 l 828 1058 l 829 1054 l 640 873 l 444 873 z "},"b":{"ha":816,"x_min":-18,"x_max":768,"o":"m 492 -14 q 381 12 427 -14 q 305 87 336 38 l 290 0 l 84 0 l 84 897 l -18 918 l -18 1058 l 321 1058 l 321 661 q 395 725 351 703 q 496 747 439 747 q 698 644 628 747 q 768 366 768 541 l 768 351 q 698 85 768 184 q 492 -14 627 -14 m 416 168 q 506 214 481 168 q 532 351 532 259 l 532 366 q 506 513 532 460 q 420 565 480 565 q 361 549 387 565 q 321 507 336 534 l 321 212 q 363 178 339 189 q 416 168 387 168 z "},"c":{"ha":741,"x_min":41,"x_max":699,"o":"m 391 -14 q 203 34 282 -14 q 83 166 125 82 q 41 358 41 250 l 41 374 q 84 568 41 484 q 207 700 128 652 q 389 747 285 747 q 569 715 494 747 q 688 649 644 684 l 684 418 l 507 418 l 478 551 q 447 570 467 562 q 415 577 428 577 q 309 528 339 577 q 279 374 279 478 l 279 358 q 296 244 279 286 q 340 184 313 202 q 394 167 366 167 q 460 188 437 167 q 496 251 484 210 l 696 251 l 699 247 q 648 101 682 159 q 552 15 613 43 q 391 -14 490 -14 z "},"ć":{"ha":741,"x_min":41,"x_max":699,"o":"m 391 -14 q 203 34 282 -14 q 83 166 125 82 q 41 358 41 250 l 41 374 q 84 568 41 484 q 207 700 128 652 q 389 747 285 747 q 569 715 494 747 q 688 649 644 684 l 684 418 l 507 418 l 478 551 q 447 570 467 562 q 415 577 428 577 q 309 528 339 577 q 279 374 279 478 l 279 358 q 296 244 279 286 q 340 184 313 202 q 394 167 366 167 q 460 188 437 167 q 496 251 484 210 l 696 251 l 699 247 q 648 101 682 159 q 552 15 613 43 q 391 -14 490 -14 m 234 873 l 375 1058 l 618 1058 l 619 1054 l 429 873 l 234 873 z "},"č":{"ha":741,"x_min":41,"x_max":699,"o":"m 391 -14 q 203 34 282 -14 q 83 166 125 82 q 41 358 41 250 l 41 374 q 84 568 41 484 q 207 700 128 652 q 389 747 285 747 q 569 715 494 747 q 688 649 644 684 l 684 418 l 507 418 l 478 551 q 447 570 467 562 q 415 577 428 577 q 309 528 339 577 q 279 374 279 478 l 279 358 q 296 244 279 286 q 340 184 313 202 q 394 167 366 167 q 460 188 437 167 q 496 251 484 210 l 696 251 l 699 247 q 648 101 682 159 q 552 15 613 43 q 391 -14 490 -14 m 644 1058 l 644 1040 l 467 873 l 280 873 l 106 1043 l 106 1058 l 290 1058 l 374 962 l 464 1058 l 644 1058 z "},"ç":{"ha":741,"x_min":41,"x_max":699,"o":"m 391 -14 q 203 34 282 -14 q 83 166 125 82 q 41 358 41 250 l 41 374 q 84 568 41 484 q 207 700 128 652 q 389 747 285 747 q 569 715 494 747 q 688 649 644 684 l 684 418 l 507 418 l 478 551 q 447 570 467 562 q 415 577 428 577 q 309 528 339 577 q 279 374 279 478 l 279 358 q 296 244 279 286 q 340 184 313 202 q 394 167 366 167 q 460 188 437 167 q 496 251 484 210 l 696 251 l 699 247 q 648 101 682 159 q 552 15 613 43 q 391 -14 490 -14 m 285 -321 l 280 -192 q 336 -180 316 -192 q 357 -144 357 -169 q 333 -106 357 -117 q 264 -94 310 -96 l 284 7 l 462 7 l 455 -37 q 532 -71 501 -44 q 564 -150 564 -98 q 491 -275 564 -228 q 285 -321 418 -321 z "},"ĉ":{"ha":741,"x_min":41,"x_max":699,"o":"m 391 -14 q 203 34 282 -14 q 83 166 125 82 q 41 358 41 250 l 41 374 q 84 568 41 484 q 207 700 128 652 q 389 747 285 747 q 569 715 494 747 q 688 649 644 684 l 684 418 l 507 418 l 478 551 q 447 570 467 562 q 415 577 428 577 q 309 528 339 577 q 279 374 279 478 l 279 358 q 296 244 279 286 q 340 184 313 202 q 394 167 366 167 q 460 188 437 167 q 496 251 484 210 l 696 251 l 699 247 q 648 101 682 159 q 552 15 613 43 q 391 -14 490 -14 m 106 873 l 106 890 l 283 1058 l 470 1058 l 644 888 l 644 873 l 460 873 l 376 969 l 286 873 l 106 873 z "},"ċ":{"ha":741,"x_min":41,"x_max":699,"o":"m 391 -14 q 203 34 282 -14 q 83 166 125 82 q 41 358 41 250 l 41 374 q 84 568 41 484 q 207 700 128 652 q 389 747 285 747 q 569 715 494 747 q 688 649 644 684 l 684 418 l 507 418 l 478 551 q 447 570 467 562 q 415 577 428 577 q 309 528 339 577 q 279 374 279 478 l 279 358 q 296 244 279 286 q 340 184 313 202 q 394 167 366 167 q 460 188 437 167 q 496 251 484 210 l 696 251 l 699 247 q 648 101 682 159 q 552 15 613 43 q 391 -14 490 -14 m 252 873 l 252 1058 l 497 1058 l 497 873 l 252 873 z "},"d":{"ha":819,"x_min":41,"x_max":812,"o":"m 317 -14 q 169 31 231 -14 q 74 159 106 77 q 41 351 41 241 l 41 366 q 74 566 41 480 q 169 700 107 652 q 314 747 230 747 q 415 723 372 747 q 489 656 457 699 l 489 897 l 386 918 l 386 1058 l 727 1058 l 727 161 l 812 139 l 812 0 l 521 0 l 503 91 q 425 13 470 39 q 317 -14 379 -14 m 391 168 q 489 214 455 168 l 489 508 q 392 565 455 565 q 304 510 330 565 q 279 366 279 455 l 279 351 q 303 216 279 264 q 391 168 328 168 z "},"ð":{"ha":836,"x_min":33,"x_max":808,"o":"m 415 -14 q 216 30 302 -14 q 81 152 130 74 q 33 328 33 229 q 122 562 33 473 q 370 651 210 651 q 543 609 477 651 l 546 611 q 507 689 532 652 q 448 759 482 726 l 309 683 l 256 764 l 361 821 q 314 842 338 833 q 267 858 290 851 l 343 1029 q 569 933 470 1001 l 699 1005 l 751 924 l 648 868 q 766 687 724 790 q 808 460 808 583 l 808 418 q 756 194 808 291 q 616 41 705 96 q 415 -14 527 -14 m 411 167 q 529 237 489 167 q 570 418 570 307 l 570 440 q 511 472 548 460 q 430 484 474 484 q 310 441 350 484 q 270 326 270 399 q 310 210 270 254 q 411 167 350 167 z "},"ď":{"ha":821,"x_min":41,"x_max":1002,"o":"m 317 -14 q 169 31 231 -14 q 74 159 106 77 q 41 351 41 241 l 41 366 q 74 566 41 480 q 169 700 107 652 q 314 747 230 747 q 415 723 372 747 q 489 656 457 699 l 489 897 l 386 918 l 386 1058 l 727 1058 l 727 161 l 812 139 l 812 0 l 521 0 l 503 91 q 425 13 470 39 q 317 -14 379 -14 m 391 168 q 489 214 455 168 l 489 508 q 392 565 455 565 q 304 510 330 565 q 279 366 279 455 l 279 351 q 303 216 279 264 q 391 168 328 168 m 878 774 l 766 841 q 797 907 786 873 q 808 992 808 940 l 808 1058 l 1002 1058 l 1002 1006 q 965 877 1002 940 q 878 774 927 814 z "},"đ":{"ha":819,"x_min":41,"x_max":830,"o":"m 317 -14 q 169 31 231 -14 q 74 159 106 77 q 41 351 41 241 l 41 366 q 74 566 41 480 q 169 700 107 652 q 314 747 230 747 q 415 723 372 747 q 489 656 457 699 l 489 897 l 386 918 l 386 1058 l 727 1058 l 727 161 l 812 139 l 812 0 l 521 0 l 503 91 q 425 13 470 39 q 317 -14 379 -14 m 391 168 q 489 214 455 168 l 489 508 q 392 565 455 565 q 304 510 330 565 q 279 366 279 455 l 279 351 q 303 216 279 264 q 391 168 328 168 m 359 760 l 359 865 l 830 865 l 830 760 l 359 760 z "},"e":{"ha":739,"x_min":43,"x_max":693,"o":"m 400 -14 q 212 32 292 -14 q 87 159 132 79 q 43 342 43 240 l 43 367 q 82 565 43 479 q 197 700 121 651 q 384 747 273 748 q 613 662 533 747 q 693 414 693 576 l 693 291 l 290 291 l 289 286 q 334 201 296 235 q 441 167 371 167 q 625 211 529 167 l 680 67 q 559 9 630 32 q 400 -14 488 -14 m 290 438 l 476 438 l 476 456 q 458 545 476 515 q 389 575 439 575 q 314 537 335 575 q 287 441 292 500 l 290 438 z "},"é":{"ha":739,"x_min":43,"x_max":693,"o":"m 400 -14 q 212 32 292 -14 q 87 159 132 79 q 43 342 43 240 l 43 367 q 82 565 43 479 q 197 700 121 651 q 384 747 273 748 q 613 662 533 747 q 693 414 693 576 l 693 291 l 290 291 l 289 286 q 334 201 296 235 q 441 167 371 167 q 625 211 529 167 l 680 67 q 559 9 630 32 q 400 -14 488 -14 m 290 438 l 476 438 l 476 456 q 458 545 476 515 q 389 575 439 575 q 314 537 335 575 q 287 441 292 500 l 290 438 m 237 873 l 378 1058 l 621 1058 l 623 1054 l 433 873 l 237 873 z "},"ĕ":{"ha":739,"x_min":43,"x_max":693,"o":"m 400 -14 q 212 32 292 -14 q 87 159 132 79 q 43 342 43 240 l 43 367 q 82 565 43 479 q 197 700 121 651 q 384 747 273 748 q 613 662 533 747 q 693 414 693 576 l 693 291 l 290 291 l 289 286 q 334 201 296 235 q 441 167 371 167 q 625 211 529 167 l 680 67 q 559 9 630 32 q 400 -14 488 -14 m 290 438 l 476 438 l 476 456 q 458 545 476 515 q 389 575 439 575 q 314 537 335 575 q 287 441 292 500 l 290 438 m 379 853 q 193 909 262 853 q 128 1054 123 966 l 130 1058 l 284 1058 q 307 1001 284 1024 q 379 979 330 979 q 450 1001 427 979 q 472 1058 472 1023 l 627 1058 l 629 1054 q 564 909 632 966 q 379 853 495 853 z "},"ě":{"ha":739,"x_min":43,"x_max":693,"o":"m 400 -14 q 212 32 292 -14 q 87 159 132 79 q 43 342 43 240 l 43 367 q 82 565 43 479 q 197 700 121 651 q 384 747 273 748 q 613 662 533 747 q 693 414 693 576 l 693 291 l 290 291 l 289 286 q 334 201 296 235 q 441 167 371 167 q 625 211 529 167 l 680 67 q 559 9 630 32 q 400 -14 488 -14 m 290 438 l 476 438 l 476 456 q 458 545 476 515 q 389 575 439 575 q 314 537 335 575 q 287 441 292 500 l 290 438 m 647 1058 l 647 1040 l 471 873 l 283 873 l 110 1043 l 110 1058 l 293 1058 l 378 962 l 467 1058 l 647 1058 z "},"ê":{"ha":739,"x_min":43,"x_max":693,"o":"m 400 -14 q 212 32 292 -14 q 87 159 132 79 q 43 342 43 240 l 43 367 q 82 565 43 479 q 197 700 121 651 q 384 747 273 748 q 613 662 533 747 q 693 414 693 576 l 693 291 l 290 291 l 289 286 q 334 201 296 235 q 441 167 371 167 q 625 211 529 167 l 680 67 q 559 9 630 32 q 400 -14 488 -14 m 290 438 l 476 438 l 476 456 q 458 545 476 515 q 389 575 439 575 q 314 537 335 575 q 287 441 292 500 l 290 438 m 110 873 l 110 890 l 286 1058 l 473 1058 l 647 888 l 647 873 l 464 873 l 379 969 l 290 873 l 110 873 z "},"ế":{"ha":739,"x_min":43,"x_max":789,"o":"m 400 -14 q 212 32 292 -14 q 87 159 132 79 q 43 342 43 240 l 43 367 q 82 565 43 479 q 197 700 121 651 q 384 747 273 748 q 613 662 533 747 q 693 414 693 576 l 693 291 l 290 291 l 289 286 q 334 201 296 235 q 441 167 371 167 q 625 211 529 167 l 680 67 q 559 9 630 32 q 400 -14 488 -14 m 290 438 l 476 438 l 476 456 q 458 545 476 515 q 389 575 439 575 q 314 537 335 575 q 287 441 292 500 l 290 438 m 524 1024 l 596 1175 l 788 1175 l 789 1171 l 651 1024 l 524 1024 m 109 846 l 109 863 l 286 1018 l 473 1018 l 646 861 l 646 846 l 462 846 l 378 930 l 290 846 l 109 846 z "},"ệ":{"ha":739,"x_min":43,"x_max":693,"o":"m 400 -14 q 212 32 292 -14 q 87 159 132 79 q 43 342 43 240 l 43 367 q 82 565 43 479 q 197 700 121 651 q 384 747 273 748 q 613 662 533 747 q 693 414 693 576 l 693 291 l 290 291 l 289 286 q 334 201 296 235 q 441 167 371 167 q 625 211 529 167 l 680 67 q 559 9 630 32 q 400 -14 488 -14 m 290 438 l 476 438 l 476 456 q 458 545 476 515 q 389 575 439 575 q 314 537 335 575 q 287 441 292 500 l 290 438 m 110 873 l 110 890 l 286 1058 l 473 1058 l 647 888 l 647 873 l 464 873 l 379 969 l 290 873 l 110 873 m 262 -282 l 262 -97 l 507 -97 l 507 -282 l 262 -282 z "},"ề":{"ha":739,"x_min":-33,"x_max":693,"o":"m 400 -14 q 212 32 292 -14 q 87 159 132 79 q 43 342 43 240 l 43 367 q 82 565 43 479 q 197 700 121 651 q 384 747 273 748 q 613 662 533 747 q 693 414 693 576 l 693 291 l 290 291 l 289 286 q 334 201 296 235 q 441 167 371 167 q 625 211 529 167 l 680 67 q 559 9 630 32 q 400 -14 488 -14 m 290 438 l 476 438 l 476 456 q 458 545 476 515 q 389 575 439 575 q 314 537 335 575 q 287 441 292 500 l 290 438 m 233 1024 l 106 1024 l -33 1171 l -31 1175 l 161 1175 l 233 1024 m 648 846 l 467 846 l 378 930 l 295 846 l 111 846 l 111 861 l 284 1018 l 471 1018 l 648 863 l 648 846 z "},"ể":{"ha":739,"x_min":43,"x_max":781,"o":"m 400 -14 q 212 32 292 -14 q 87 159 132 79 q 43 342 43 240 l 43 367 q 82 565 43 479 q 197 700 121 651 q 384 747 273 748 q 613 662 533 747 q 693 414 693 576 l 693 291 l 290 291 l 289 286 q 334 201 296 235 q 441 167 371 167 q 625 211 529 167 l 680 67 q 559 9 630 32 q 400 -14 488 -14 m 290 438 l 476 438 l 476 456 q 458 545 476 515 q 389 575 439 575 q 314 537 335 575 q 287 441 292 500 l 290 438 m 543 985 l 527 1064 q 591 1073 571 1065 q 610 1097 610 1081 q 529 1132 610 1132 l 534 1218 q 717 1190 654 1218 q 781 1111 781 1161 q 754 1053 781 1074 q 688 1027 728 1032 l 687 985 l 543 985 m 109 846 l 109 863 l 286 1018 l 473 1018 l 646 861 l 646 846 l 462 846 l 378 930 l 290 846 l 109 846 z "},"ễ":{"ha":739,"x_min":43,"x_max":693,"o":"m 400 -14 q 212 32 292 -14 q 87 159 132 79 q 43 342 43 240 l 43 367 q 82 565 43 479 q 197 700 121 651 q 384 747 273 748 q 613 662 533 747 q 693 414 693 576 l 693 291 l 290 291 l 289 286 q 334 201 296 235 q 441 167 371 167 q 625 211 529 167 l 680 67 q 559 9 630 32 q 400 -14 488 -14 m 290 438 l 476 438 l 476 456 q 458 545 476 515 q 389 575 439 575 q 314 537 335 575 q 287 441 292 500 l 290 438 m 233 1048 l 122 1080 q 144 1160 122 1123 q 201 1219 165 1197 q 276 1242 236 1242 q 341 1227 308 1242 q 405 1197 374 1212 q 457 1183 435 1183 q 499 1202 484 1183 q 513 1250 513 1222 l 623 1218 q 602 1136 623 1173 q 545 1077 580 1099 q 469 1055 510 1055 q 401 1070 434 1055 q 339 1100 368 1085 q 288 1115 311 1115 q 247 1095 260 1115 q 233 1048 233 1075 m 110 846 l 110 863 l 286 1018 l 473 1018 l 647 861 l 647 846 l 463 846 l 379 930 l 291 846 l 110 846 z "},"ë":{"ha":739,"x_min":43,"x_max":693,"o":"m 400 -14 q 212 32 292 -14 q 87 159 132 79 q 43 342 43 240 l 43 367 q 82 565 43 479 q 197 700 121 651 q 384 747 273 748 q 613 662 533 747 q 693 414 693 576 l 693 291 l 290 291 l 289 286 q 334 201 296 235 q 441 167 371 167 q 625 211 529 167 l 680 67 q 559 9 630 32 q 400 -14 488 -14 m 290 438 l 476 438 l 476 456 q 458 545 476 515 q 389 575 439 575 q 314 537 335 575 q 287 441 292 500 l 290 438 m 427 873 l 427 1058 l 648 1058 l 648 873 l 427 873 m 109 873 l 109 1058 l 330 1058 l 330 873 l 109 873 z "},"ė":{"ha":739,"x_min":43,"x_max":693,"o":"m 400 -14 q 212 32 292 -14 q 87 159 132 79 q 43 342 43 240 l 43 367 q 82 565 43 479 q 197 700 121 651 q 384 747 273 748 q 613 662 533 747 q 693 414 693 576 l 693 291 l 290 291 l 289 286 q 334 201 296 235 q 441 167 371 167 q 625 211 529 167 l 680 67 q 559 9 630 32 q 400 -14 488 -14 m 290 438 l 476 438 l 476 456 q 458 545 476 515 q 389 575 439 575 q 314 537 335 575 q 287 441 292 500 l 290 438 m 256 873 l 256 1058 l 500 1058 l 500 873 l 256 873 z "},"ẹ":{"ha":739,"x_min":43,"x_max":693,"o":"m 400 -14 q 212 32 292 -14 q 87 159 132 79 q 43 342 43 240 l 43 367 q 82 565 43 479 q 197 700 121 651 q 384 747 273 748 q 613 662 533 747 q 693 414 693 576 l 693 291 l 290 291 l 289 286 q 334 201 296 235 q 441 167 371 167 q 625 211 529 167 l 680 67 q 559 9 630 32 q 400 -14 488 -14 m 290 438 l 476 438 l 476 456 q 458 545 476 515 q 389 575 439 575 q 314 537 335 575 q 287 441 292 500 l 290 438 m 262 -282 l 262 -97 l 507 -97 l 507 -282 l 262 -282 z "},"è":{"ha":739,"x_min":43,"x_max":693,"o":"m 400 -14 q 212 32 292 -14 q 87 159 132 79 q 43 342 43 240 l 43 367 q 82 565 43 479 q 197 700 121 651 q 384 747 273 748 q 613 662 533 747 q 693 414 693 576 l 693 291 l 290 291 l 289 286 q 334 201 296 235 q 441 167 371 167 q 625 211 529 167 l 680 67 q 559 9 630 32 q 400 -14 488 -14 m 290 438 l 476 438 l 476 456 q 458 545 476 515 q 389 575 439 575 q 314 537 335 575 q 287 441 292 500 l 290 438 m 519 873 l 324 873 l 134 1054 l 136 1058 l 378 1058 l 519 873 z "},"ẻ":{"ha":739,"x_min":43,"x_max":693,"o":"m 400 -14 q 212 32 292 -14 q 87 159 132 79 q 43 342 43 240 l 43 367 q 82 565 43 479 q 197 700 121 651 q 384 747 273 748 q 613 662 533 747 q 693 414 693 576 l 693 291 l 290 291 l 289 286 q 334 201 296 235 q 441 167 371 167 q 625 211 529 167 l 680 67 q 559 9 630 32 q 400 -14 488 -14 m 290 438 l 476 438 l 476 456 q 458 545 476 515 q 389 575 439 575 q 314 537 335 575 q 287 441 292 500 l 290 438 m 271 851 l 254 937 q 324 948 302 938 q 345 979 345 958 q 322 1012 345 1002 q 256 1022 299 1022 l 261 1122 q 478 1087 403 1122 q 553 988 553 1052 q 523 923 553 947 q 452 892 494 899 l 451 851 l 271 851 z "},"ē":{"ha":739,"x_min":43,"x_max":693,"o":"m 400 -14 q 212 32 292 -14 q 87 159 132 79 q 43 342 43 240 l 43 367 q 82 565 43 479 q 197 700 121 651 q 384 747 273 748 q 613 662 533 747 q 693 414 693 576 l 693 291 l 290 291 l 289 286 q 334 201 296 235 q 441 167 371 167 q 625 211 529 167 l 680 67 q 559 9 630 32 q 400 -14 488 -14 m 290 438 l 476 438 l 476 456 q 458 545 476 515 q 389 575 439 575 q 314 537 335 575 q 287 441 292 500 l 290 438 m 128 873 l 128 1006 l 628 1006 l 628 873 l 128 873 z "},"ę":{"ha":739,"x_min":43,"x_max":693,"o":"m 400 -14 q 212 32 292 -14 q 87 159 132 79 q 43 342 43 240 l 43 367 q 82 565 43 479 q 197 700 121 651 q 384 747 273 748 q 613 662 533 747 q 693 414 693 576 l 693 291 l 290 291 l 289 286 q 334 201 296 235 q 441 167 371 167 q 625 211 529 167 l 680 67 q 559 9 630 32 q 400 -14 488 -14 m 290 438 l 476 438 l 476 456 q 458 545 476 515 q 389 575 439 575 q 314 537 335 575 q 287 441 292 500 l 290 438 m 541 -284 q 408 -243 460 -284 q 356 -129 356 -201 q 406 -15 356 -71 q 581 75 455 41 l 616 31 q 545 -28 565 2 q 526 -92 526 -58 q 539 -135 526 -122 q 583 -148 553 -148 q 611 -146 598 -148 q 633 -141 623 -144 l 658 -258 q 608 -277 635 -269 q 541 -284 580 -284 z "},"ẽ":{"ha":739,"x_min":43,"x_max":693,"o":"m 400 -14 q 212 32 292 -14 q 87 159 132 79 q 43 342 43 240 l 43 367 q 82 565 43 479 q 197 700 121 651 q 384 747 273 748 q 613 662 533 747 q 693 414 693 576 l 693 291 l 290 291 l 289 286 q 334 201 296 235 q 441 167 371 167 q 625 211 529 167 l 680 67 q 559 9 630 32 q 400 -14 488 -14 m 290 438 l 476 438 l 476 456 q 458 545 476 515 q 389 575 439 575 q 314 537 335 575 q 287 441 292 500 l 290 438 m 234 861 l 113 895 q 136 983 113 943 q 196 1048 159 1023 q 275 1072 233 1072 q 346 1056 310 1072 q 413 1024 381 1040 q 467 1008 445 1008 q 509 1029 495 1009 q 524 1080 524 1049 l 644 1046 q 622 957 644 997 q 562 892 599 916 q 481 868 524 868 q 409 884 444 868 q 342 917 373 901 q 289 933 312 933 q 248 912 261 933 q 234 861 234 890 z "},"ə":{"ha":760,"x_min":58,"x_max":720,"o":"m 378 -13 q 143 77 229 -13 q 58 320 58 166 l 58 443 l 473 443 l 473 448 q 428 533 467 499 q 320 567 389 567 q 229 557 272 567 q 127 523 185 547 l 71 667 q 197 725 119 701 q 362 749 275 749 q 551 703 471 749 q 675 575 631 656 q 720 392 720 494 l 720 367 q 680 169 720 254 q 565 35 641 83 q 378 -13 489 -13 m 376 168 q 447 201 425 168 q 475 293 469 235 l 473 296 l 290 296 l 290 278 q 376 168 290 168 z "},"f":{"ha":573,"x_min":38,"x_max":577,"o":"m 58 0 l 58 139 l 144 161 l 144 570 l 38 570 l 38 734 l 144 734 l 144 808 q 221 1004 144 935 q 436 1072 298 1072 q 513 1066 473 1072 q 577 1054 554 1061 l 559 878 q 475 889 519 889 q 382 808 382 889 l 382 734 l 552 734 l 552 570 l 382 570 l 382 161 l 513 139 l 513 0 l 58 0 z "},"g":{"ha":830,"x_min":41,"x_max":810,"o":"m 363 -296 q 231 -282 305 -296 q 101 -241 157 -268 l 139 -77 q 247 -109 193 -98 q 347 -120 302 -120 q 454 -80 420 -120 q 488 31 488 -39 l 488 65 q 417 6 458 27 q 325 -14 377 -14 q 172 31 235 -14 q 74 159 108 77 q 41 351 41 241 l 41 366 q 74 566 41 480 q 169 700 107 652 q 317 747 231 747 q 426 720 381 747 q 503 642 471 692 l 517 734 l 810 734 l 810 593 l 727 576 l 727 29 q 683 -142 727 -68 q 556 -256 638 -215 q 363 -296 475 -296 m 395 168 q 449 178 425 168 q 488 208 473 188 l 488 515 q 395 565 458 565 q 305 510 331 565 q 279 366 279 456 l 279 351 q 304 216 279 264 q 395 168 329 168 z "},"ğ":{"ha":830,"x_min":41,"x_max":810,"o":"m 363 -296 q 231 -282 305 -296 q 101 -241 157 -268 l 139 -77 q 247 -109 193 -98 q 347 -120 302 -120 q 454 -80 420 -120 q 488 31 488 -39 l 488 65 q 417 6 458 27 q 325 -14 377 -14 q 172 31 235 -14 q 74 159 108 77 q 41 351 41 241 l 41 366 q 74 566 41 480 q 169 700 107 652 q 317 747 231 747 q 426 720 381 747 q 503 642 471 692 l 517 734 l 810 734 l 810 593 l 727 576 l 727 29 q 683 -142 727 -68 q 556 -256 638 -215 q 363 -296 475 -296 m 395 168 q 449 178 425 168 q 488 208 473 188 l 488 515 q 395 565 458 565 q 305 510 331 565 q 279 366 279 456 l 279 351 q 304 216 279 264 q 395 168 329 168 m 405 853 q 219 909 288 853 q 154 1054 149 966 l 155 1058 l 310 1058 q 333 1001 310 1024 q 405 979 355 979 q 475 1001 453 979 q 498 1058 498 1023 l 653 1058 l 654 1054 q 589 909 658 966 q 405 853 521 853 z "},"ĝ":{"ha":830,"x_min":41,"x_max":810,"o":"m 363 -296 q 231 -282 305 -296 q 101 -241 157 -268 l 139 -77 q 247 -109 193 -98 q 347 -120 302 -120 q 454 -80 420 -120 q 488 31 488 -39 l 488 65 q 417 6 458 27 q 325 -14 377 -14 q 172 31 235 -14 q 74 159 108 77 q 41 351 41 241 l 41 366 q 74 566 41 480 q 169 700 107 652 q 317 747 231 747 q 426 720 381 747 q 503 642 471 692 l 517 734 l 810 734 l 810 593 l 727 576 l 727 29 q 683 -142 727 -68 q 556 -256 638 -215 q 363 -296 475 -296 m 395 168 q 449 178 425 168 q 488 208 473 188 l 488 515 q 395 565 458 565 q 305 510 331 565 q 279 366 279 456 l 279 351 q 304 216 279 264 q 395 168 329 168 m 136 873 l 136 890 l 312 1058 l 499 1058 l 673 888 l 673 873 l 490 873 l 405 969 l 315 873 l 136 873 z "},"ģ":{"ha":830,"x_min":41,"x_max":810,"o":"m 363 -296 q 231 -282 305 -296 q 101 -241 157 -268 l 139 -77 q 247 -109 193 -98 q 347 -120 302 -120 q 454 -80 420 -120 q 488 31 488 -39 l 488 65 q 417 6 458 27 q 325 -14 377 -14 q 172 31 235 -14 q 74 159 108 77 q 41 351 41 241 l 41 366 q 74 566 41 480 q 169 700 107 652 q 317 747 231 747 q 426 720 381 747 q 503 642 471 692 l 517 734 l 810 734 l 810 593 l 727 576 l 727 29 q 683 -142 727 -68 q 556 -256 638 -215 q 363 -296 475 -296 m 395 168 q 449 178 425 168 q 488 208 473 188 l 488 515 q 395 565 458 565 q 305 510 331 565 q 279 366 279 456 l 279 351 q 304 216 279 264 q 395 168 329 168 m 410 1143 l 522 1076 q 491 1010 502 1043 q 480 924 480 977 l 480 859 l 286 859 l 286 911 q 323 1040 286 977 q 410 1143 361 1103 z "},"ġ":{"ha":830,"x_min":41,"x_max":810,"o":"m 363 -296 q 231 -282 305 -296 q 101 -241 157 -268 l 139 -77 q 247 -109 193 -98 q 347 -120 302 -120 q 454 -80 420 -120 q 488 31 488 -39 l 488 65 q 417 6 458 27 q 325 -14 377 -14 q 172 31 235 -14 q 74 159 108 77 q 41 351 41 241 l 41 366 q 74 566 41 480 q 169 700 107 652 q 317 747 231 747 q 426 720 381 747 q 503 642 471 692 l 517 734 l 810 734 l 810 593 l 727 576 l 727 29 q 683 -142 727 -68 q 556 -256 638 -215 q 363 -296 475 -296 m 395 168 q 449 178 425 168 q 488 208 473 188 l 488 515 q 395 565 458 565 q 305 510 331 565 q 279 366 279 456 l 279 351 q 304 216 279 264 q 395 168 329 168 m 281 873 l 281 1058 l 526 1058 l 526 873 l 281 873 z "},"h":{"ha":878,"x_min":14,"x_max":869,"o":"m 31 0 l 31 139 l 117 161 l 117 897 l 14 918 l 14 1058 l 354 1058 l 354 643 q 435 720 387 692 q 549 747 484 747 q 719 672 654 747 q 783 438 783 596 l 783 161 l 869 139 l 869 0 l 475 0 l 475 139 l 545 161 l 545 439 q 521 538 545 511 q 452 565 497 565 q 354 519 386 565 l 354 161 l 424 139 l 424 0 l 31 0 z "},"ħ":{"ha":878,"x_min":14,"x_max":869,"o":"m 31 0 l 31 139 l 117 161 l 117 897 l 14 918 l 14 1058 l 354 1058 l 354 643 q 435 720 387 692 q 549 747 484 747 q 719 672 654 747 q 783 438 783 596 l 783 161 l 869 139 l 869 0 l 475 0 l 475 139 l 545 161 l 545 439 q 521 538 545 511 q 452 565 497 565 q 354 519 386 565 l 354 161 l 424 139 l 424 0 l 31 0 m 14 760 l 14 865 l 485 865 l 485 760 l 14 760 z "},"ĥ":{"ha":878,"x_min":-30,"x_max":869,"o":"m 31 0 l 31 139 l 117 161 l 117 897 l 14 918 l 14 1058 l 354 1058 l 354 643 q 435 720 387 692 q 549 747 484 747 q 719 672 654 747 q 783 438 783 596 l 783 161 l 869 139 l 869 0 l 475 0 l 475 139 l 545 161 l 545 439 q 521 538 545 511 q 452 565 497 565 q 354 519 386 565 l 354 161 l 424 139 l 424 0 l 31 0 m -30 1126 l -30 1144 l 146 1312 l 334 1312 l 507 1141 l 507 1126 l 324 1126 l 239 1223 l 150 1126 l -30 1126 z "},"i":{"ha":452,"x_min":15,"x_max":441,"o":"m 31 0 l 31 139 l 117 161 l 117 572 l 15 594 l 15 734 l 355 734 l 355 161 l 441 139 l 441 0 l 31 0 m 111 873 l 111 1058 l 355 1058 l 355 873 l 111 873 z "},"ı":{"ha":452,"x_min":15,"x_max":441,"o":"m 31 0 l 31 139 l 117 161 l 117 572 l 15 594 l 15 734 l 355 734 l 355 161 l 441 139 l 441 0 l 31 0 z "},"í":{"ha":452,"x_min":15,"x_max":477,"o":"m 31 0 l 31 139 l 117 161 l 117 572 l 15 594 l 15 734 l 355 734 l 355 161 l 441 139 l 441 0 l 31 0 m 92 873 l 233 1058 l 476 1058 l 477 1054 l 288 873 l 92 873 z "},"ĭ":{"ha":452,"x_min":-22,"x_max":487,"o":"m 31 0 l 31 139 l 117 161 l 117 572 l 15 594 l 15 734 l 355 734 l 355 161 l 441 139 l 441 0 l 31 0 m 234 853 q 48 909 117 853 q -17 1054 -22 966 l -16 1058 l 139 1058 q 162 1001 139 1024 q 234 979 184 979 q 304 1001 282 979 q 327 1058 327 1023 l 482 1058 l 484 1054 q 418 909 487 966 q 234 853 350 853 z "},"î":{"ha":452,"x_min":-35,"x_max":502,"o":"m 31 0 l 31 139 l 117 161 l 117 572 l 15 594 l 15 734 l 355 734 l 355 161 l 441 139 l 441 0 l 31 0 m -35 873 l -35 890 l 141 1058 l 328 1058 l 502 888 l 502 873 l 319 873 l 234 969 l 144 873 l -35 873 z "},"ï":{"ha":452,"x_min":-37,"x_max":503,"o":"m 31 0 l 31 139 l 117 161 l 117 572 l 15 594 l 15 734 l 355 734 l 355 161 l 441 139 l 441 0 l 31 0 m 281 873 l 281 1058 l 503 1058 l 503 873 l 281 873 m -37 873 l -37 1058 l 185 1058 l 185 873 l -37 873 z "},"ị":{"ha":452,"x_min":15,"x_max":441,"o":"m 31 0 l 31 139 l 117 161 l 117 572 l 15 594 l 15 734 l 355 734 l 355 161 l 441 139 l 441 0 l 31 0 m 111 873 l 111 1058 l 355 1058 l 355 873 l 111 873 m 111 -282 l 111 -97 l 355 -97 l 355 -282 l 111 -282 z "},"ì":{"ha":452,"x_min":-11,"x_max":441,"o":"m 31 0 l 31 139 l 117 161 l 117 572 l 15 594 l 15 734 l 355 734 l 355 161 l 441 139 l 441 0 l 31 0 m 374 873 l 179 873 l -11 1054 l -9 1058 l 233 1058 l 374 873 z "},"ỉ":{"ha":452,"x_min":15,"x_max":441,"o":"m 31 0 l 31 139 l 117 161 l 117 572 l 15 594 l 15 734 l 355 734 l 355 161 l 441 139 l 441 0 l 31 0 m 125 851 l 109 937 q 179 948 157 938 q 200 979 200 958 q 177 1012 200 1002 q 111 1022 154 1022 l 116 1122 q 333 1087 258 1122 q 408 988 408 1052 q 378 923 408 947 q 307 892 349 899 l 306 851 l 125 851 z "},"ĳ":{"ha":860,"x_min":15,"x_max":816,"o":"m 31 0 l 31 139 l 117 161 l 117 572 l 15 594 l 15 734 l 355 734 l 355 161 l 441 139 l 441 0 l 31 0 m 111 873 l 111 1058 l 355 1058 l 355 873 l 111 873 z "},"ī":{"ha":452,"x_min":-17,"x_max":483,"o":"m 31 0 l 31 139 l 117 161 l 117 572 l 15 594 l 15 734 l 355 734 l 355 161 l 441 139 l 441 0 l 31 0 m -17 873 l -17 1006 l 483 1006 l 483 873 l -17 873 z "},"į":{"ha":452,"x_min":15,"x_max":480,"o":"m 31 0 l 31 139 l 117 161 l 117 572 l 15 594 l 15 734 l 355 734 l 355 161 l 441 139 l 441 0 l 31 0 m 111 873 l 111 1058 l 355 1058 l 355 873 l 111 873 m 363 -284 q 232 -244 283 -284 q 181 -132 181 -204 q 215 -36 181 -84 q 332 42 249 13 l 441 0 q 370 -52 390 -28 q 351 -102 351 -76 q 406 -148 351 -148 q 433 -146 420 -148 q 456 -141 446 -144 l 480 -258 q 430 -277 458 -269 q 363 -284 402 -284 z "},"ĩ":{"ha":452,"x_min":-33,"x_max":499,"o":"m 31 0 l 31 139 l 117 161 l 117 572 l 15 594 l 15 734 l 355 734 l 355 161 l 441 139 l 441 0 l 31 0 m 89 861 l -33 895 q -9 983 -33 943 q 51 1048 14 1023 q 130 1072 88 1072 q 200 1056 165 1072 q 268 1024 236 1040 q 322 1008 300 1008 q 364 1029 350 1009 q 378 1080 378 1049 l 499 1046 q 476 957 499 997 q 416 892 454 916 q 336 868 379 868 q 263 884 299 868 q 197 917 228 901 q 144 933 167 933 q 102 912 116 933 q 89 861 89 890 z "},"j":{"ha":439,"x_min":-19,"x_max":374,"o":"m 92 -296 q 35 -294 60 -296 q -19 -286 9 -292 l -8 -106 q 23 -112 9 -110 q 58 -115 36 -115 q 137 -7 137 -115 l 137 572 l 34 594 l 34 734 l 374 734 l 374 -7 q 300 -221 374 -146 q 92 -296 226 -296 m 126 873 l 126 1058 l 371 1058 l 371 873 l 126 873 z "},"ȷ":{"ha":439,"x_min":-19,"x_max":374,"o":"m 92 -296 q 35 -294 60 -296 q -19 -286 9 -292 l -8 -106 q 23 -112 9 -110 q 58 -115 36 -115 q 137 -7 137 -115 l 137 572 l 34 594 l 34 734 l 374 734 l 374 -7 q 300 -221 374 -146 q 92 -296 226 -296 z "},"ǰ":{"ha":439,"x_min":-20,"x_max":517,"o":"m 92 -296 q 35 -294 60 -296 q -19 -286 9 -292 l -8 -106 q 23 -112 9 -110 q 58 -115 36 -115 q 137 -7 137 -115 l 137 572 l 34 594 l 34 734 l 374 734 l 374 -7 q 300 -221 374 -146 q 92 -296 226 -296 m 517 1058 l 517 1040 l 341 873 l 154 873 l -20 1043 l -20 1058 l 163 1058 l 248 962 l 338 1058 l 517 1058 z "},"ĵ":{"ha":439,"x_min":-20,"x_max":517,"o":"m 92 -296 q 35 -294 60 -296 q -19 -286 9 -292 l -8 -106 q 23 -112 9 -110 q 58 -115 36 -115 q 137 -7 137 -115 l 137 572 l 34 594 l 34 734 l 374 734 l 374 -7 q 300 -221 374 -146 q 92 -296 226 -296 m -20 873 l -20 890 l 157 1058 l 344 1058 l 517 888 l 517 873 l 334 873 l 250 969 l 160 873 l -20 873 z "},"k":{"ha":905,"x_min":8,"x_max":878,"o":"m 24 0 l 24 139 l 111 161 l 111 897 l 8 918 l 8 1058 l 348 1058 l 348 438 l 515 583 l 515 584 l 442 596 l 442 734 l 865 734 l 865 594 l 770 566 l 601 427 l 796 163 l 878 139 l 878 0 l 489 0 l 489 130 l 534 145 l 532 148 l 435 288 l 348 216 l 348 161 l 418 139 l 418 0 l 24 0 z "},"ķ":{"ha":905,"x_min":8,"x_max":878,"o":"m 24 0 l 24 139 l 111 161 l 111 897 l 8 918 l 8 1058 l 348 1058 l 348 438 l 515 583 l 515 584 l 442 596 l 442 734 l 865 734 l 865 594 l 770 566 l 601 427 l 796 163 l 878 139 l 878 0 l 489 0 l 489 130 l 534 145 l 532 148 l 435 288 l 348 216 l 348 161 l 418 139 l 418 0 l 24 0 m 430 -359 l 318 -292 q 349 -226 338 -259 q 360 -140 360 -193 l 360 -75 l 555 -75 l 555 -127 q 517 -256 555 -193 q 430 -359 479 -319 z "},"ĸ":{"ha":903,"x_min":17,"x_max":867,"o":"m 29 0 l 29 139 l 121 164 l 121 568 l 17 594 l 17 734 l 359 734 l 359 448 l 502 581 l 504 582 l 440 595 l 440 734 l 849 734 l 849 594 l 755 569 l 597 427 l 780 163 l 867 139 l 867 0 l 604 0 l 423 271 l 359 212 l 359 164 l 442 139 l 442 0 l 29 0 z "},"l":{"ha":443,"x_min":8,"x_max":435,"o":"m 24 0 l 24 139 l 111 161 l 111 897 l 8 918 l 8 1058 l 349 1058 l 349 161 l 435 139 l 435 0 l 24 0 z "},"ĺ":{"ha":443,"x_min":8,"x_max":476,"o":"m 24 0 l 24 139 l 111 161 l 111 897 l 8 918 l 8 1058 l 349 1058 l 349 161 l 435 139 l 435 0 l 24 0 m 91 1126 l 232 1312 l 475 1312 l 476 1308 l 286 1126 l 91 1126 z "},"ľ":{"ha":443,"x_min":8,"x_max":625,"o":"m 24 0 l 24 139 l 111 161 l 111 897 l 8 918 l 8 1058 l 349 1058 l 349 161 l 435 139 l 435 0 l 24 0 m 500 774 l 388 841 q 419 907 408 873 q 430 992 430 940 l 430 1058 l 625 1058 l 625 1006 q 587 877 625 940 q 500 774 549 814 z "},"ļ":{"ha":443,"x_min":8,"x_max":435,"o":"m 24 0 l 24 139 l 111 161 l 111 897 l 8 918 l 8 1058 l 349 1058 l 349 161 l 435 139 l 435 0 l 24 0 m 210 -359 l 98 -292 q 129 -226 118 -259 q 140 -140 140 -193 l 140 -75 l 334 -75 l 334 -127 q 297 -256 334 -193 q 210 -359 259 -319 z "},"ŀ":{"ha":443,"x_min":8,"x_max":662,"o":"m 24 0 l 24 139 l 111 161 l 111 897 l 8 918 l 8 1058 l 349 1058 l 349 161 l 435 139 l 435 0 l 24 0 z "},"ł":{"ha":443,"x_min":8,"x_max":439,"o":"m 24 0 l 24 139 l 111 161 l 111 897 l 8 918 l 8 1058 l 349 1058 l 349 161 l 435 139 l 435 0 l 24 0 m 24 385 l 24 530 l 439 657 l 439 512 l 24 385 z "},"m":{"ha":1275,"x_min":9,"x_max":1267,"o":"m 26 0 l 26 139 l 113 161 l 113 572 l 9 594 l 9 734 l 336 734 l 343 636 q 431 718 379 689 q 550 747 482 747 q 668 718 618 747 q 742 628 717 688 q 828 716 775 685 q 951 747 880 747 q 1119 675 1058 747 q 1180 454 1180 604 l 1180 161 l 1267 139 l 1267 0 l 873 0 l 873 139 l 943 161 l 943 454 q 923 542 943 519 q 865 565 903 565 q 764 519 803 565 l 764 161 l 825 139 l 825 0 l 467 0 l 467 139 l 528 161 l 528 454 q 508 542 528 519 q 449 565 488 565 q 349 518 388 565 l 349 161 l 419 139 l 419 0 l 26 0 z "},"ḿ":{"ha":1275,"x_min":9,"x_max":1267,"o":"m 26 0 l 26 139 l 113 161 l 113 572 l 9 594 l 9 734 l 336 734 l 343 636 q 431 718 379 689 q 550 747 482 747 q 668 718 618 747 q 742 628 717 688 q 828 716 775 685 q 951 747 880 747 q 1119 675 1058 747 q 1180 454 1180 604 l 1180 161 l 1267 139 l 1267 0 l 873 0 l 873 139 l 943 161 l 943 454 q 923 542 943 519 q 865 565 903 565 q 764 519 803 565 l 764 161 l 825 139 l 825 0 l 467 0 l 467 139 l 528 161 l 528 454 q 508 542 528 519 q 449 565 488 565 q 349 518 388 565 l 349 161 l 419 139 l 419 0 l 26 0 m 498 873 l 640 1058 l 882 1058 l 884 1054 l 694 873 l 498 873 z "},"n":{"ha":871,"x_min":9,"x_max":863,"o":"m 26 0 l 26 139 l 111 161 l 111 572 l 9 594 l 9 734 l 336 734 l 345 631 q 434 717 381 686 q 555 747 488 747 q 718 677 659 747 q 778 456 778 608 l 778 161 l 863 139 l 863 0 l 470 0 l 470 139 l 539 161 l 539 456 q 515 540 539 515 q 448 565 492 565 q 349 517 385 565 l 349 161 l 410 139 l 410 0 l 26 0 z "},"ń":{"ha":871,"x_min":9,"x_max":863,"o":"m 26 0 l 26 139 l 111 161 l 111 572 l 9 594 l 9 734 l 336 734 l 345 631 q 434 717 381 686 q 555 747 488 747 q 718 677 659 747 q 778 456 778 608 l 778 161 l 863 139 l 863 0 l 470 0 l 470 139 l 539 161 l 539 456 q 515 540 539 515 q 448 565 492 565 q 349 517 385 565 l 349 161 l 410 139 l 410 0 l 26 0 m 295 873 l 436 1058 l 679 1058 l 680 1054 l 490 873 l 295 873 z "},"ŉ":{"ha":871,"x_min":7,"x_max":863,"o":"m 26 0 l 26 139 l 111 161 l 111 572 l 9 594 l 9 734 l 336 734 l 345 631 q 434 717 381 686 q 555 747 488 747 q 718 677 659 747 q 778 456 778 608 l 778 161 l 863 139 l 863 0 l 470 0 l 470 139 l 539 161 l 539 456 q 515 540 539 515 q 448 565 492 565 q 349 517 385 565 l 349 161 l 410 139 l 410 0 l 26 0 z "},"ň":{"ha":871,"x_min":9,"x_max":863,"o":"m 26 0 l 26 139 l 111 161 l 111 572 l 9 594 l 9 734 l 336 734 l 345 631 q 434 717 381 686 q 555 747 488 747 q 718 677 659 747 q 778 456 778 608 l 778 161 l 863 139 l 863 0 l 470 0 l 470 139 l 539 161 l 539 456 q 515 540 539 515 q 448 565 492 565 q 349 517 385 565 l 349 161 l 410 139 l 410 0 l 26 0 m 705 1058 l 705 1040 l 528 873 l 341 873 l 168 1043 l 168 1058 l 351 1058 l 435 962 l 525 1058 l 705 1058 z "},"ņ":{"ha":871,"x_min":9,"x_max":863,"o":"m 26 0 l 26 139 l 111 161 l 111 572 l 9 594 l 9 734 l 336 734 l 345 631 q 434 717 381 686 q 555 747 488 747 q 718 677 659 747 q 778 456 778 608 l 778 161 l 863 139 l 863 0 l 470 0 l 470 139 l 539 161 l 539 456 q 515 540 539 515 q 448 565 492 565 q 349 517 385 565 l 349 161 l 410 139 l 410 0 l 26 0 m 414 -359 l 302 -292 q 333 -226 322 -259 q 344 -140 344 -193 l 344 -75 l 538 -75 l 538 -127 q 501 -256 538 -193 q 414 -359 463 -319 z "},"ŋ":{"ha":878,"x_min":48,"x_max":817,"o":"m 535 -296 q 477 -294 504 -296 q 423 -286 451 -292 l 433 -106 q 464 -112 452 -110 q 497 -115 477 -115 q 578 -7 578 -115 l 578 441 q 558 537 578 509 q 496 565 537 565 q 388 506 428 565 l 388 161 l 473 139 l 473 0 l 64 0 l 64 139 l 150 161 l 150 572 l 48 594 l 48 734 l 374 734 l 383 629 q 473 716 419 685 q 595 747 527 747 q 757 674 697 747 q 817 441 817 601 l 817 -7 q 742 -221 817 -145 q 535 -296 667 -296 z "},"ñ":{"ha":871,"x_min":9,"x_max":863,"o":"m 26 0 l 26 139 l 111 161 l 111 572 l 9 594 l 9 734 l 336 734 l 345 631 q 434 717 381 686 q 555 747 488 747 q 718 677 659 747 q 778 456 778 608 l 778 161 l 863 139 l 863 0 l 470 0 l 470 139 l 539 161 l 539 456 q 515 540 539 515 q 448 565 492 565 q 349 517 385 565 l 349 161 l 410 139 l 410 0 l 26 0 m 292 861 l 170 895 q 193 983 170 943 q 254 1048 216 1023 q 333 1072 291 1072 q 403 1056 368 1072 q 471 1024 439 1040 q 525 1008 503 1008 q 567 1029 553 1009 q 581 1080 581 1049 l 702 1046 q 679 957 702 997 q 619 892 656 916 q 538 868 582 868 q 466 884 502 868 q 400 917 431 901 q 347 933 370 933 q 305 912 319 933 q 292 861 292 890 z "},"o":{"ha":796,"x_min":41,"x_max":755,"o":"m 399 -14 q 206 33 286 -14 q 83 164 125 80 q 41 360 41 249 l 41 374 q 83 568 41 484 q 205 700 125 652 q 398 747 286 747 q 591 700 511 747 q 713 568 671 652 q 755 374 755 484 l 755 360 q 713 165 755 250 q 591 33 671 81 q 399 -14 511 -14 m 399 167 q 492 219 465 167 q 519 360 519 271 l 519 374 q 491 513 519 460 q 398 566 464 566 q 306 513 332 566 q 279 374 279 460 l 279 360 q 306 218 279 270 q 399 167 332 167 z "},"ó":{"ha":796,"x_min":41,"x_max":755,"o":"m 399 -14 q 206 33 286 -14 q 83 164 125 80 q 41 360 41 249 l 41 374 q 83 568 41 484 q 205 700 125 652 q 398 747 286 747 q 591 700 511 747 q 713 568 671 652 q 755 374 755 484 l 755 360 q 713 165 755 250 q 591 33 671 81 q 399 -14 511 -14 m 399 167 q 492 219 465 167 q 519 360 519 271 l 519 374 q 491 513 519 460 q 398 566 464 566 q 306 513 332 566 q 279 374 279 460 l 279 360 q 306 218 279 270 q 399 167 332 167 m 258 873 l 399 1058 l 642 1058 l 643 1054 l 453 873 l 258 873 z "},"ŏ":{"ha":796,"x_min":41,"x_max":755,"o":"m 399 -14 q 206 33 286 -14 q 83 164 125 80 q 41 360 41 249 l 41 374 q 83 568 41 484 q 205 700 125 652 q 398 747 286 747 q 591 700 511 747 q 713 568 671 652 q 755 374 755 484 l 755 360 q 713 165 755 250 q 591 33 671 81 q 399 -14 511 -14 m 399 167 q 492 219 465 167 q 519 360 519 271 l 519 374 q 491 513 519 460 q 398 566 464 566 q 306 513 332 566 q 279 374 279 460 l 279 360 q 306 218 279 270 q 399 167 332 167 m 399 853 q 213 909 283 853 q 149 1054 144 966 l 150 1058 l 304 1058 q 327 1001 304 1024 q 399 979 350 979 q 470 1001 448 979 q 492 1058 492 1023 l 648 1058 l 649 1054 q 584 909 652 966 q 399 853 515 853 z "},"ô":{"ha":796,"x_min":41,"x_max":755,"o":"m 399 -14 q 206 33 286 -14 q 83 164 125 80 q 41 360 41 249 l 41 374 q 83 568 41 484 q 205 700 125 652 q 398 747 286 747 q 591 700 511 747 q 713 568 671 652 q 755 374 755 484 l 755 360 q 713 165 755 250 q 591 33 671 81 q 399 -14 511 -14 m 399 167 q 492 219 465 167 q 519 360 519 271 l 519 374 q 491 513 519 460 q 398 566 464 566 q 306 513 332 566 q 279 374 279 460 l 279 360 q 306 218 279 270 q 399 167 332 167 m 130 873 l 130 890 l 307 1058 l 494 1058 l 667 888 l 667 873 l 484 873 l 399 969 l 310 873 l 130 873 z "},"ố":{"ha":796,"x_min":41,"x_max":810,"o":"m 399 -14 q 206 33 286 -14 q 83 164 125 80 q 41 360 41 249 l 41 374 q 83 568 41 484 q 205 700 125 652 q 398 747 286 747 q 591 700 511 747 q 713 568 671 652 q 755 374 755 484 l 755 360 q 713 165 755 250 q 591 33 671 81 q 399 -14 511 -14 m 399 167 q 492 219 465 167 q 519 360 519 271 l 519 374 q 491 513 519 460 q 398 566 464 566 q 306 513 332 566 q 279 374 279 460 l 279 360 q 306 218 279 270 q 399 167 332 167 m 545 1024 l 616 1175 l 808 1175 l 810 1171 l 671 1024 l 545 1024 m 130 846 l 130 863 l 306 1018 l 493 1018 l 667 861 l 667 846 l 482 846 l 399 930 l 311 846 l 130 846 z "},"ộ":{"ha":796,"x_min":41,"x_max":755,"o":"m 399 -14 q 206 33 286 -14 q 83 164 125 80 q 41 360 41 249 l 41 374 q 83 568 41 484 q 205 700 125 652 q 398 747 286 747 q 591 700 511 747 q 713 568 671 652 q 755 374 755 484 l 755 360 q 713 165 755 250 q 591 33 671 81 q 399 -14 511 -14 m 399 167 q 492 219 465 167 q 519 360 519 271 l 519 374 q 491 513 519 460 q 398 566 464 566 q 306 513 332 566 q 279 374 279 460 l 279 360 q 306 218 279 270 q 399 167 332 167 m 130 873 l 130 890 l 307 1058 l 494 1058 l 667 888 l 667 873 l 484 873 l 399 969 l 310 873 l 130 873 m 276 -282 l 276 -97 l 521 -97 l 521 -282 l 276 -282 z "},"ồ":{"ha":796,"x_min":-12,"x_max":755,"o":"m 399 -14 q 206 33 286 -14 q 83 164 125 80 q 41 360 41 249 l 41 374 q 83 568 41 484 q 205 700 125 652 q 398 747 286 747 q 591 700 511 747 q 713 568 671 652 q 755 374 755 484 l 755 360 q 713 165 755 250 q 591 33 671 81 q 399 -14 511 -14 m 399 167 q 492 219 465 167 q 519 360 519 271 l 519 374 q 491 513 519 460 q 398 566 464 566 q 306 513 332 566 q 279 374 279 460 l 279 360 q 306 218 279 270 q 399 167 332 167 m 253 1024 l 126 1024 l -12 1171 l -11 1175 l 181 1175 l 253 1024 m 668 846 l 487 846 l 399 930 l 315 846 l 131 846 l 131 861 l 304 1018 l 492 1018 l 668 863 l 668 846 z "},"ổ":{"ha":796,"x_min":41,"x_max":801,"o":"m 399 -14 q 206 33 286 -14 q 83 164 125 80 q 41 360 41 249 l 41 374 q 83 568 41 484 q 205 700 125 652 q 398 747 286 747 q 591 700 511 747 q 713 568 671 652 q 755 374 755 484 l 755 360 q 713 165 755 250 q 591 33 671 81 q 399 -14 511 -14 m 399 167 q 492 219 465 167 q 519 360 519 271 l 519 374 q 491 513 519 460 q 398 566 464 566 q 306 513 332 566 q 279 374 279 460 l 279 360 q 306 218 279 270 q 399 167 332 167 m 564 985 l 547 1064 q 611 1073 591 1065 q 631 1097 631 1081 q 549 1132 631 1132 l 554 1218 q 738 1190 674 1218 q 801 1111 801 1161 q 774 1053 801 1074 q 708 1027 748 1032 l 707 985 l 564 985 m 130 846 l 130 863 l 306 1018 l 493 1018 l 667 861 l 667 846 l 482 846 l 399 930 l 311 846 l 130 846 z "},"ỗ":{"ha":796,"x_min":41,"x_max":755,"o":"m 399 -14 q 206 33 286 -14 q 83 164 125 80 q 41 360 41 249 l 41 374 q 83 568 41 484 q 205 700 125 652 q 398 747 286 747 q 591 700 511 747 q 713 568 671 652 q 755 374 755 484 l 755 360 q 713 165 755 250 q 591 33 671 81 q 399 -14 511 -14 m 399 167 q 492 219 465 167 q 519 360 519 271 l 519 374 q 491 513 519 460 q 398 566 464 566 q 306 513 332 566 q 279 374 279 460 l 279 360 q 306 218 279 270 q 399 167 332 167 m 253 1048 l 142 1080 q 164 1160 142 1123 q 221 1219 186 1197 q 296 1242 256 1242 q 361 1227 328 1242 q 425 1197 395 1212 q 477 1183 455 1183 q 519 1202 505 1183 q 534 1250 534 1222 l 644 1218 q 622 1136 644 1173 q 565 1077 600 1099 q 489 1055 530 1055 q 421 1070 454 1055 q 360 1100 389 1085 q 308 1115 331 1115 q 267 1095 281 1115 q 253 1048 253 1075 m 130 846 l 130 863 l 307 1018 l 494 1018 l 667 861 l 667 846 l 483 846 l 399 930 l 311 846 l 130 846 z "},"ö":{"ha":796,"x_min":41,"x_max":755,"o":"m 399 -14 q 206 33 286 -14 q 83 164 125 80 q 41 360 41 249 l 41 374 q 83 568 41 484 q 205 700 125 652 q 398 747 286 747 q 591 700 511 747 q 713 568 671 652 q 755 374 755 484 l 755 360 q 713 165 755 250 q 591 33 671 81 q 399 -14 511 -14 m 399 167 q 492 219 465 167 q 519 360 519 271 l 519 374 q 491 513 519 460 q 398 566 464 566 q 306 513 332 566 q 279 374 279 460 l 279 360 q 306 218 279 270 q 399 167 332 167 m 447 873 l 447 1058 l 669 1058 l 669 873 l 447 873 m 129 873 l 129 1058 l 351 1058 l 351 873 l 129 873 z "},"ọ":{"ha":796,"x_min":41,"x_max":755,"o":"m 399 -14 q 206 33 286 -14 q 83 164 125 80 q 41 360 41 249 l 41 374 q 83 568 41 484 q 205 700 125 652 q 398 747 286 747 q 591 700 511 747 q 713 568 671 652 q 755 374 755 484 l 755 360 q 713 165 755 250 q 591 33 671 81 q 399 -14 511 -14 m 399 167 q 492 219 465 167 q 519 360 519 271 l 519 374 q 491 513 519 460 q 398 566 464 566 q 306 513 332 566 q 279 374 279 460 l 279 360 q 306 218 279 270 q 399 167 332 167 m 276 -282 l 276 -97 l 521 -97 l 521 -282 l 276 -282 z "},"ò":{"ha":796,"x_min":41,"x_max":755,"o":"m 399 -14 q 206 33 286 -14 q 83 164 125 80 q 41 360 41 249 l 41 374 q 83 568 41 484 q 205 700 125 652 q 398 747 286 747 q 591 700 511 747 q 713 568 671 652 q 755 374 755 484 l 755 360 q 713 165 755 250 q 591 33 671 81 q 399 -14 511 -14 m 399 167 q 492 219 465 167 q 519 360 519 271 l 519 374 q 491 513 519 460 q 398 566 464 566 q 306 513 332 566 q 279 374 279 460 l 279 360 q 306 218 279 270 q 399 167 332 167 m 540 873 l 345 873 l 155 1054 l 156 1058 l 399 1058 l 540 873 z "},"ỏ":{"ha":796,"x_min":41,"x_max":755,"o":"m 399 -14 q 206 33 286 -14 q 83 164 125 80 q 41 360 41 249 l 41 374 q 83 568 41 484 q 205 700 125 652 q 398 747 286 747 q 591 700 511 747 q 713 568 671 652 q 755 374 755 484 l 755 360 q 713 165 755 250 q 591 33 671 81 q 399 -14 511 -14 m 399 167 q 492 219 465 167 q 519 360 519 271 l 519 374 q 491 513 519 460 q 398 566 464 566 q 306 513 332 566 q 279 374 279 460 l 279 360 q 306 218 279 270 q 399 167 332 167 m 291 851 l 275 937 q 344 948 323 938 q 366 979 366 958 q 342 1012 366 1002 q 277 1022 319 1022 l 281 1122 q 498 1087 423 1122 q 573 988 573 1052 q 544 923 573 947 q 472 892 514 899 l 471 851 l 291 851 z "},"ơ":{"ha":831,"x_min":41,"x_max":827,"o":"m 399 -14 q 206 33 286 -14 q 83 164 125 80 q 41 360 41 249 l 41 374 q 83 568 41 484 q 205 700 125 652 q 398 747 286 747 q 591 700 511 747 q 713 568 671 652 q 755 374 755 484 l 755 360 q 713 165 755 250 q 591 33 671 81 q 399 -14 511 -14 m 399 167 q 492 219 465 167 q 519 360 519 271 l 519 374 q 491 513 519 460 q 398 566 464 566 q 306 513 332 566 q 279 374 279 460 l 279 360 q 306 218 279 270 q 399 167 332 167 m 589 536 l 589 640 q 657 685 638 640 q 676 797 676 731 l 827 797 q 771 609 827 683 q 589 536 714 536 z "},"ớ":{"ha":831,"x_min":41,"x_max":827,"o":"m 399 -14 q 206 33 286 -14 q 83 164 125 80 q 41 360 41 249 l 41 374 q 83 568 41 484 q 205 700 125 652 q 398 747 286 747 q 591 700 511 747 q 713 568 671 652 q 755 374 755 484 l 755 360 q 713 165 755 250 q 591 33 671 81 q 399 -14 511 -14 m 399 167 q 492 219 465 167 q 519 360 519 271 l 519 374 q 491 513 519 460 q 398 566 464 566 q 306 513 332 566 q 279 374 279 460 l 279 360 q 306 218 279 270 q 399 167 332 167 m 589 536 l 589 640 q 657 685 638 640 q 676 797 676 731 l 827 797 q 771 609 827 683 q 589 536 714 536 m 258 873 l 399 1058 l 642 1058 l 643 1054 l 453 873 l 258 873 z "},"ợ":{"ha":831,"x_min":41,"x_max":827,"o":"m 399 -14 q 206 33 286 -14 q 83 164 125 80 q 41 360 41 249 l 41 374 q 83 568 41 484 q 205 700 125 652 q 398 747 286 747 q 591 700 511 747 q 713 568 671 652 q 755 374 755 484 l 755 360 q 713 165 755 250 q 591 33 671 81 q 399 -14 511 -14 m 399 167 q 492 219 465 167 q 519 360 519 271 l 519 374 q 491 513 519 460 q 398 566 464 566 q 306 513 332 566 q 279 374 279 460 l 279 360 q 306 218 279 270 q 399 167 332 167 m 589 536 l 589 640 q 657 685 638 640 q 676 797 676 731 l 827 797 q 771 609 827 683 q 589 536 714 536 m 276 -282 l 276 -97 l 521 -97 l 521 -282 l 276 -282 z "},"ờ":{"ha":831,"x_min":41,"x_max":827,"o":"m 399 -14 q 206 33 286 -14 q 83 164 125 80 q 41 360 41 249 l 41 374 q 83 568 41 484 q 205 700 125 652 q 398 747 286 747 q 591 700 511 747 q 713 568 671 652 q 755 374 755 484 l 755 360 q 713 165 755 250 q 591 33 671 81 q 399 -14 511 -14 m 399 167 q 492 219 465 167 q 519 360 519 271 l 519 374 q 491 513 519 460 q 398 566 464 566 q 306 513 332 566 q 279 374 279 460 l 279 360 q 306 218 279 270 q 399 167 332 167 m 589 536 l 589 640 q 657 685 638 640 q 676 797 676 731 l 827 797 q 771 609 827 683 q 589 536 714 536 m 540 873 l 345 873 l 155 1054 l 156 1058 l 399 1058 l 540 873 z "},"ở":{"ha":831,"x_min":41,"x_max":827,"o":"m 399 -14 q 206 33 286 -14 q 83 164 125 80 q 41 360 41 249 l 41 374 q 83 568 41 484 q 205 700 125 652 q 398 747 286 747 q 591 700 511 747 q 713 568 671 652 q 755 374 755 484 l 755 360 q 713 165 755 250 q 591 33 671 81 q 399 -14 511 -14 m 399 167 q 492 219 465 167 q 519 360 519 271 l 519 374 q 491 513 519 460 q 398 566 464 566 q 306 513 332 566 q 279 374 279 460 l 279 360 q 306 218 279 270 q 399 167 332 167 m 589 536 l 589 640 q 657 685 638 640 q 676 797 676 731 l 827 797 q 771 609 827 683 q 589 536 714 536 m 291 851 l 275 937 q 344 948 323 938 q 366 979 366 958 q 342 1012 366 1002 q 277 1022 319 1022 l 281 1122 q 498 1087 423 1122 q 573 988 573 1052 q 544 923 573 947 q 472 892 514 899 l 471 851 l 291 851 z "},"ỡ":{"ha":831,"x_min":41,"x_max":827,"o":"m 399 -14 q 206 33 286 -14 q 83 164 125 80 q 41 360 41 249 l 41 374 q 83 568 41 484 q 205 700 125 652 q 398 747 286 747 q 591 700 511 747 q 713 568 671 652 q 755 374 755 484 l 755 360 q 713 165 755 250 q 591 33 671 81 q 399 -14 511 -14 m 399 167 q 492 219 465 167 q 519 360 519 271 l 519 374 q 491 513 519 460 q 398 566 464 566 q 306 513 332 566 q 279 374 279 460 l 279 360 q 306 218 279 270 q 399 167 332 167 m 589 536 l 589 640 q 657 685 638 640 q 676 797 676 731 l 827 797 q 771 609 827 683 q 589 536 714 536 m 254 861 l 133 895 q 156 983 133 943 q 216 1048 179 1023 q 296 1072 254 1072 q 366 1056 330 1072 q 433 1024 401 1040 q 488 1008 465 1008 q 530 1029 515 1009 q 544 1080 544 1049 l 665 1046 q 642 957 665 997 q 582 892 619 916 q 501 868 545 868 q 429 884 465 868 q 363 917 393 901 q 309 933 332 933 q 268 912 281 933 q 254 861 254 890 z "},"ő":{"ha":796,"x_min":41,"x_max":760,"o":"m 399 -14 q 206 33 286 -14 q 83 164 125 80 q 41 360 41 249 l 41 374 q 83 568 41 484 q 205 700 125 652 q 398 747 286 747 q 591 700 511 747 q 713 568 671 652 q 755 374 755 484 l 755 360 q 713 165 755 250 q 591 33 671 81 q 399 -14 511 -14 m 399 167 q 492 219 465 167 q 519 360 519 271 l 519 374 q 491 513 519 460 q 398 566 464 566 q 306 513 332 566 q 279 374 279 460 l 279 360 q 306 218 279 270 q 399 167 332 167 m 391 873 l 389 876 l 551 1058 l 760 1058 l 760 1054 l 564 873 l 391 873 m 464 1055 l 301 873 l 124 873 l 266 1058 l 463 1058 l 464 1055 z "},"ō":{"ha":796,"x_min":41,"x_max":755,"o":"m 399 -14 q 206 33 286 -14 q 83 164 125 80 q 41 360 41 249 l 41 374 q 83 568 41 484 q 205 700 125 652 q 398 747 286 747 q 591 700 511 747 q 713 568 671 652 q 755 374 755 484 l 755 360 q 713 165 755 250 q 591 33 671 81 q 399 -14 511 -14 m 399 167 q 492 219 465 167 q 519 360 519 271 l 519 374 q 491 513 519 460 q 398 566 464 566 q 306 513 332 566 q 279 374 279 460 l 279 360 q 306 218 279 270 q 399 167 332 167 m 149 873 l 149 1006 l 648 1006 l 648 873 l 149 873 z "},"ø":{"ha":796,"x_min":41,"x_max":755,"o":"m 399 -14 q 206 33 286 -14 q 83 164 125 80 q 41 360 41 249 l 41 374 q 83 568 41 484 q 205 700 125 652 q 398 747 286 747 q 591 700 511 747 q 713 568 671 652 q 755 374 755 484 l 755 360 q 713 165 755 250 q 591 33 671 81 q 399 -14 511 -14 m 399 167 q 492 219 465 167 q 519 360 519 271 l 519 374 q 491 513 519 460 q 398 566 464 566 q 306 513 332 566 q 279 374 279 460 l 279 360 q 306 218 279 270 q 399 167 332 167 m 112 -96 l 562 829 l 685 829 l 236 -96 l 112 -96 z "},"ǿ":{"ha":796,"x_min":41,"x_max":755,"o":"m 399 -14 q 206 33 286 -14 q 83 164 125 80 q 41 360 41 249 l 41 374 q 83 568 41 484 q 205 700 125 652 q 398 747 286 747 q 591 700 511 747 q 713 568 671 652 q 755 374 755 484 l 755 360 q 713 165 755 250 q 591 33 671 81 q 399 -14 511 -14 m 399 167 q 492 219 465 167 q 519 360 519 271 l 519 374 q 491 513 519 460 q 398 566 464 566 q 306 513 332 566 q 279 374 279 460 l 279 360 q 306 218 279 270 q 399 167 332 167 m 112 -96 l 562 829 l 685 829 l 236 -96 l 112 -96 m 258 873 l 399 1058 l 642 1058 l 643 1054 l 453 873 l 258 873 z "},"õ":{"ha":796,"x_min":41,"x_max":755,"o":"m 399 -14 q 206 33 286 -14 q 83 164 125 80 q 41 360 41 249 l 41 374 q 83 568 41 484 q 205 700 125 652 q 398 747 286 747 q 591 700 511 747 q 713 568 671 652 q 755 374 755 484 l 755 360 q 713 165 755 250 q 591 33 671 81 q 399 -14 511 -14 m 399 167 q 492 219 465 167 q 519 360 519 271 l 519 374 q 491 513 519 460 q 398 566 464 566 q 306 513 332 566 q 279 374 279 460 l 279 360 q 306 218 279 270 q 399 167 332 167 m 254 861 l 133 895 q 156 983 133 943 q 216 1048 179 1023 q 296 1072 254 1072 q 366 1056 330 1072 q 433 1024 401 1040 q 488 1008 465 1008 q 530 1029 515 1009 q 544 1080 544 1049 l 665 1046 q 642 957 665 997 q 582 892 619 916 q 501 868 545 868 q 429 884 465 868 q 363 917 393 901 q 309 933 332 933 q 268 912 281 933 q 254 861 254 890 z "},"œ":{"ha":1232,"x_min":41,"x_max":1186,"o":"m 399 -14 q 206 33 286 -14 q 83 164 125 80 q 41 360 41 249 l 41 374 q 83 568 41 484 q 205 700 125 652 q 398 747 286 747 q 637 656 541 747 q 866 747 722 747 q 1101 658 1015 747 q 1186 414 1186 568 l 1186 291 l 770 291 l 770 286 q 815 201 777 235 q 916 167 853 167 q 989 171 960 167 q 1048 185 1019 175 q 1117 211 1078 195 l 1173 67 q 1047 9 1125 33 q 882 -14 969 -14 q 640 77 732 -14 q 399 -14 551 -14 m 399 167 q 491 219 464 167 q 518 360 518 271 l 518 374 q 491 513 518 460 q 398 566 464 566 q 306 513 332 566 q 279 374 279 460 l 279 360 q 306 218 279 270 q 399 167 332 167 m 770 438 l 955 438 l 955 456 q 866 566 955 566 q 797 533 819 566 q 769 441 774 500 l 770 438 z "},"p":{"ha":859,"x_min":31,"x_max":819,"o":"m 43 -282 l 43 -142 l 134 -121 l 134 572 l 31 594 l 31 734 l 357 734 l 365 651 q 437 722 395 697 q 540 747 479 747 q 689 700 627 747 q 785 566 751 652 q 819 366 819 479 l 819 351 q 785 159 819 241 q 688 31 751 77 q 536 -14 625 -14 q 370 66 431 -14 l 370 -121 l 453 -142 l 453 -282 l 43 -282 m 466 167 q 555 215 530 167 q 581 351 581 264 l 581 366 q 554 510 581 456 q 465 565 527 565 q 370 511 399 565 l 370 212 q 466 167 399 167 z "},"þ":{"ha":855,"x_min":27,"x_max":814,"o":"m 43 -282 l 43 -142 l 130 -121 l 130 897 l 27 918 l 27 1058 l 367 1058 l 367 660 q 437 725 396 702 q 536 747 477 747 q 686 700 623 747 q 781 566 748 652 q 814 366 814 479 l 814 351 q 781 159 814 241 q 684 31 747 77 q 532 -14 621 -14 q 367 66 426 -14 l 367 -121 l 453 -142 l 453 -282 l 43 -282 m 460 167 q 551 215 526 167 q 576 351 576 264 l 576 366 q 549 510 576 456 q 459 565 522 565 q 405 552 430 565 q 367 511 380 538 l 367 211 q 405 178 380 189 q 460 167 430 167 z "},"q":{"ha":791,"x_min":41,"x_max":808,"o":"m 371 -282 l 371 -146 l 490 -121 l 490 67 q 321 -14 429 -14 q 170 31 233 -14 q 74 159 107 77 q 41 351 41 241 l 41 366 q 74 566 41 480 q 170 700 107 652 q 319 747 232 747 q 428 719 384 747 q 503 641 471 691 l 522 734 l 728 734 l 728 -121 l 808 -141 l 808 -282 l 371 -282 m 393 167 q 449 178 424 167 q 490 212 475 189 l 490 511 q 395 566 458 566 q 305 511 331 566 q 279 366 279 456 l 279 351 q 303 215 279 263 q 393 167 328 167 z "},"r":{"ha":614,"x_min":47,"x_max":608,"o":"m 63 0 l 63 139 l 149 161 l 149 572 l 47 594 l 47 734 l 373 734 l 378 644 l 380 626 q 531 747 427 747 q 566 745 546 747 q 608 736 587 743 l 584 518 l 482 523 q 427 515 447 524 q 387 485 407 506 l 387 161 l 472 139 l 472 0 l 63 0 z "},"ŕ":{"ha":614,"x_min":47,"x_max":608,"o":"m 63 0 l 63 139 l 149 161 l 149 572 l 47 594 l 47 734 l 373 734 l 378 644 l 380 626 q 531 747 427 747 q 566 745 546 747 q 608 736 587 743 l 584 518 l 482 523 q 427 515 447 524 q 387 485 407 506 l 387 161 l 472 139 l 472 0 l 63 0 m 166 873 l 307 1058 l 550 1058 l 551 1054 l 361 873 l 166 873 z "},"ř":{"ha":614,"x_min":39,"x_max":608,"o":"m 63 0 l 63 139 l 149 161 l 149 572 l 47 594 l 47 734 l 373 734 l 378 644 l 380 626 q 531 747 427 747 q 566 745 546 747 q 608 736 587 743 l 584 518 l 482 523 q 427 515 447 524 q 387 485 407 506 l 387 161 l 472 139 l 472 0 l 63 0 m 576 1058 l 576 1040 l 399 873 l 212 873 l 39 1043 l 39 1058 l 222 1058 l 307 962 l 396 1058 l 576 1058 z "},"ŗ":{"ha":614,"x_min":47,"x_max":608,"o":"m 63 0 l 63 139 l 149 161 l 149 572 l 47 594 l 47 734 l 373 734 l 378 644 l 380 626 q 531 747 427 747 q 566 745 546 747 q 608 736 587 743 l 584 518 l 482 523 q 427 515 447 524 q 387 485 407 506 l 387 161 l 472 139 l 472 0 l 63 0 m 285 -359 l 173 -292 q 204 -226 193 -259 q 215 -140 215 -193 l 215 -75 l 410 -75 l 410 -127 q 372 -256 410 -193 q 285 -359 334 -319 z "},"s":{"ha":706,"x_min":62,"x_max":667,"o":"m 363 -14 q 202 2 277 -14 q 66 45 127 18 l 64 274 l 224 274 l 252 168 q 288 152 266 159 q 342 146 311 146 q 421 161 399 146 q 443 201 443 177 q 418 243 443 224 q 313 277 393 262 q 123 363 184 302 q 62 515 62 424 q 90 629 62 576 q 183 713 119 681 q 357 745 248 745 q 514 731 439 745 q 637 695 589 717 l 637 474 l 477 474 l 456 569 q 377 591 425 591 q 311 574 332 591 q 290 532 290 558 q 313 488 290 510 q 414 449 336 467 q 603 372 540 421 q 667 221 667 322 q 589 49 667 113 q 363 -14 511 -14 z "},"ś":{"ha":706,"x_min":62,"x_max":667,"o":"m 363 -14 q 202 2 277 -14 q 66 45 127 18 l 64 274 l 224 274 l 252 168 q 288 152 266 159 q 342 146 311 146 q 421 161 399 146 q 443 201 443 177 q 418 243 443 224 q 313 277 393 262 q 123 363 184 302 q 62 515 62 424 q 90 629 62 576 q 183 713 119 681 q 357 745 248 745 q 514 731 439 745 q 637 695 589 717 l 637 474 l 477 474 l 456 569 q 377 591 425 591 q 311 574 332 591 q 290 532 290 558 q 313 488 290 510 q 414 449 336 467 q 603 372 540 421 q 667 221 667 322 q 589 49 667 113 q 363 -14 511 -14 m 212 873 l 353 1058 l 596 1058 l 597 1054 l 408 873 l 212 873 z "},"š":{"ha":706,"x_min":62,"x_max":667,"o":"m 363 -14 q 202 2 277 -14 q 66 45 127 18 l 64 274 l 224 274 l 252 168 q 288 152 266 159 q 342 146 311 146 q 421 161 399 146 q 443 201 443 177 q 418 243 443 224 q 313 277 393 262 q 123 363 184 302 q 62 515 62 424 q 90 629 62 576 q 183 713 119 681 q 357 745 248 745 q 514 731 439 745 q 637 695 589 717 l 637 474 l 477 474 l 456 569 q 377 591 425 591 q 311 574 332 591 q 290 532 290 558 q 313 488 290 510 q 414 449 336 467 q 603 372 540 421 q 667 221 667 322 q 589 49 667 113 q 363 -14 511 -14 m 622 1058 l 622 1040 l 446 873 l 258 873 l 85 1043 l 85 1058 l 268 1058 l 353 962 l 442 1058 l 622 1058 z "},"ş":{"ha":706,"x_min":62,"x_max":667,"o":"m 363 -14 q 202 2 277 -14 q 66 45 127 18 l 64 274 l 224 274 l 252 168 q 288 152 266 159 q 342 146 311 146 q 421 161 399 146 q 443 201 443 177 q 418 243 443 224 q 313 277 393 262 q 123 363 184 302 q 62 515 62 424 q 90 629 62 576 q 183 713 119 681 q 357 745 248 745 q 514 731 439 745 q 637 695 589 717 l 637 474 l 477 474 l 456 569 q 377 591 425 591 q 311 574 332 591 q 290 532 290 558 q 313 488 290 510 q 414 449 336 467 q 603 372 540 421 q 667 221 667 322 q 589 49 667 113 q 363 -14 511 -14 m 263 -321 l 258 -192 q 315 -180 294 -192 q 335 -144 335 -169 q 312 -106 335 -117 q 242 -94 288 -96 l 262 7 l 440 7 l 433 -37 q 511 -71 479 -44 q 542 -150 542 -98 q 469 -275 542 -228 q 263 -321 396 -321 z "},"ŝ":{"ha":706,"x_min":62,"x_max":667,"o":"m 363 -14 q 202 2 277 -14 q 66 45 127 18 l 64 274 l 224 274 l 252 168 q 288 152 266 159 q 342 146 311 146 q 421 161 399 146 q 443 201 443 177 q 418 243 443 224 q 313 277 393 262 q 123 363 184 302 q 62 515 62 424 q 90 629 62 576 q 183 713 119 681 q 357 745 248 745 q 514 731 439 745 q 637 695 589 717 l 637 474 l 477 474 l 456 569 q 377 591 425 591 q 311 574 332 591 q 290 532 290 558 q 313 488 290 510 q 414 449 336 467 q 603 372 540 421 q 667 221 667 322 q 589 49 667 113 q 363 -14 511 -14 m 85 873 l 85 890 l 261 1058 l 448 1058 l 622 888 l 622 873 l 439 873 l 354 969 l 264 873 l 85 873 z "},"ș":{"ha":706,"x_min":62,"x_max":667,"o":"m 363 -14 q 202 2 277 -14 q 66 45 127 18 l 64 274 l 224 274 l 252 168 q 288 152 266 159 q 342 146 311 146 q 421 161 399 146 q 443 201 443 177 q 418 243 443 224 q 313 277 393 262 q 123 363 184 302 q 62 515 62 424 q 90 629 62 576 q 183 713 119 681 q 357 745 248 745 q 514 731 439 745 q 637 695 589 717 l 637 474 l 477 474 l 456 569 q 377 591 425 591 q 311 574 332 591 q 290 532 290 558 q 313 488 290 510 q 414 449 336 467 q 603 372 540 421 q 667 221 667 322 q 589 49 667 113 q 363 -14 511 -14 m 331 -359 l 219 -292 q 250 -226 239 -259 q 261 -140 261 -193 l 261 -75 l 456 -75 l 456 -127 q 418 -256 456 -193 q 331 -359 380 -319 z "},"ß":{"ha":909,"x_min":20,"x_max":901,"o":"m 573 -14 q 479 -6 524 -14 q 409 18 435 1 l 450 195 q 503 175 472 183 q 575 167 534 167 q 639 189 613 167 q 665 250 665 212 q 637 321 665 286 q 573 393 609 356 q 509 473 536 431 q 481 569 481 516 q 496 650 481 608 q 527 731 512 691 q 543 805 543 770 q 522 866 543 841 q 460 891 501 891 q 387 854 413 891 q 360 757 360 817 l 360 0 l 20 0 l 20 139 l 121 161 l 121 755 q 213 990 121 909 q 463 1072 304 1072 q 628 1040 557 1072 q 741 949 700 1008 q 781 812 781 891 q 766 728 781 768 q 734 653 750 688 q 719 585 719 617 q 737 526 719 552 q 783 474 755 499 q 837 418 810 448 q 883 347 865 388 q 901 250 901 307 q 573 -14 901 -14 z "},"ſ":{"ha":519,"x_min":24,"x_max":519,"o":"m 24 0 l 24 139 l 110 161 l 110 808 q 188 1004 110 935 q 400 1072 265 1072 q 462 1068 432 1072 q 519 1058 492 1065 l 504 882 q 468 889 484 887 q 437 890 452 890 q 348 808 348 890 l 348 161 l 450 139 l 450 0 l 24 0 z "},"t":{"ha":500,"x_min":18,"x_max":472,"o":"m 345 -16 q 169 46 229 -16 q 109 240 109 107 l 109 570 l 18 570 l 18 734 l 109 734 l 109 915 l 346 915 l 346 734 l 466 734 l 466 570 l 346 570 l 346 241 q 362 191 346 205 q 407 176 378 176 q 431 178 419 176 q 456 181 444 179 l 472 3 q 345 -16 408 -16 z "},"ŧ":{"ha":500,"x_min":6,"x_max":477,"o":"m 345 -16 q 169 46 229 -16 q 109 240 109 107 l 109 570 l 18 570 l 18 734 l 109 734 l 109 915 l 346 915 l 346 734 l 466 734 l 466 570 l 346 570 l 346 241 q 362 191 346 205 q 407 176 378 176 q 431 178 419 176 q 456 181 444 179 l 472 3 q 345 -16 408 -16 m 6 408 l 6 513 l 477 513 l 477 408 l 6 408 z "},"ť":{"ha":500,"x_min":18,"x_max":621,"o":"m 345 -16 q 169 46 229 -16 q 109 240 109 107 l 109 570 l 18 570 l 18 734 l 109 734 l 109 915 l 346 915 l 346 734 l 466 734 l 466 570 l 346 570 l 346 241 q 362 191 346 205 q 407 176 378 176 q 431 178 419 176 q 456 181 444 179 l 472 3 q 345 -16 408 -16 m 496 774 l 385 841 q 416 907 405 873 q 427 992 427 940 l 427 1058 l 621 1058 l 621 1006 q 584 877 621 940 q 496 774 546 814 z "},"ţ":{"ha":500,"x_min":18,"x_max":472,"o":"m 345 -16 q 169 46 229 -16 q 109 240 109 107 l 109 570 l 18 570 l 18 734 l 109 734 l 109 915 l 346 915 l 346 734 l 466 734 l 466 570 l 346 570 l 346 241 q 362 191 346 205 q 407 176 378 176 q 431 178 419 176 q 456 181 444 179 l 472 3 q 345 -16 408 -16 m 146 -321 l 142 -192 q 198 -180 178 -192 q 218 -144 218 -169 q 195 -106 218 -117 q 125 -94 172 -96 l 146 7 l 323 7 l 317 -37 q 394 -71 363 -44 q 425 -150 425 -98 q 352 -275 425 -228 q 146 -321 279 -321 z "},"ț":{"ha":500,"x_min":18,"x_max":472,"o":"m 345 -16 q 169 46 229 -16 q 109 240 109 107 l 109 570 l 18 570 l 18 734 l 109 734 l 109 915 l 346 915 l 346 734 l 466 734 l 466 570 l 346 570 l 346 241 q 362 191 346 205 q 407 176 378 176 q 431 178 419 176 q 456 181 444 179 l 472 3 q 345 -16 408 -16 m 214 -359 l 102 -292 q 134 -226 123 -259 q 144 -140 144 -193 l 144 -75 l 339 -75 l 339 -127 q 301 -256 339 -193 q 214 -359 264 -319 z "},"u":{"ha":877,"x_min":19,"x_max":855,"o":"m 342 -14 q 163 58 228 -14 q 98 280 98 130 l 98 572 l 19 594 l 19 734 l 336 734 l 336 279 q 427 168 336 168 q 479 178 453 168 q 526 208 505 188 l 526 572 l 446 594 l 446 734 l 764 734 l 764 161 l 855 139 l 855 0 l 557 0 l 541 83 q 342 -14 468 -14 z "},"ú":{"ha":877,"x_min":19,"x_max":855,"o":"m 342 -14 q 163 58 228 -14 q 98 280 98 130 l 98 572 l 19 594 l 19 734 l 336 734 l 336 279 q 427 168 336 168 q 479 178 453 168 q 526 208 505 188 l 526 572 l 446 594 l 446 734 l 764 734 l 764 161 l 855 139 l 855 0 l 557 0 l 541 83 q 342 -14 468 -14 m 296 873 l 437 1058 l 680 1058 l 681 1054 l 491 873 l 296 873 z "},"ŭ":{"ha":877,"x_min":19,"x_max":855,"o":"m 342 -14 q 163 58 228 -14 q 98 280 98 130 l 98 572 l 19 594 l 19 734 l 336 734 l 336 279 q 427 168 336 168 q 479 178 453 168 q 526 208 505 188 l 526 572 l 446 594 l 446 734 l 764 734 l 764 161 l 855 139 l 855 0 l 557 0 l 541 83 q 342 -14 468 -14 m 437 853 q 251 909 321 853 q 186 1054 182 966 l 188 1058 l 342 1058 q 365 1001 342 1024 q 437 979 388 979 q 508 1001 486 979 q 530 1058 530 1023 l 686 1058 l 687 1054 q 622 909 690 966 q 437 853 553 853 z "},"û":{"ha":877,"x_min":19,"x_max":855,"o":"m 342 -14 q 163 58 228 -14 q 98 280 98 130 l 98 572 l 19 594 l 19 734 l 336 734 l 336 279 q 427 168 336 168 q 479 178 453 168 q 526 208 505 188 l 526 572 l 446 594 l 446 734 l 764 734 l 764 161 l 855 139 l 855 0 l 557 0 l 541 83 q 342 -14 468 -14 m 168 873 l 168 890 l 345 1058 l 532 1058 l 705 888 l 705 873 l 522 873 l 437 969 l 348 873 l 168 873 z "},"ü":{"ha":877,"x_min":19,"x_max":855,"o":"m 342 -14 q 163 58 228 -14 q 98 280 98 130 l 98 572 l 19 594 l 19 734 l 336 734 l 336 279 q 427 168 336 168 q 479 178 453 168 q 526 208 505 188 l 526 572 l 446 594 l 446 734 l 764 734 l 764 161 l 855 139 l 855 0 l 557 0 l 541 83 q 342 -14 468 -14 m 485 873 l 485 1058 l 707 1058 l 707 873 l 485 873 m 167 873 l 167 1058 l 389 1058 l 389 873 l 167 873 z "},"ụ":{"ha":877,"x_min":19,"x_max":855,"o":"m 342 -14 q 163 58 228 -14 q 98 280 98 130 l 98 572 l 19 594 l 19 734 l 336 734 l 336 279 q 427 168 336 168 q 479 178 453 168 q 526 208 505 188 l 526 572 l 446 594 l 446 734 l 764 734 l 764 161 l 855 139 l 855 0 l 557 0 l 541 83 q 342 -14 468 -14 m 314 -282 l 314 -97 l 559 -97 l 559 -282 l 314 -282 z "},"ù":{"ha":877,"x_min":19,"x_max":855,"o":"m 342 -14 q 163 58 228 -14 q 98 280 98 130 l 98 572 l 19 594 l 19 734 l 336 734 l 336 279 q 427 168 336 168 q 479 178 453 168 q 526 208 505 188 l 526 572 l 446 594 l 446 734 l 764 734 l 764 161 l 855 139 l 855 0 l 557 0 l 541 83 q 342 -14 468 -14 m 578 873 l 382 873 l 193 1054 l 194 1058 l 437 1058 l 578 873 z "},"ủ":{"ha":877,"x_min":19,"x_max":855,"o":"m 342 -14 q 163 58 228 -14 q 98 280 98 130 l 98 572 l 19 594 l 19 734 l 336 734 l 336 279 q 427 168 336 168 q 479 178 453 168 q 526 208 505 188 l 526 572 l 446 594 l 446 734 l 764 734 l 764 161 l 855 139 l 855 0 l 557 0 l 541 83 q 342 -14 468 -14 m 329 851 l 313 937 q 382 948 361 938 q 404 979 404 958 q 380 1012 404 1002 q 315 1022 357 1022 l 319 1122 q 536 1087 461 1122 q 611 988 611 1052 q 582 923 611 947 q 510 892 552 899 l 509 851 l 329 851 z "},"ư":{"ha":964,"x_min":19,"x_max":970,"o":"m 342 -14 q 163 58 228 -14 q 98 280 98 130 l 98 572 l 19 594 l 19 734 l 336 734 l 336 279 q 427 168 336 168 q 479 178 453 168 q 526 208 505 188 l 526 572 l 446 594 l 446 734 l 764 734 l 764 161 l 855 139 l 855 0 l 557 0 l 541 83 q 342 -14 468 -14 m 731 536 l 731 640 q 800 685 781 640 q 819 797 819 731 l 970 797 q 913 609 970 683 q 731 536 857 536 z "},"ứ":{"ha":964,"x_min":19,"x_max":970,"o":"m 342 -14 q 163 58 228 -14 q 98 280 98 130 l 98 572 l 19 594 l 19 734 l 336 734 l 336 279 q 427 168 336 168 q 479 178 453 168 q 526 208 505 188 l 526 572 l 446 594 l 446 734 l 764 734 l 764 161 l 855 139 l 855 0 l 557 0 l 541 83 q 342 -14 468 -14 m 731 536 l 731 640 q 800 685 781 640 q 819 797 819 731 l 970 797 q 913 609 970 683 q 731 536 857 536 m 296 873 l 437 1058 l 680 1058 l 681 1054 l 491 873 l 296 873 z "},"ự":{"ha":964,"x_min":19,"x_max":970,"o":"m 342 -14 q 163 58 228 -14 q 98 280 98 130 l 98 572 l 19 594 l 19 734 l 336 734 l 336 279 q 427 168 336 168 q 479 178 453 168 q 526 208 505 188 l 526 572 l 446 594 l 446 734 l 764 734 l 764 161 l 855 139 l 855 0 l 557 0 l 541 83 q 342 -14 468 -14 m 731 536 l 731 640 q 800 685 781 640 q 819 797 819 731 l 970 797 q 913 609 970 683 q 731 536 857 536 m 314 -282 l 314 -97 l 559 -97 l 559 -282 l 314 -282 z "},"ừ":{"ha":964,"x_min":19,"x_max":970,"o":"m 342 -14 q 163 58 228 -14 q 98 280 98 130 l 98 572 l 19 594 l 19 734 l 336 734 l 336 279 q 427 168 336 168 q 479 178 453 168 q 526 208 505 188 l 526 572 l 446 594 l 446 734 l 764 734 l 764 161 l 855 139 l 855 0 l 557 0 l 541 83 q 342 -14 468 -14 m 731 536 l 731 640 q 800 685 781 640 q 819 797 819 731 l 970 797 q 913 609 970 683 q 731 536 857 536 m 578 873 l 382 873 l 193 1054 l 194 1058 l 437 1058 l 578 873 z "},"ử":{"ha":964,"x_min":19,"x_max":970,"o":"m 342 -14 q 163 58 228 -14 q 98 280 98 130 l 98 572 l 19 594 l 19 734 l 336 734 l 336 279 q 427 168 336 168 q 479 178 453 168 q 526 208 505 188 l 526 572 l 446 594 l 446 734 l 764 734 l 764 161 l 855 139 l 855 0 l 557 0 l 541 83 q 342 -14 468 -14 m 731 536 l 731 640 q 800 685 781 640 q 819 797 819 731 l 970 797 q 913 609 970 683 q 731 536 857 536 m 329 851 l 313 937 q 382 948 361 938 q 404 979 404 958 q 380 1012 404 1002 q 315 1022 357 1022 l 319 1122 q 536 1087 461 1122 q 611 988 611 1052 q 582 923 611 947 q 510 892 552 899 l 509 851 l 329 851 z "},"ữ":{"ha":964,"x_min":19,"x_max":970,"o":"m 342 -14 q 163 58 228 -14 q 98 280 98 130 l 98 572 l 19 594 l 19 734 l 336 734 l 336 279 q 427 168 336 168 q 479 178 453 168 q 526 208 505 188 l 526 572 l 446 594 l 446 734 l 764 734 l 764 161 l 855 139 l 855 0 l 557 0 l 541 83 q 342 -14 468 -14 m 731 536 l 731 640 q 800 685 781 640 q 819 797 819 731 l 970 797 q 913 609 970 683 q 731 536 857 536 m 292 861 l 171 895 q 194 983 171 943 q 254 1048 217 1023 q 334 1072 292 1072 q 404 1056 368 1072 q 471 1024 439 1040 q 526 1008 503 1008 q 568 1029 553 1009 q 582 1080 582 1049 l 703 1046 q 680 957 703 997 q 620 892 657 916 q 539 868 583 868 q 467 884 503 868 q 401 917 431 901 q 347 933 370 933 q 306 912 319 933 q 292 861 292 890 z "},"ű":{"ha":877,"x_min":19,"x_max":855,"o":"m 342 -14 q 163 58 228 -14 q 98 280 98 130 l 98 572 l 19 594 l 19 734 l 336 734 l 336 279 q 427 168 336 168 q 479 178 453 168 q 526 208 505 188 l 526 572 l 446 594 l 446 734 l 764 734 l 764 161 l 855 139 l 855 0 l 557 0 l 541 83 q 342 -14 468 -14 m 429 873 l 427 876 l 589 1058 l 798 1058 l 798 1054 l 602 873 l 429 873 m 502 1055 l 339 873 l 162 873 l 304 1058 l 500 1058 l 502 1055 z "},"ū":{"ha":877,"x_min":19,"x_max":855,"o":"m 342 -14 q 163 58 228 -14 q 98 280 98 130 l 98 572 l 19 594 l 19 734 l 336 734 l 336 279 q 427 168 336 168 q 479 178 453 168 q 526 208 505 188 l 526 572 l 446 594 l 446 734 l 764 734 l 764 161 l 855 139 l 855 0 l 557 0 l 541 83 q 342 -14 468 -14 m 186 873 l 186 1006 l 686 1006 l 686 873 l 186 873 z "},"ų":{"ha":877,"x_min":19,"x_max":895,"o":"m 342 -14 q 163 58 228 -14 q 98 280 98 130 l 98 572 l 19 594 l 19 734 l 336 734 l 336 279 q 427 168 336 168 q 479 178 453 168 q 526 208 505 188 l 526 572 l 446 594 l 446 734 l 764 734 l 764 161 l 855 139 l 855 0 l 557 0 l 541 83 q 342 -14 468 -14 m 778 -284 q 647 -244 698 -284 q 595 -132 595 -204 q 629 -36 595 -84 q 747 42 663 13 l 855 0 q 785 -52 804 -28 q 765 -102 765 -76 q 820 -148 765 -148 q 847 -146 835 -148 q 870 -141 860 -144 l 895 -258 q 844 -277 872 -269 q 778 -284 817 -284 z "},"ů":{"ha":877,"x_min":19,"x_max":855,"o":"m 342 -14 q 163 58 228 -14 q 98 280 98 130 l 98 572 l 19 594 l 19 734 l 336 734 l 336 279 q 427 168 336 168 q 479 178 453 168 q 526 208 505 188 l 526 572 l 446 594 l 446 734 l 764 734 l 764 161 l 855 139 l 855 0 l 557 0 l 541 83 q 342 -14 468 -14 m 438 834 q 316 878 365 834 q 268 988 268 921 q 317 1100 268 1055 q 438 1145 366 1145 q 557 1099 509 1145 q 606 988 606 1054 q 557 878 606 921 q 438 834 509 834 m 438 925 q 481 942 466 925 q 497 988 497 959 q 481 1035 497 1017 q 438 1052 466 1052 q 393 1035 411 1052 q 376 988 376 1017 q 393 942 376 959 q 438 925 410 925 z "},"ũ":{"ha":877,"x_min":19,"x_max":855,"o":"m 342 -14 q 163 58 228 -14 q 98 280 98 130 l 98 572 l 19 594 l 19 734 l 336 734 l 336 279 q 427 168 336 168 q 479 178 453 168 q 526 208 505 188 l 526 572 l 446 594 l 446 734 l 764 734 l 764 161 l 855 139 l 855 0 l 557 0 l 541 83 q 342 -14 468 -14 m 292 861 l 171 895 q 194 983 171 943 q 254 1048 217 1023 q 334 1072 292 1072 q 404 1056 368 1072 q 471 1024 439 1040 q 526 1008 503 1008 q 568 1029 553 1009 q 582 1080 582 1049 l 703 1046 q 680 957 703 997 q 620 892 657 916 q 539 868 583 868 q 467 884 503 868 q 401 917 431 901 q 347 933 370 933 q 306 912 319 933 q 292 861 292 890 z "},"v":{"ha":863,"x_min":14,"x_max":852,"o":"m 292 0 l 95 581 l 14 594 l 14 734 l 399 734 l 399 595 l 334 581 l 412 301 l 427 245 l 431 245 l 449 301 l 551 581 l 467 595 l 467 734 l 852 734 l 852 594 l 768 578 l 545 0 l 292 0 z "},"w":{"ha":1235,"x_min":14,"x_max":1221,"o":"m 265 0 l 109 573 l 14 594 l 14 734 l 401 734 l 401 595 l 332 580 l 379 345 l 387 307 l 391 307 l 402 345 l 547 734 l 692 734 l 835 334 l 845 302 l 849 302 l 858 334 l 924 578 l 842 595 l 842 734 l 1221 734 l 1221 594 l 1133 574 l 949 0 l 758 0 l 632 315 l 615 373 l 611 373 l 595 315 l 479 0 l 265 0 z "},"ẃ":{"ha":1235,"x_min":14,"x_max":1221,"o":"m 265 0 l 109 573 l 14 594 l 14 734 l 401 734 l 401 595 l 332 580 l 379 345 l 387 307 l 391 307 l 402 345 l 547 734 l 692 734 l 835 334 l 845 302 l 849 302 l 858 334 l 924 578 l 842 595 l 842 734 l 1221 734 l 1221 594 l 1133 574 l 949 0 l 758 0 l 632 315 l 615 373 l 611 373 l 595 315 l 479 0 l 265 0 m 477 873 l 618 1058 l 861 1058 l 862 1054 l 672 873 l 477 873 z "},"ŵ":{"ha":1235,"x_min":14,"x_max":1221,"o":"m 265 0 l 109 573 l 14 594 l 14 734 l 401 734 l 401 595 l 332 580 l 379 345 l 387 307 l 391 307 l 402 345 l 547 734 l 692 734 l 835 334 l 845 302 l 849 302 l 858 334 l 924 578 l 842 595 l 842 734 l 1221 734 l 1221 594 l 1133 574 l 949 0 l 758 0 l 632 315 l 615 373 l 611 373 l 595 315 l 479 0 l 265 0 m 349 873 l 349 890 l 526 1058 l 713 1058 l 886 888 l 886 873 l 703 873 l 618 969 l 529 873 l 349 873 z "},"ẅ":{"ha":1235,"x_min":14,"x_max":1221,"o":"m 265 0 l 109 573 l 14 594 l 14 734 l 401 734 l 401 595 l 332 580 l 379 345 l 387 307 l 391 307 l 402 345 l 547 734 l 692 734 l 835 334 l 845 302 l 849 302 l 858 334 l 924 578 l 842 595 l 842 734 l 1221 734 l 1221 594 l 1133 574 l 949 0 l 758 0 l 632 315 l 615 373 l 611 373 l 595 315 l 479 0 l 265 0 m 666 873 l 666 1058 l 888 1058 l 888 873 l 666 873 m 348 873 l 348 1058 l 570 1058 l 570 873 l 348 873 z "},"ẁ":{"ha":1235,"x_min":14,"x_max":1221,"o":"m 265 0 l 109 573 l 14 594 l 14 734 l 401 734 l 401 595 l 332 580 l 379 345 l 387 307 l 391 307 l 402 345 l 547 734 l 692 734 l 835 334 l 845 302 l 849 302 l 858 334 l 924 578 l 842 595 l 842 734 l 1221 734 l 1221 594 l 1133 574 l 949 0 l 758 0 l 632 315 l 615 373 l 611 373 l 595 315 l 479 0 l 265 0 m 759 873 l 564 873 l 374 1054 l 375 1058 l 618 1058 l 759 873 z "},"x":{"ha":943,"x_min":16,"x_max":927,"o":"m 16 0 l 16 139 l 117 149 l 322 366 l 133 585 l 35 594 l 35 734 l 445 734 l 445 603 l 398 593 l 477 484 l 559 593 l 505 603 l 505 734 l 898 734 l 898 594 l 812 585 l 631 378 l 828 149 l 927 139 l 927 0 l 511 0 l 511 130 l 559 140 l 475 245 l 393 139 l 445 130 l 445 0 l 16 0 z "},"y":{"ha":911,"x_min":14,"x_max":900,"o":"m 269 -296 q 141 -277 208 -296 l 170 -106 q 222 -113 195 -113 q 299 -97 265 -113 q 341 -48 332 -81 l 348 -22 l 112 580 l 14 594 l 14 734 l 454 734 l 454 594 l 363 581 l 462 283 l 463 278 l 467 278 l 583 583 l 499 594 l 499 734 l 900 734 l 900 594 l 813 582 l 538 -107 q 486 -200 519 -157 q 399 -270 452 -243 q 269 -296 347 -296 z "},"ý":{"ha":911,"x_min":14,"x_max":900,"o":"m 269 -296 q 141 -277 208 -296 l 170 -106 q 222 -113 195 -113 q 299 -97 265 -113 q 341 -48 332 -81 l 348 -22 l 112 580 l 14 594 l 14 734 l 454 734 l 454 594 l 363 581 l 462 283 l 463 278 l 467 278 l 583 583 l 499 594 l 499 734 l 900 734 l 900 594 l 813 582 l 538 -107 q 486 -200 519 -157 q 399 -270 452 -243 q 269 -296 347 -296 m 319 873 l 460 1058 l 703 1058 l 704 1054 l 514 873 l 319 873 z "},"ŷ":{"ha":911,"x_min":14,"x_max":900,"o":"m 269 -296 q 141 -277 208 -296 l 170 -106 q 222 -113 195 -113 q 299 -97 265 -113 q 341 -48 332 -81 l 348 -22 l 112 580 l 14 594 l 14 734 l 454 734 l 454 594 l 363 581 l 462 283 l 463 278 l 467 278 l 583 583 l 499 594 l 499 734 l 900 734 l 900 594 l 813 582 l 538 -107 q 486 -200 519 -157 q 399 -270 452 -243 q 269 -296 347 -296 m 191 873 l 191 890 l 368 1058 l 555 1058 l 728 888 l 728 873 l 545 873 l 460 969 l 371 873 l 191 873 z "},"ÿ":{"ha":911,"x_min":14,"x_max":900,"o":"m 269 -296 q 141 -277 208 -296 l 170 -106 q 222 -113 195 -113 q 299 -97 265 -113 q 341 -48 332 -81 l 348 -22 l 112 580 l 14 594 l 14 734 l 454 734 l 454 594 l 363 581 l 462 283 l 463 278 l 467 278 l 583 583 l 499 594 l 499 734 l 900 734 l 900 594 l 813 582 l 538 -107 q 486 -200 519 -157 q 399 -270 452 -243 q 269 -296 347 -296 m 508 873 l 508 1058 l 730 1058 l 730 873 l 508 873 m 190 873 l 190 1058 l 412 1058 l 412 873 l 190 873 z "},"ỵ":{"ha":911,"x_min":14,"x_max":900,"o":"m 269 -296 q 141 -277 208 -296 l 170 -106 q 222 -113 195 -113 q 299 -97 265 -113 q 341 -48 332 -81 l 348 -22 l 112 580 l 14 594 l 14 734 l 454 734 l 454 594 l 363 581 l 462 283 l 463 278 l 467 278 l 583 583 l 499 594 l 499 734 l 900 734 l 900 594 l 813 582 l 538 -107 q 486 -200 519 -157 q 399 -270 452 -243 q 269 -296 347 -296 m 602 -282 l 602 -97 l 847 -97 l 847 -282 l 602 -282 z "},"ỳ":{"ha":911,"x_min":14,"x_max":900,"o":"m 269 -296 q 141 -277 208 -296 l 170 -106 q 222 -113 195 -113 q 299 -97 265 -113 q 341 -48 332 -81 l 348 -22 l 112 580 l 14 594 l 14 734 l 454 734 l 454 594 l 363 581 l 462 283 l 463 278 l 467 278 l 583 583 l 499 594 l 499 734 l 900 734 l 900 594 l 813 582 l 538 -107 q 486 -200 519 -157 q 399 -270 452 -243 q 269 -296 347 -296 m 601 873 l 406 873 l 216 1054 l 217 1058 l 460 1058 l 601 873 z "},"ỷ":{"ha":911,"x_min":14,"x_max":900,"o":"m 269 -296 q 141 -277 208 -296 l 170 -106 q 222 -113 195 -113 q 299 -97 265 -113 q 341 -48 332 -81 l 348 -22 l 112 580 l 14 594 l 14 734 l 454 734 l 454 594 l 363 581 l 462 283 l 463 278 l 467 278 l 583 583 l 499 594 l 499 734 l 900 734 l 900 594 l 813 582 l 538 -107 q 486 -200 519 -157 q 399 -270 452 -243 q 269 -296 347 -296 m 352 851 l 336 937 q 405 948 384 938 q 427 979 427 958 q 404 1012 427 1002 q 338 1022 380 1022 l 342 1122 q 559 1087 484 1122 q 634 988 634 1052 q 605 923 634 947 q 533 892 575 899 l 532 851 l 352 851 z "},"ỹ":{"ha":911,"x_min":14,"x_max":900,"o":"m 269 -296 q 141 -277 208 -296 l 170 -106 q 222 -113 195 -113 q 299 -97 265 -113 q 341 -48 332 -81 l 348 -22 l 112 580 l 14 594 l 14 734 l 454 734 l 454 594 l 363 581 l 462 283 l 463 278 l 467 278 l 583 583 l 499 594 l 499 734 l 900 734 l 900 594 l 813 582 l 538 -107 q 486 -200 519 -157 q 399 -270 452 -243 q 269 -296 347 -296 m 315 861 l 194 895 q 217 983 194 943 q 277 1048 240 1023 q 357 1072 315 1072 q 427 1056 391 1072 q 494 1024 463 1040 q 549 1008 526 1008 q 591 1029 576 1009 q 605 1080 605 1049 l 726 1046 q 703 957 726 997 q 643 892 680 916 q 562 868 606 868 q 490 884 526 868 q 424 917 454 901 q 370 933 393 933 q 329 912 342 933 q 315 861 315 890 z "},"z":{"ha":783,"x_min":60,"x_max":722,"o":"m 60 0 l 60 131 l 431 574 l 279 574 l 254 447 l 81 447 l 81 734 l 713 734 l 713 585 l 379 167 l 522 167 l 558 309 l 722 309 l 722 0 l 60 0 z "},"ź":{"ha":783,"x_min":60,"x_max":722,"o":"m 60 0 l 60 131 l 431 574 l 279 574 l 254 447 l 81 447 l 81 734 l 713 734 l 713 585 l 379 167 l 522 167 l 558 309 l 722 309 l 722 0 l 60 0 m 250 873 l 391 1058 l 634 1058 l 635 1054 l 446 873 l 250 873 z "},"ž":{"ha":783,"x_min":60,"x_max":722,"o":"m 60 0 l 60 131 l 431 574 l 279 574 l 254 447 l 81 447 l 81 734 l 713 734 l 713 585 l 379 167 l 522 167 l 558 309 l 722 309 l 722 0 l 60 0 m 660 1058 l 660 1040 l 484 873 l 296 873 l 123 1043 l 123 1058 l 306 1058 l 391 962 l 480 1058 l 660 1058 z "},"ż":{"ha":783,"x_min":60,"x_max":722,"o":"m 60 0 l 60 131 l 431 574 l 279 574 l 254 447 l 81 447 l 81 734 l 713 734 l 713 585 l 379 167 l 522 167 l 558 309 l 722 309 l 722 0 l 60 0 m 269 873 l 269 1058 l 513 1058 l 513 873 l 269 873 z "},"ﬁ":{"ha":948,"x_min":18,"x_max":925,"o":"m 22 0 l 22 139 l 124 161 l 124 570 l 18 570 l 18 734 l 124 734 l 124 766 q 216 993 124 913 q 477 1072 308 1072 q 591 1062 535 1072 q 720 1032 646 1052 l 688 846 q 590 868 634 861 q 503 876 547 876 q 398 847 433 876 q 362 766 362 818 l 362 734 l 823 734 l 823 161 l 925 139 l 925 0 l 499 0 l 499 139 l 585 161 l 585 570 l 362 570 l 362 161 l 449 139 l 449 0 l 22 0 z "},"ﬂ":{"ha":994,"x_min":22,"x_max":972,"o":"m 22 0 l 22 139 l 124 161 l 124 570 l 35 570 l 35 734 l 124 734 l 124 753 q 219 989 124 907 q 488 1072 313 1072 q 603 1062 546 1072 q 735 1032 660 1052 l 886 1032 l 886 161 l 972 139 l 972 0 l 562 0 l 562 139 l 648 161 l 648 874 q 576 886 608 882 q 512 890 544 890 q 400 854 438 890 q 362 753 362 819 l 362 734 l 520 734 l 520 570 l 362 570 l 362 161 l 449 139 l 449 0 l 22 0 z "},"ﬃ":{"ha":1479,"x_min":38,"x_max":1456,"o":"m 58 0 l 58 139 l 144 161 l 144 570 l 38 570 l 38 734 l 144 734 l 144 808 q 221 1004 144 935 q 436 1072 298 1072 q 513 1066 473 1072 q 577 1054 554 1061 l 559 878 q 475 889 519 889 q 382 808 382 889 l 382 734 l 552 734 l 552 570 l 382 570 l 382 161 l 513 139 l 513 0 l 58 0 m 553 0 l 553 139 l 655 161 l 655 570 l 549 570 l 549 734 l 655 734 l 655 766 q 747 993 655 913 q 1008 1072 839 1072 q 1122 1062 1066 1072 q 1251 1032 1177 1052 l 1219 846 q 1121 868 1165 861 q 1034 876 1078 876 q 929 847 964 876 q 893 766 893 818 l 893 734 l 1354 734 l 1354 161 l 1456 139 l 1456 0 l 1030 0 l 1030 139 l 1116 161 l 1116 570 l 893 570 l 893 161 l 980 139 l 980 0 l 553 0 z "},"ﬄ":{"ha":1567,"x_min":38,"x_max":1546,"o":"m 58 0 l 58 139 l 144 161 l 144 570 l 38 570 l 38 734 l 144 734 l 144 808 q 221 1004 144 935 q 436 1072 298 1072 q 513 1066 473 1072 q 577 1054 554 1061 l 559 878 q 475 889 519 889 q 382 808 382 889 l 382 734 l 552 734 l 552 570 l 382 570 l 382 161 l 513 139 l 513 0 l 58 0 m 595 0 l 595 139 l 697 161 l 697 570 l 608 570 l 608 734 l 697 734 l 697 753 q 792 989 697 907 q 1061 1072 886 1072 q 1176 1062 1119 1072 q 1308 1032 1233 1052 l 1459 1032 l 1459 161 l 1546 139 l 1546 0 l 1135 0 l 1135 139 l 1221 161 l 1221 874 q 1149 886 1181 882 q 1085 890 1117 890 q 973 854 1011 890 q 935 753 935 819 l 935 734 l 1093 734 l 1093 570 l 935 570 l 935 161 l 1022 139 l 1022 0 l 595 0 z "},"ª":{"ha":576,"x_min":59,"x_max":513,"o":"m 228 469 q 103 511 147 469 q 59 624 59 552 q 116 741 59 700 q 283 781 174 781 l 376 781 l 376 815 q 298 900 376 900 q 229 883 254 900 q 205 834 205 865 l 92 843 l 92 847 q 145 958 87 913 q 298 1002 203 1002 q 443 954 389 1002 q 496 814 496 905 l 496 602 q 500 537 496 567 q 513 479 504 507 l 393 479 q 384 509 387 493 q 378 542 380 525 q 318 490 356 511 q 228 469 281 469 m 257 569 q 329 590 292 569 q 376 633 366 610 l 376 701 l 284 701 q 207 679 235 701 q 178 627 178 658 q 257 569 178 569 z "},"º":{"ha":608,"x_min":69,"x_max":540,"o":"m 305 469 q 133 531 197 469 q 69 695 69 594 l 69 774 q 133 938 69 875 q 304 1002 197 1002 q 475 938 411 1002 q 540 774 540 875 l 540 695 q 476 531 540 594 q 305 469 412 469 m 305 570 q 391 604 361 570 q 420 695 420 638 l 420 774 q 390 865 420 831 q 304 900 360 900 q 218 865 247 900 q 189 774 189 831 l 189 695 q 218 604 189 639 q 305 570 248 570 z "},"ⁿ":{"ha":645,"x_min":89,"x_max":574,"o":"m 89 444 l 89 987 l 217 987 l 239 903 q 303 970 264 946 q 393 994 342 994 q 528 944 481 994 q 574 786 574 893 l 574 444 l 416 444 l 416 732 q 396 829 416 800 q 334 859 376 859 q 248 813 271 859 l 248 444 l 89 444 z "},"А":{"ha":1017,"x_min":16,"x_max":1001,"o":"m 16 0 l 16 139 l 85 149 l 379 987 l 637 987 l 932 149 l 1001 139 l 1001 0 l 632 0 l 632 139 l 696 151 l 667 258 l 349 258 l 321 151 l 385 139 l 385 0 l 16 0 m 399 425 l 616 425 l 519 724 l 509 759 l 505 759 l 493 721 l 399 425 z "},"Б":{"ha":932,"x_min":45,"x_max":903,"o":"m 45 0 l 45 139 l 147 161 l 147 826 l 45 848 l 45 987 l 814 987 l 814 718 l 639 718 l 632 806 l 385 806 l 385 646 l 509 646 q 717 606 629 646 q 854 495 806 566 q 903 328 903 424 q 854 156 903 230 q 716 41 805 82 q 509 0 627 0 l 45 0 m 385 181 l 509 181 q 624 223 581 181 q 666 329 666 265 q 625 427 666 389 q 509 464 583 464 l 385 464 l 385 181 z "},"В":{"ha":922,"x_min":27,"x_max":903,"o":"m 27 0 l 27 139 l 130 161 l 130 826 l 27 848 l 27 987 l 474 987 q 765 919 661 987 q 869 715 869 850 q 836 590 869 645 q 734 506 803 534 q 863 428 823 487 q 903 293 903 370 q 806 74 903 148 q 524 0 709 0 l 27 0 m 368 578 l 464 578 q 631 688 631 578 q 592 778 631 749 q 474 806 553 806 l 368 806 l 368 578 m 368 181 l 524 181 q 666 294 666 181 q 635 389 666 357 q 536 420 604 420 l 368 420 l 368 181 z "},"Г":{"ha":832,"x_min":39,"x_max":808,"o":"m 39 0 l 39 139 l 141 161 l 141 826 l 39 848 l 39 987 l 808 987 l 808 718 l 633 718 l 626 806 l 379 806 l 379 161 l 481 139 l 481 0 l 39 0 z "},"Ѓ":{"ha":832,"x_min":39,"x_max":808,"o":"z "},"Ґ":{"ha":833,"x_min":41,"x_max":810,"o":"m 41 0 l 41 139 l 144 161 l 144 826 l 41 848 l 41 987 l 596 987 l 633 1251 l 810 1251 l 810 806 l 382 806 l 382 161 l 484 139 l 484 0 l 41 0 z "},"Д":{"ha":1070,"x_min":23,"x_max":1038,"o":"m 35 -242 l 23 181 l 94 181 q 158 252 130 205 q 205 377 186 298 q 229 581 224 456 l 249 828 l 157 848 l 157 987 l 1034 987 l 1034 848 l 932 826 l 932 181 l 1038 181 l 1016 -243 l 800 -243 l 800 0 l 260 0 l 260 -242 l 35 -242 m 366 181 l 694 181 l 694 806 l 484 806 l 468 581 q 435 344 462 437 q 366 181 409 250 z "},"Е":{"ha":888,"x_min":27,"x_max":827,"o":"m 27 0 l 27 139 l 130 161 l 130 826 l 27 848 l 27 987 l 816 987 l 816 703 l 636 703 l 631 804 l 368 804 l 368 602 l 683 602 l 683 419 l 368 419 l 368 184 l 644 184 l 649 290 l 827 290 l 827 0 l 27 0 z "},"Ѐ":{"ha":888,"x_min":27,"x_max":827,"o":"m 27 0 l 27 139 l 130 161 l 130 826 l 27 848 l 27 987 l 816 987 l 816 703 l 636 703 l 631 804 l 368 804 l 368 602 l 683 602 l 683 419 l 368 419 l 368 184 l 644 184 l 649 290 l 827 290 l 827 0 l 27 0 m 585 1059 l 390 1059 l 200 1240 l 201 1244 l 444 1244 l 585 1059 z "},"Ё":{"ha":888,"x_min":27,"x_max":827,"o":"m 27 0 l 27 139 l 130 161 l 130 826 l 27 848 l 27 987 l 816 987 l 816 703 l 636 703 l 631 804 l 368 804 l 368 602 l 683 602 l 683 419 l 368 419 l 368 184 l 644 184 l 649 290 l 827 290 l 827 0 l 27 0 m 492 1059 l 492 1244 l 714 1244 l 714 1059 l 492 1059 m 174 1059 l 174 1244 l 396 1244 l 396 1059 l 174 1059 z "},"Ж":{"ha":1508,"x_min":16,"x_max":1494,"o":"m 16 0 l 16 139 l 114 153 l 331 549 l 240 698 q 177 769 203 751 q 125 787 151 787 q 81 778 104 787 l 46 961 q 107 988 72 977 q 188 998 142 998 q 274 983 239 998 q 340 933 310 968 q 403 842 370 899 l 530 610 l 635 610 l 635 826 l 532 848 l 532 987 l 976 987 l 976 848 l 873 826 l 873 610 l 978 610 l 1100 842 q 1193 963 1145 928 q 1316 998 1240 998 q 1395 988 1361 998 q 1456 961 1429 978 l 1423 778 q 1379 787 1398 787 q 1327 770 1356 787 q 1265 698 1297 753 l 1179 549 l 1390 153 l 1494 139 l 1494 0 l 1076 0 l 1076 139 l 1107 146 l 1106 147 l 996 388 l 873 388 l 873 161 l 976 139 l 976 0 l 532 0 l 532 139 l 635 161 l 635 388 l 513 388 l 399 150 l 398 146 l 427 139 l 427 0 l 16 0 z "},"З":{"ha":827,"x_min":30,"x_max":794,"o":"m 406 -14 q 218 18 304 -14 q 81 114 132 51 q 32 270 30 178 l 33 274 l 266 274 q 306 198 266 229 q 409 167 345 167 q 516 201 475 167 q 556 297 556 235 q 522 384 556 351 q 417 416 488 416 l 292 416 l 292 591 l 417 591 q 511 622 481 591 q 541 701 541 652 q 504 788 541 756 q 392 820 467 820 q 231 762 281 820 l 214 650 l 33 650 l 33 844 q 197 961 101 920 q 406 1002 294 1002 q 679 930 578 1002 q 779 730 779 858 q 739 596 779 654 q 631 508 700 538 q 752 420 710 478 q 794 277 794 361 q 745 121 794 186 q 609 21 696 56 q 406 -14 522 -14 z "},"И":{"ha":1101,"x_min":43,"x_max":1079,"o":"m 43 0 l 43 139 l 146 161 l 146 826 l 43 848 l 43 987 l 486 987 l 486 848 l 383 826 l 383 439 l 387 437 l 738 776 l 738 826 l 636 848 l 636 987 l 1079 987 l 1079 848 l 977 826 l 977 161 l 1079 139 l 1079 0 l 636 0 l 636 139 l 738 161 l 738 542 l 734 543 l 383 204 l 383 161 l 486 139 l 486 0 l 43 0 z "},"Й":{"ha":1101,"x_min":43,"x_max":1079,"o":"m 43 0 l 43 139 l 146 161 l 146 826 l 43 848 l 43 987 l 486 987 l 486 848 l 383 826 l 383 439 l 387 437 l 738 776 l 738 826 l 636 848 l 636 987 l 1079 987 l 1079 848 l 977 826 l 977 161 l 1079 139 l 1079 0 l 636 0 l 636 139 l 738 161 l 738 542 l 734 543 l 383 204 l 383 161 l 486 139 l 486 0 l 43 0 m 562 1039 q 376 1095 446 1039 q 311 1240 307 1152 l 313 1244 l 467 1244 q 490 1187 467 1210 q 562 1164 513 1164 q 633 1186 610 1164 q 655 1244 655 1208 l 810 1244 l 812 1240 q 747 1095 815 1152 q 562 1039 678 1039 z "},"Ѝ":{"ha":1101,"x_min":43,"x_max":1079,"o":"m 43 0 l 43 139 l 146 161 l 146 826 l 43 848 l 43 987 l 486 987 l 486 848 l 383 826 l 383 439 l 387 437 l 738 776 l 738 826 l 636 848 l 636 987 l 1079 987 l 1079 848 l 977 826 l 977 161 l 1079 139 l 1079 0 l 636 0 l 636 139 l 738 161 l 738 542 l 734 543 l 383 204 l 383 161 l 486 139 l 486 0 l 43 0 m 703 1059 l 507 1059 l 317 1240 l 319 1244 l 562 1244 l 703 1059 z "},"Ҋ":{"ha":1101,"x_min":43,"x_max":1079,"o":"m 43 0 l 43 139 l 146 161 l 146 826 l 43 848 l 43 987 l 486 987 l 486 848 l 383 826 l 383 439 l 387 437 l 738 776 l 738 826 l 636 848 l 636 987 l 1079 987 l 1079 848 l 977 826 l 977 161 l 1079 139 l 1079 0 l 636 0 l 636 139 l 738 161 l 738 542 l 734 543 l 383 204 l 383 161 l 486 139 l 486 0 l 43 0 m 562 1039 q 376 1095 446 1039 q 311 1240 307 1152 l 313 1244 l 467 1244 q 490 1187 467 1210 q 562 1164 513 1164 q 633 1186 610 1164 q 655 1244 655 1208 l 810 1244 l 812 1240 q 747 1095 815 1152 q 562 1039 678 1039 z "},"К":{"ha":998,"x_min":32,"x_max":1000,"o":"m 32 0 l 32 139 l 134 161 l 134 826 l 32 848 l 32 987 l 465 987 l 465 848 l 372 826 l 372 610 l 448 610 l 610 842 q 728 964 672 929 q 850 998 784 998 q 927 988 892 998 q 988 961 963 977 l 947 779 q 903 787 922 787 q 844 769 876 787 q 770 698 812 751 l 651 538 l 890 156 l 1000 139 l 1000 0 l 568 0 l 568 139 l 612 146 l 612 148 l 480 388 l 372 388 l 372 161 l 465 139 l 465 0 l 32 0 z "},"Ќ":{"ha":998,"x_min":32,"x_max":1000,"o":"m 32 0 l 32 139 l 134 161 l 134 826 l 32 848 l 32 987 l 465 987 l 465 848 l 372 826 l 372 610 l 448 610 l 610 842 q 728 964 672 929 q 850 998 784 998 q 927 988 892 998 q 988 961 963 977 l 947 779 q 903 787 922 787 q 844 769 876 787 q 770 698 812 751 l 651 538 l 890 156 l 1000 139 l 1000 0 l 568 0 l 568 139 l 612 146 l 612 148 l 480 388 l 372 388 l 372 161 l 465 139 l 465 0 l 32 0 m 358 1059 l 499 1244 l 742 1244 l 743 1240 l 553 1059 l 358 1059 z "},"Л":{"ha":1041,"x_min":28,"x_max":1011,"o":"m 28 0 l 28 181 l 55 181 q 149 221 117 189 q 191 330 180 254 q 200 547 201 407 l 195 826 l 93 848 l 93 987 l 1011 987 l 1011 848 l 909 826 l 909 161 l 1011 139 l 1011 0 l 569 0 l 569 139 l 671 161 l 671 806 l 433 806 l 438 547 q 400 231 440 352 q 282 55 361 111 q 86 0 203 0 l 28 0 z "},"М":{"ha":1436,"x_min":22,"x_max":1423,"o":"m 22 0 l 22 139 l 123 161 l 123 826 l 22 848 l 22 987 l 488 987 l 726 337 l 730 337 l 962 987 l 1423 987 l 1423 848 l 1320 826 l 1320 161 l 1423 139 l 1423 0 l 981 0 l 981 139 l 1087 161 l 1087 290 l 1093 754 l 1088 755 l 809 0 l 622 0 l 338 746 l 334 745 l 350 322 l 350 161 l 465 139 l 465 0 l 22 0 z "},"Н":{"ha":1094,"x_min":27,"x_max":1067,"o":"m 27 0 l 27 139 l 130 161 l 130 826 l 27 848 l 27 987 l 470 987 l 470 848 l 368 826 l 368 576 l 727 576 l 727 826 l 625 848 l 625 987 l 1067 987 l 1067 848 l 964 826 l 964 161 l 1067 139 l 1067 0 l 625 0 l 625 139 l 727 161 l 727 394 l 368 394 l 368 161 l 470 139 l 470 0 l 27 0 z "},"О":{"ha":983,"x_min":42,"x_max":983,"o":"m 511 -14 q 322 23 408 -14 q 174 129 237 61 q 76 288 111 197 q 42 486 42 379 l 42 502 q 76 699 42 608 q 173 858 111 790 q 321 964 236 926 q 509 1002 407 1002 q 696 964 610 1002 q 847 858 782 926 q 947 699 911 790 q 983 502 983 608 l 983 486 q 947 288 983 379 q 847 129 911 197 q 696 23 783 61 q 511 -14 610 -14 m 511 166 q 685 254 623 166 q 747 486 747 342 l 747 503 q 684 733 747 645 q 509 821 622 821 q 335 734 391 821 q 280 503 280 647 l 280 486 q 336 254 280 341 q 511 166 393 166 z "},"П":{"ha":1097,"x_min":39,"x_max":1074,"o":"m 39 0 l 39 139 l 141 161 l 141 826 l 39 848 l 39 987 l 1074 987 l 1074 848 l 972 826 l 972 161 l 1074 139 l 1074 0 l 632 0 l 632 139 l 734 161 l 734 806 l 379 806 l 379 161 l 481 139 l 481 0 l 39 0 z "},"Р":{"ha":910,"x_min":27,"x_max":893,"o":"m 27 0 l 27 139 l 130 161 l 130 826 l 27 848 l 27 987 l 507 987 q 712 946 625 987 q 846 831 799 905 q 893 660 893 758 q 846 489 893 562 q 712 375 799 416 q 507 334 625 334 l 368 334 l 368 161 l 470 139 l 470 0 l 27 0 m 368 517 l 507 517 q 617 556 580 517 q 655 659 655 596 q 617 764 655 723 q 507 806 580 806 l 368 806 l 368 517 z "},"С":{"ha":909,"x_min":24,"x_max":873,"o":"m 512 -14 q 260 43 371 -14 q 87 208 150 100 q 24 471 24 316 l 24 516 q 82 768 24 659 q 247 940 140 878 q 503 1002 355 1002 q 699 974 606 1002 q 872 880 792 947 l 872 626 l 699 626 l 675 772 q 601 809 641 795 q 511 823 561 823 q 330 743 398 823 q 261 517 261 663 l 261 471 q 293 311 261 380 q 382 203 325 242 q 515 165 439 165 q 596 173 555 165 q 676 196 637 182 l 700 336 l 873 336 l 873 87 q 723 16 814 46 q 512 -14 631 -14 z "},"Т":{"ha":935,"x_min":9,"x_max":927,"o":"m 245 0 l 245 139 l 348 161 l 348 803 l 195 803 l 189 696 l 9 696 l 9 987 l 927 987 l 927 696 l 745 696 l 740 803 l 586 803 l 586 161 l 689 139 l 689 0 l 245 0 z "},"У":{"ha":974,"x_min":21,"x_max":976,"o":"m 313 -14 q 276 -14 296 -14 q 241 -12 255 -13 l 237 170 q 260 168 244 169 q 284 167 276 167 q 372 191 341 167 q 416 258 403 214 l 423 283 l 142 832 l 21 848 l 21 987 l 457 987 l 457 848 l 390 837 l 515 576 l 524 557 l 528 557 l 630 833 l 573 848 l 573 987 l 976 987 l 976 848 l 868 833 l 601 203 q 490 43 555 100 q 313 -14 425 -14 z "},"Ў":{"ha":974,"x_min":21,"x_max":976,"o":"m 313 -14 q 276 -14 296 -14 q 241 -12 255 -13 l 237 170 q 260 168 244 169 q 284 167 276 167 q 372 191 341 167 q 416 258 403 214 l 423 283 l 142 832 l 21 848 l 21 987 l 457 987 l 457 848 l 390 837 l 515 576 l 524 557 l 528 557 l 630 833 l 573 848 l 573 987 l 976 987 l 976 848 l 868 833 l 601 203 q 490 43 555 100 q 313 -14 425 -14 m 513 1039 q 327 1095 397 1039 q 262 1240 258 1152 l 264 1244 l 418 1244 q 441 1187 418 1210 q 513 1164 464 1164 q 584 1186 562 1164 q 606 1244 606 1208 l 762 1244 l 763 1240 q 698 1095 766 1152 q 513 1039 629 1039 z "}}}
